<?xml version="1.0" encoding="utf-8"?>
<!-- Generator: Adobe Illustrator 27.5.0, SVG Export Plug-In . SVG Version: 6.00 Build 0)  -->
<svg version="1.1" id="Capa_1" xmlns="http://www.w3.org/2000/svg" xmlns:xlink="http://www.w3.org/1999/xlink" x="0px" y="0px"
	 viewBox="0 0 24 24" style="enable-background:new 0 0 24 24;" xml:space="preserve">
<style type="text/css">
	.st0{fill:none;}
</style>
<path  d="M18,21.8H6c-1.5,0-2.8-1.2-2.8-2.8V7c0-1.5,1.2-2.8,2.8-2.8h2.2V3c0-0.4,0.3-0.8,0.8-0.8S9.8,2.6,9.8,3v1.2h4.5
	V3c0-0.4,0.3-0.8,0.8-0.8s0.8,0.3,0.8,0.8v1.2H18c1.5,0,2.8,1.2,2.8,2.8v12C20.8,20.5,19.5,21.8,18,21.8z M4.8,11.8V19
	c0,0.7,0.6,1.2,1.2,1.2h12c0.7,0,1.2-0.6,1.2-1.2v-7.2H4.8z M4.8,10.2h14.5V7c0-0.7-0.6-1.2-1.2-1.2h-2.2V7c0,0.4-0.3,0.8-0.8,0.8
	S14.2,7.4,14.2,7V5.8H9.8V7c0,0.4-0.3,0.8-0.8,0.8S8.2,7.4,8.2,7V5.8H6C5.3,5.8,4.8,6.3,4.8,7V10.2z"/>
</svg>
