<?xml version="1.0" encoding="utf-8"?>
<!-- Generator: Adobe Illustrator 27.5.0, SVG Export Plug-In . SVG Version: 6.00 Build 0)  -->
<svg version="1.1" id="Capa_1" xmlns="http://www.w3.org/2000/svg" xmlns:xlink="http://www.w3.org/1999/xlink" x="0px" y="0px"
	 viewBox="0 0 24 24" style="enable-background:new 0 0 24 24;" xml:space="preserve">
<style type="text/css">
	.st0{fill:none;}
</style>
<path  d="M12.8,6c0-0.4-0.3-0.8-0.8-0.8S11.2,5.6,11.2,6H12.8z M11.2,8c0,0.4,0.3,0.8,0.8,0.8s0.8-0.3,0.8-0.8H11.2z
	 M12.8,16c0-0.4-0.3-0.8-0.8-0.8s-0.8,0.3-0.8,0.8H12.8z M11.2,18c0,0.4,0.3,0.8,0.8,0.8s0.8-0.3,0.8-0.8H11.2z M15,8.8
	c0.4,0,0.8-0.3,0.8-0.8c0-0.4-0.3-0.8-0.8-0.8V8.8z M11,8V7.2l0,0V8z M13,16v-0.8l0,0V16z M9,15.2c-0.4,0-0.8,0.3-0.8,0.8
	s0.3,0.8,0.8,0.8V15.2z M13,12v-0.8l0,0V12z M11,12v-0.8l0,0V12z M10.2,8.2L9.9,7.5l0,0L10.2,8.2z M9.2,9.2L8.5,8.9l0,0L9.2,9.2z
	 M9.2,10.8l-0.7,0.3l0,0L9.2,10.8z M9.6,11.4l0.5-0.5l0,0L9.6,11.4z M10.2,11.8l-0.3,0.7l0,0L10.2,11.8z M13.8,15.8l0.3,0.7l0,0
	L13.8,15.8z M14.8,14.8l0.7,0.3l0,0L14.8,14.8z M14.8,13.2l0.7-0.3l0,0L14.8,13.2z M14.4,12.6l-0.5,0.5l0,0L14.4,12.6z M13.8,12.2
	l0.3-0.7l0,0L13.8,12.2z M20.2,12c0,4.6-3.7,8.2-8.2,8.2v1.5c5.4,0,9.8-4.4,9.8-9.8H20.2z M12,20.2c-4.6,0-8.2-3.7-8.2-8.2H2.2
	c0,5.4,4.4,9.8,9.8,9.8V20.2z M3.8,12c0-4.6,3.7-8.2,8.2-8.2V2.2c-5.4,0-9.8,4.4-9.8,9.8H3.8z M12,3.8c4.6,0,8.2,3.7,8.2,8.2h1.5
	c0-5.4-4.4-9.8-9.8-9.8V3.8z M11.2,6v2h1.5V6H11.2z M11.2,16v2h1.5v-2H11.2z M15,7.2h-4v1.5h4V7.2z M13,15.2H9v1.5h4V15.2z M13,11.2
	h-2v1.5h2V11.2z M11,7.2c-0.4,0-0.7,0.1-1.1,0.2l0.6,1.4c0.2-0.1,0.3-0.1,0.5-0.1V7.2z M9.9,7.5C9.6,7.6,9.3,7.8,9.1,8.1l1.1,1.1
	c0.1-0.1,0.3-0.2,0.4-0.3L9.9,7.5z M9.1,8.1C8.8,8.3,8.6,8.6,8.5,8.9l1.4,0.6c0.1-0.2,0.2-0.3,0.3-0.4L9.1,8.1z M8.5,8.9
	C8.3,9.3,8.2,9.6,8.2,10h1.5c0-0.2,0-0.3,0.1-0.5L8.5,8.9z M8.2,10c0,0.4,0.1,0.7,0.2,1.1l1.4-0.6c-0.1-0.2-0.1-0.3-0.1-0.5H8.2z
	 M8.5,11.1c0.1,0.3,0.3,0.6,0.6,0.9l1.1-1.1c-0.1-0.1-0.2-0.3-0.3-0.4L8.5,11.1z M9.1,11.9c0.3,0.3,0.6,0.5,0.9,0.6l0.6-1.4
	c-0.2-0.1-0.3-0.2-0.4-0.3L9.1,11.9z M9.9,12.5c0.3,0.1,0.7,0.2,1.1,0.2v-1.5c-0.2,0-0.3,0-0.5-0.1L9.9,12.5z M13,16.8
	c0.4,0,0.7-0.1,1.1-0.2l-0.6-1.4c-0.2,0.1-0.3,0.1-0.5,0.1V16.8z M14.1,16.5c0.3-0.1,0.6-0.3,0.9-0.6l-1.1-1.1
	c-0.1,0.1-0.3,0.2-0.4,0.3L14.1,16.5z M14.9,15.9c0.3-0.3,0.5-0.6,0.6-0.9l-1.4-0.6c-0.1,0.2-0.2,0.3-0.3,0.4L14.9,15.9z M15.5,15.1
	c0.1-0.3,0.2-0.7,0.2-1.1h-1.5c0,0.2,0,0.3-0.1,0.5L15.5,15.1z M15.8,14c0-0.4-0.1-0.7-0.2-1.1l-1.4,0.6c0.1,0.2,0.1,0.3,0.1,0.5
	H15.8z M15.5,12.9c-0.1-0.3-0.3-0.6-0.6-0.9l-1.1,1.1c0.1,0.1,0.2,0.3,0.3,0.4L15.5,12.9z M14.9,12.1c-0.3-0.3-0.6-0.5-0.9-0.6
	l-0.6,1.4c0.2,0.1,0.3,0.2,0.4,0.3L14.9,12.1z M14.1,11.5c-0.3-0.1-0.7-0.2-1.1-0.2v1.5c0.2,0,0.3,0,0.5,0.1L14.1,11.5z"/>
</svg>
