<?xml version="1.0" encoding="utf-8"?>
<!-- Generator: Adobe Illustrator 27.5.0, SVG Export Plug-In . SVG Version: 6.00 Build 0)  -->
<svg version="1.1" id="Capa_1" xmlns="http://www.w3.org/2000/svg" xmlns:xlink="http://www.w3.org/1999/xlink" x="0px" y="0px"
	 viewBox="0 0 24 24" style="enable-background:new 0 0 24 24;" xml:space="preserve">
<style type="text/css">
	.st0{fill:none;}
</style>
<path  d="M12,21.8c-0.1,0-0.2,0-0.3-0.1C6.4,19.3,3.2,15.3,3.2,11c0-4.8,3.9-8.8,8.8-8.8c4.8,0,8.8,3.9,8.8,8.8
	c0,4.3-3.2,8.3-8.4,10.7C12.2,21.7,12.1,21.8,12,21.8z M12,3.8C8,3.8,4.8,7,4.8,11c0,3.6,2.7,7,7.2,9.2c4.5-2.2,7.2-5.6,7.2-9.2
	C19.2,7,16,3.8,12,3.8z"/>
<path  d="M12,14.8c-2.1,0-3.8-1.7-3.8-3.8c0-2.1,1.7-3.8,3.8-3.8c2.1,0,3.8,1.7,3.8,3.8C15.8,13.1,14.1,14.8,12,14.8z
	 M12,8.8c-1.2,0-2.2,1-2.2,2.2s1,2.2,2.2,2.2c1.2,0,2.2-1,2.2-2.2S13.2,8.8,12,8.8z"/>
</svg>
