<?xml version="1.0" encoding="utf-8"?>
<!-- Generator: Adobe Illustrator 27.5.0, SVG Export Plug-In . SVG Version: 6.00 Build 0)  -->
<svg version="1.1" id="Capa_1" xmlns="http://www.w3.org/2000/svg" xmlns:xlink="http://www.w3.org/1999/xlink" x="0px" y="0px"
	 viewBox="0 0 24 24" style="enable-background:new 0 0 24 24;" xml:space="preserve">
<style type="text/css">
	.st0{fill:none;}
</style>
<path  d="M10.5,11.2h-7c-0.4,0-0.8-0.3-0.8-0.8v-7c0-0.4,0.3-0.8,0.8-0.8h7c0.4,0,0.8,0.3,0.8,0.8v7
	C11.2,10.9,10.9,11.2,10.5,11.2z M4.2,9.8h5.5V4.2H4.2V9.8z"/>
<path  d="M10.5,21.2h-7c-0.4,0-0.8-0.3-0.8-0.8v-7c0-0.4,0.3-0.8,0.8-0.8h7c0.4,0,0.8,0.3,0.8,0.8v7
	C11.2,20.9,10.9,21.2,10.5,21.2z M4.2,19.8h5.5v-5.5H4.2V19.8z"/>
<path  d="M20.5,11.2h-7c-0.4,0-0.8-0.3-0.8-0.8v-7c0-0.4,0.3-0.8,0.8-0.8h7c0.4,0,0.8,0.3,0.8,0.8v7
	C21.2,10.9,20.9,11.2,20.5,11.2z M14.2,9.8h5.5V4.2h-5.5V9.8z"/>
<path  d="M20.5,21.2h-7c-0.4,0-0.8-0.3-0.8-0.8v-7c0-0.4,0.3-0.8,0.8-0.8h7c0.4,0,0.8,0.3,0.8,0.8v7
	C21.2,20.9,20.9,21.2,20.5,21.2z M14.2,19.8h5.5v-5.5h-5.5V19.8z"/>
</svg>
