<?xml version="1.0" encoding="utf-8"?>
<!-- Generator: Adobe Illustrator 27.5.0, SVG Export Plug-In . SVG Version: 6.00 Build 0)  -->
<svg version="1.1" id="Capa_1" xmlns="http://www.w3.org/2000/svg" xmlns:xlink="http://www.w3.org/1999/xlink" x="0px" y="0px"
	 viewBox="0 0 24 24" style="enable-background:new 0 0 24 24;" xml:space="preserve">
<style type="text/css">
	.st0{fill:none;}
</style>
<path  d="M23,19.8c-0.4,0-0.8-0.3-0.8-0.8v-1c0-1.8-1.5-3.2-3.2-3.2h-0.5c-0.4,0-0.8-0.3-0.8-0.8s0.3-0.8,0.8-0.8H19
	c2.6,0,4.8,2.1,4.8,4.8v1C23.8,19.4,23.4,19.8,23,19.8z M18,19.8c-0.4,0-0.8-0.3-0.8-0.8v-1c0-1.8-1.5-3.2-3.2-3.2h-4
	c-1.8,0-3.2,1.5-3.2,3.2v1c0,0.4-0.3,0.8-0.8,0.8S5.2,19.4,5.2,19v-1c0-2.6,2.1-4.8,4.8-4.8h4c2.6,0,4.8,2.1,4.8,4.8v1
	C18.8,19.4,18.4,19.8,18,19.8z M1,19.8c-0.4,0-0.8-0.3-0.8-0.8v-1c0-2.6,2.1-4.8,4.8-4.8h0.5c0.4,0,0.8,0.3,0.8,0.8
	s-0.3,0.8-0.8,0.8H5c-1.8,0-3.2,1.5-3.2,3.2v1C1.8,19.4,1.4,19.8,1,19.8z M17,11.8c-0.4,0-0.8-0.3-0.8-0.8s0.3-0.8,0.8-0.8
	c1.2,0,2.2-1,2.2-2.2s-1-2.2-2.2-2.2c-0.4,0-0.8-0.3-0.8-0.8s0.3-0.8,0.8-0.8c2.1,0,3.8,1.7,3.8,3.8S19.1,11.8,17,11.8z M12,11.8
	c-2.1,0-3.8-1.7-3.8-3.8S9.9,4.2,12,4.2c2.1,0,3.8,1.7,3.8,3.8S14.1,11.8,12,11.8z M12,5.8c-1.2,0-2.2,1-2.2,2.2s1,2.2,2.2,2.2
	c1.2,0,2.2-1,2.2-2.2S13.2,5.8,12,5.8z M7,11.8c-2.1,0-3.8-1.7-3.8-3.8S4.9,4.2,7,4.2c0.4,0,0.8,0.3,0.8,0.8S7.4,5.8,7,5.8
	c-1.2,0-2.2,1-2.2,2.2s1,2.2,2.2,2.2c0.4,0,0.8,0.3,0.8,0.8S7.4,11.8,7,11.8z"/>
</svg>
