<?xml version="1.0" encoding="utf-8"?>
<!-- Generator: Adobe Illustrator 27.5.0, SVG Export Plug-In . SVG Version: 6.00 Build 0)  -->
<svg version="1.1" id="Capa_1" xmlns="http://www.w3.org/2000/svg" xmlns:xlink="http://www.w3.org/1999/xlink" x="0px" y="0px"
	 viewBox="0 0 24 24" style="enable-background:new 0 0 24 24;" xml:space="preserve">
<style type="text/css">
	.st0{fill:none;}
</style>
<path  d="M20,21.8c-0.4,0-0.8-0.3-0.8-0.8v-2c0-1.8-1.5-3.2-3.2-3.2H8c-1.8,0-3.2,1.5-3.2,3.2v2c0,0.4-0.3,0.8-0.8,0.8
	S3.2,21.4,3.2,21v-2c0-2.6,2.1-4.8,4.8-4.8h8c2.6,0,4.8,2.1,4.8,4.8v2C20.8,21.4,20.4,21.8,20,21.8z M12,11.8
	c-2.6,0-4.8-2.1-4.8-4.8S9.4,2.2,12,2.2s4.8,2.1,4.8,4.8S14.6,11.8,12,11.8z M12,3.8c-1.8,0-3.2,1.5-3.2,3.2s1.5,3.2,3.2,3.2
	s3.2-1.5,3.2-3.2S13.8,3.8,12,3.8z"/>
</svg>
