<?xml version="1.0" encoding="utf-8"?>
<!-- Generator: Adobe Illustrator 27.5.0, SVG Export Plug-In . SVG Version: 6.00 Build 0)  -->
<svg version="1.1" id="Capa_1" xmlns="http://www.w3.org/2000/svg" xmlns:xlink="http://www.w3.org/1999/xlink" x="0px" y="0px"
	 viewBox="0 0 24 24" style="enable-background:new 0 0 24 24;" xml:space="preserve">
<style type="text/css">
	.st0{fill:none;}
</style>
<path  d="M12,21.8c-5.4,0-9.8-4.4-9.8-9.8S6.6,2.2,12,2.2s9.8,4.4,9.8,9.8S17.4,21.8,12,21.8z M12,3.8
	c-4.5,0-8.2,3.7-8.2,8.2s3.7,8.2,8.2,8.2s8.2-3.7,8.2-8.2S16.5,3.8,12,3.8z M15,17.8c-1.5,0-2.8-1.2-2.8-2.8s1.2-2.8,2.8-2.8
	s2.8,1.2,2.8,2.8S16.5,17.8,15,17.8z M15,13.8c-0.7,0-1.2,0.6-1.2,1.2s0.6,1.2,1.2,1.2s1.2-0.6,1.2-1.2S15.7,13.8,15,13.8z M8,16.8
	c-0.2,0-0.4-0.1-0.5-0.2c-0.3-0.3-0.3-0.8,0-1.1l8-8c0.3-0.3,0.8-0.3,1.1,0s0.3,0.8,0,1.1l-8,8C8.4,16.7,8.2,16.8,8,16.8z M9,11.8
	c-1.5,0-2.8-1.2-2.8-2.8S7.5,6.2,9,6.2s2.8,1.2,2.8,2.8S10.5,11.8,9,11.8z M9,7.8C8.3,7.8,7.8,8.3,7.8,9s0.6,1.2,1.2,1.2
	s1.2-0.6,1.2-1.2S9.7,7.8,9,7.8z"/>
</svg>
