<?xml version="1.0" encoding="utf-8"?>
<!-- Generator: Adobe Illustrator 27.5.0, SVG Export Plug-In . SVG Version: 6.00 Build 0)  -->
<svg version="1.1" id="Capa_1" xmlns="http://www.w3.org/2000/svg" xmlns:xlink="http://www.w3.org/1999/xlink" x="0px" y="0px"
	 viewBox="0 0 24 24" style="enable-background:new 0 0 24 24;" xml:space="preserve">
<style type="text/css">
	.st0{fill:none;}
</style>
<g>
	<path  d="M12,2.4c1.5,0,3,0,4.5,0c1.1,0,1.7,0.6,1.7,1.7c0,1.1,0,2.3,0,3.4c-0.1,3.1-0.7,6.1-1.7,9
		c-0.2,0.6-0.5,1.1-1,1.4c-0.1,0.1-0.2,0.2-0.2,0.4c0,0.6,0,1.1,0,1.7c0,0.9-0.6,1.6-1.5,1.6c-1.2,0-2.5,0-3.7,0
		c-0.8,0-1.5-0.7-1.5-1.5c0-0.6,0-1.2,0-1.8c0-0.2,0-0.3-0.2-0.4c-0.5-0.3-0.7-0.7-0.9-1.2c-0.9-2.5-1.5-5-1.7-7.6
		C5.7,7.4,5.7,5.7,5.7,4c0-1,0.6-1.6,1.6-1.6C8.9,2.4,10.5,2.4,12,2.4C12,2.4,12,2.4,12,2.4z M12,6.9c-1.5,0-3,0-4.5,0
		c-0.3,0-0.4,0.1-0.3,0.3c0.1,1,0.1,1.9,0.2,2.9c0.3,2,0.7,4.1,1.4,6c0.2,0.6,0.4,0.7,1,0.7c1.4,0,2.8,0,4.2,0
		c0.7,0,0.8-0.1,1.1-0.7c0.7-1.9,1.1-4,1.4-6c0.1-0.9,0.2-1.9,0.2-2.8c0-0.4,0-0.4-0.3-0.4C14.9,6.9,13.5,6.9,12,6.9z M12,5.3
		c1.3,0,2.6,0,3.9,0c0.9,0,0.9,0,0.8-0.9c0-0.5-0.1-0.6-0.6-0.6c-2.4,0-4.7,0-7.1,0c-0.5,0-0.9,0-1.4,0C7.3,3.9,7.2,4,7.2,4.4
		c0,0.2,0,0.3,0,0.5c0,0.4,0,0.4,0.4,0.4C9.1,5.3,10.6,5.3,12,5.3z M12,18.3C12,18.3,12,18.3,12,18.3c-0.5,0-1,0-1.5,0
		c-0.2,0-0.3,0.1-0.3,0.3c0,0.4,0,0.7,0,1.1c0,0.3,0.1,0.4,0.4,0.4c0.9,0,1.9,0,2.8,0c0.3,0,0.4-0.1,0.4-0.4c0-0.4,0-0.7,0-1.1
		c0-0.2-0.1-0.3-0.3-0.3C13,18.3,12.5,18.3,12,18.3z"/>
	<path  d="M12,11.6c-0.5,0-0.9,0-1.4,0c-0.4,0-0.5-0.1-0.5-0.5c0-0.5,0-1.1,0-1.6c0-0.4,0.2-0.5,0.5-0.5
		c0.9,0,1.8,0,2.7,0c0.3,0,0.5,0.2,0.5,0.5c0,0.6,0,1.1,0,1.7c0,0.3-0.1,0.5-0.4,0.5C12.9,11.7,12.5,11.6,12,11.6z"/>
</g>
</svg>
