<?xml version="1.0" encoding="utf-8"?>
<!-- Generator: Adobe Illustrator 27.5.0, SVG Export Plug-In . SVG Version: 6.00 Build 0)  -->
<svg version="1.1" id="Capa_1" xmlns="http://www.w3.org/2000/svg" xmlns:xlink="http://www.w3.org/1999/xlink" x="0px" y="0px"
	 viewBox="0 0 24 24" style="enable-background:new 0 0 24 24;" xml:space="preserve">
<style type="text/css">
	.st0{fill:none;}
</style>
<g>
	<g>
		<path  d="M11.5,19.5c-1-0.1-1.6-0.6-1.9-1.5c-0.6-1.5-1.2-3.1-1.8-4.7C7,11.2,6.2,9,5.4,6.8C5.2,6.3,5,6.1,4.5,6.3
			C3.9,6.6,3.5,6.5,3.2,6C3,5.5,3.3,5.1,3.8,4.8C5.2,4.1,6.3,4.6,6.9,6c1.3,3.4,2.5,6.7,3.7,10.1c0.1,0.4,0.3,0.7,0.4,1.1
			c0.2,0.6,0.6,0.5,1,0.4c0.5-0.1,0.4-0.5,0.3-0.9c-0.9-2.4-1.8-4.7-2.6-7.1C9.3,8.5,9.4,8.5,10.5,8c1.4-0.6,2.8-1.2,4.2-1.8
			c0.9-0.4,1.2-0.2,1.5,0.7c0.8,2.1,1.6,4.2,2.4,6.3c0.1,0.3,0.2,0.6,0.3,0.8c0.1,0.5,0.3,0.7,0.9,0.6c0.4-0.1,0.9,0,1,0.5
			c0.1,0.5-0.1,0.8-0.6,1c-2.7,1.1-5.5,2.2-8.2,3.3C11.8,19.5,11.6,19.5,11.5,19.5z M14.7,8c0,0-0.1,0-0.1,0
			c-0.9,0.4-1.9,0.8-2.8,1.2c-0.3,0.1-0.4,0.3-0.3,0.6c0.3,0.7,0.5,1.3,0.8,2c0.1,0.3,0.3,0.4,0.6,0.3c0.9-0.4,1.8-0.8,2.7-1.1
			c0.3-0.1,0.4-0.3,0.3-0.5c-0.3-0.7-0.5-1.4-0.8-2.1C15,8.2,14.9,8,14.7,8z M16.4,12.5c0,0-0.1,0-0.1,0c-1,0.4-1.9,0.8-2.9,1.2
			c-0.2,0.1-0.3,0.2-0.2,0.4c0.3,0.8,0.6,1.6,0.9,2.3c0.1,0.3,0.3,0.3,0.6,0.2c0.9-0.4,1.8-0.7,2.7-1.1c0.3-0.1,0.4-0.3,0.3-0.6
			c-0.3-0.7-0.5-1.4-0.8-2.2C16.6,12.7,16.6,12.5,16.4,12.5z"/>
	</g>
	<g>
		<path  d="M7,20.3c-0.9,0-1.6-0.7-1.6-1.6c0-0.8,0.7-1.5,1.5-1.5c0.8,0,1.6,0.7,1.6,1.6C8.6,19.6,7.9,20.3,7,20.3z"/>
	</g>
</g>
</svg>
