<?xml version="1.0" encoding="utf-8"?>
<!-- Generator: Adobe Illustrator 27.5.0, SVG Export Plug-In . SVG Version: 6.00 Build 0)  -->
<svg version="1.1" id="Capa_1" xmlns="http://www.w3.org/2000/svg" xmlns:xlink="http://www.w3.org/1999/xlink" x="0px" y="0px"
	 viewBox="0 0 24 24" style="enable-background:new 0 0 24 24;" xml:space="preserve">
<style type="text/css">
	.st0{fill:none;}
</style>
<path  d="M19,20.8H5c-0.4,0-0.8-0.3-0.8-0.8V9.6c-0.6-0.3-1-0.9-1-1.6V5C3.2,4,4,3.2,5,3.2h14c1,0,1.8,0.8,1.8,1.8v3
	c0,0.7-0.4,1.3-1,1.6V20C19.8,20.4,19.4,20.8,19,20.8z M5.8,19.2h12.5V9.8H5.8V19.2z M5,8.2h14c0.1,0,0.2-0.1,0.2-0.2V5
	c0-0.1-0.1-0.2-0.2-0.2H5C4.9,4.8,4.8,4.9,4.8,5v3C4.8,8.1,4.9,8.2,5,8.2z M16,17.2h-4c-0.4,0-0.8-0.3-0.8-0.8s0.3-0.8,0.8-0.8h4
	c0.4,0,0.8,0.3,0.8,0.8S16.4,17.2,16,17.2z"/>
</svg>
