<?xml version="1.0" encoding="utf-8"?>
<!-- Generator: Adobe Illustrator 27.5.0, SVG Export Plug-In . SVG Version: 6.00 Build 0)  -->
<svg version="1.1" id="Capa_1" xmlns="http://www.w3.org/2000/svg" xmlns:xlink="http://www.w3.org/1999/xlink" x="0px" y="0px"
	 viewBox="0 0 24 24" style="enable-background:new 0 0 24 24;" xml:space="preserve">
<style type="text/css">
	.st0{fill:none;}
</style>
<path  d="M12,21.8c-5.4,0-9.8-4.4-9.8-9.8S6.6,2.2,12,2.2s9.8,4.4,9.8,9.8S17.4,21.8,12,21.8z M12,3.8
	c-4.5,0-8.2,3.7-8.2,8.2s3.7,8.2,8.2,8.2s8.2-3.7,8.2-8.2S16.5,3.8,12,3.8z M15,15.8c-0.2,0-0.4-0.1-0.5-0.2l-3-3
	c-0.1-0.1-0.2-0.3-0.2-0.5V7c0-0.4,0.3-0.8,0.8-0.8s0.8,0.3,0.8,0.8v4.7l2.8,2.8c0.3,0.3,0.3,0.8,0,1.1C15.4,15.7,15.2,15.8,15,15.8
	z"/>
</svg>
