<?xml version="1.0" encoding="utf-8"?>
<!-- Generator: Adobe Illustrator 27.5.0, SVG Export Plug-In . SVG Version: 6.00 Build 0)  -->
<svg version="1.1" id="Capa_1" xmlns="http://www.w3.org/2000/svg" xmlns:xlink="http://www.w3.org/1999/xlink" x="0px" y="0px"
	 viewBox="0 0 24 24" style="enable-background:new 0 0 24 24;" xml:space="preserve">
<style type="text/css">
	.st0{fill:none;}
</style>
<path  d="M12,21.8c-5.4,0-9.8-4.4-9.8-9.8S6.6,2.2,12,2.2s9.8,4.4,9.8,9.8S17.4,21.8,12,21.8z M3.8,12.8
	c0.4,4.2,3.9,7.5,8.2,7.5c2,0,3.8-0.7,5.3-1.9l-5.6-5.6H3.8z M12.8,11.7l5.6,5.6c1.2-1.4,1.9-3.3,1.9-5.3c0-4.3-3.3-7.8-7.5-8.2
	V11.7z M3.8,11.2h7.5V3.8C7.3,4.1,4.1,7.3,3.8,11.2z"/>
</svg>
