<?xml version="1.0" encoding="utf-8"?>
<!-- Generator: Adobe Illustrator 27.5.0, SVG Export Plug-In . SVG Version: 6.00 Build 0)  -->
<svg version="1.1" id="Capa_1" xmlns="http://www.w3.org/2000/svg" xmlns:xlink="http://www.w3.org/1999/xlink" x="0px" y="0px"
	 viewBox="0 0 24 24" style="enable-background:new 0 0 24 24;" xml:space="preserve">
<style type="text/css">
	.st0{fill:none;}
</style>
<path  d="M0.2,21v-2c0-2.6,2.1-4.8,4.8-4.8h0.5c0.4,0,0.8,0.3,0.8,0.8s-0.3,0.8-0.8,0.8H5c-1.8,0-3.2,1.5-3.2,3.2v2
	c0,0.4-0.3,0.8-0.8,0.8S0.2,21.4,0.2,21z M6.2,21v-2c0-2.6,2.1-4.8,4.8-4.8h8c2.6,0,4.8,2.1,4.8,4.8v2c0,0.4-0.3,0.8-0.8,0.8
	s-0.8-0.3-0.8-0.8v-2c0-1.8-1.5-3.2-3.2-3.2h-8c-1.8,0-3.2,1.5-3.2,3.2v2c0,0.4-0.3,0.8-0.8,0.8S6.2,21.4,6.2,21z M4.2,7
	c0-2.6,2.1-4.8,4.8-4.8c0.4,0,0.8,0.3,0.8,0.8S9.4,3.8,9,3.8C7.2,3.8,5.8,5.2,5.8,7s1.5,3.2,3.2,3.2c0.4,0,0.8,0.3,0.8,0.8
	S9.4,11.8,9,11.8C6.4,11.8,4.2,9.6,4.2,7z M10.2,7c0-2.6,2.1-4.8,4.8-4.8s4.8,2.1,4.8,4.8s-2.1,4.8-4.8,4.8S10.2,9.6,10.2,7z
	 M11.8,7c0,1.8,1.5,3.2,3.2,3.2s3.2-1.5,3.2-3.2S16.8,3.8,15,3.8S11.8,5.2,11.8,7z"/>
</svg>
