<?xml version="1.0" encoding="utf-8"?>
<!-- Generator: Adobe Illustrator 27.5.0, SVG Export Plug-In . SVG Version: 6.00 Build 0)  -->
<svg version="1.1" id="Capa_1" xmlns="http://www.w3.org/2000/svg" xmlns:xlink="http://www.w3.org/1999/xlink" x="0px" y="0px"
	 viewBox="0 0 24 24" style="enable-background:new 0 0 24 24;" xml:space="preserve">
<style type="text/css">
	.st0{fill:none;}
</style>
<path  d="M3,17.8c-0.2,0-0.4-0.1-0.5-0.2c-0.3-0.3-0.3-0.8,0-1.1l6-6c0.3-0.3,0.8-0.3,1.1,0l3.5,3.5l6.2-6.2H15
	c-0.4,0-0.8-0.3-0.8-0.8s0.3-0.8,0.8-0.8h6c0.1,0,0.2,0,0.3,0.1c0.1,0,0.2,0.1,0.2,0.2s0.1,0.2,0.2,0.2c0,0.1,0.1,0.2,0.1,0.3v6
	c0,0.4-0.3,0.8-0.8,0.8s-0.8-0.3-0.8-0.8V8.8l-6.7,6.7c-0.3,0.3-0.8,0.3-1.1,0L9,12.1l-5.5,5.5C3.4,17.7,3.2,17.8,3,17.8z"/>
</svg>
