<?xml version="1.0" encoding="utf-8"?>
<!-- Generator: Adobe Illustrator 27.5.0, SVG Export Plug-In . SVG Version: 6.00 Build 0)  -->
<svg version="1.1" id="Capa_1" xmlns="http://www.w3.org/2000/svg" xmlns:xlink="http://www.w3.org/1999/xlink" x="0px" y="0px"
	 viewBox="0 0 24 24" style="enable-background:new 0 0 24 24;" xml:space="preserve">
<style type="text/css">
	.st0{fill:none;}
</style>
<path  d="M12,21.8H5c-1.5,0-2.8-1.2-2.8-2.8v-7c0-1.5,1.2-2.8,2.8-2.8h7c1.5,0,2.8,1.2,2.8,2.8v7
	C14.8,20.5,13.5,21.8,12,21.8z M5,10.8c-0.7,0-1.2,0.6-1.2,1.2v7c0,0.7,0.6,1.2,1.2,1.2h7c0.7,0,1.2-0.6,1.2-1.2v-7
	c0-0.7-0.6-1.2-1.2-1.2H5z M19,14.8h-1.5c-0.4,0-0.8-0.3-0.8-0.8s0.3-0.8,0.8-0.8H19c0.7,0,1.2-0.6,1.2-1.2V5c0-0.7-0.6-1.2-1.2-1.2
	h-7c-0.7,0-1.2,0.6-1.2,1.2v1.5c0,0.4-0.3,0.8-0.8,0.8S9.2,6.9,9.2,6.5V5c0-1.5,1.2-2.8,2.8-2.8h7c1.5,0,2.8,1.2,2.8,2.8v7
	C21.8,13.5,20.5,14.8,19,14.8z"/>
</svg>
