<?xml version="1.0" encoding="utf-8"?>
<!-- Generator: Adobe Illustrator 27.5.0, SVG Export Plug-In . SVG Version: 6.00 Build 0)  -->
<svg version="1.1" id="Capa_1" xmlns="http://www.w3.org/2000/svg" xmlns:xlink="http://www.w3.org/1999/xlink" x="0px" y="0px"
	 viewBox="0 0 24 24" style="enable-background:new 0 0 24 24;" xml:space="preserve">
<style type="text/css">
	.st0{fill:none;}
</style>
<path  d="M20,17.8H4c-1,0-1.8-0.8-1.8-1.8V8C2.2,7,3,6.2,4,6.2h16c1,0,1.8,0.8,1.8,1.8v8C21.8,17,21,17.8,20,17.8z
	 M4,7.8C3.9,7.8,3.8,7.9,3.8,8v8c0,0.1,0.1,0.2,0.2,0.2h16c0.1,0,0.2-0.1,0.2-0.2V8c0-0.1-0.1-0.2-0.2-0.2H4z M18,15.2
	c-0.4,0-0.8-0.3-0.8-0.8v-5c0-0.4,0.3-0.8,0.8-0.8s0.8,0.3,0.8,0.8v5C18.8,14.9,18.4,15.2,18,15.2z M12,15.2c-1.8,0-3.2-1.5-3.2-3.2
	s1.5-3.2,3.2-3.2s3.2,1.5,3.2,3.2S13.8,15.2,12,15.2z M12,10.2c-1,0-1.8,0.8-1.8,1.8s0.8,1.8,1.8,1.8s1.8-0.8,1.8-1.8
	S13,10.2,12,10.2z M6,15.2c-0.4,0-0.8-0.3-0.8-0.8v-5c0-0.4,0.3-0.8,0.8-0.8s0.8,0.3,0.8,0.8v5C6.8,14.9,6.4,15.2,6,15.2z"/>
</svg>
