<?xml version="1.0" encoding="utf-8"?>
<!-- Generator: Adobe Illustrator 27.5.0, SVG Export Plug-In . SVG Version: 6.00 Build 0)  -->
<svg version="1.1" id="Capa_1" xmlns="http://www.w3.org/2000/svg" xmlns:xlink="http://www.w3.org/1999/xlink" x="0px" y="0px"
	 viewBox="0 0 24 24" style="enable-background:new 0 0 24 24;" xml:space="preserve">
<style type="text/css">
	.st0{fill:none;}
</style>
<path  d="M9.7,15.8h4.6v-1.5H9.7V15.8z M14.3,15.8c1.6,0,3,1.3,3,3h1.5c0-2.5-2-4.5-4.5-4.5V15.8z M9.7,14.2
	c-2.5,0-4.5,2-4.5,4.5h1.5c0-1.6,1.3-3,3-3V14.2z M14.2,9c0,1.2-1,2.2-2.2,2.2v1.5c2.1,0,3.8-1.7,3.8-3.8H14.2z M12,11.2
	c-1.2,0-2.2-1-2.2-2.2H8.2c0,2.1,1.7,3.8,3.8,3.8V11.2z M9.8,9c0-1.2,1-2.2,2.2-2.2V5.2C9.9,5.2,8.2,6.9,8.2,9H9.8z M12,6.8
	c1.2,0,2.2,1,2.2,2.2h1.5c0-2.1-1.7-3.8-3.8-3.8V6.8z M20.2,12c0,4.6-3.7,8.2-8.2,8.2v1.5c5.4,0,9.8-4.4,9.8-9.8H20.2z M12,20.2
	c-4.6,0-8.2-3.7-8.2-8.2H2.2c0,5.4,4.4,9.8,9.8,9.8V20.2z M3.8,12c0-4.6,3.7-8.2,8.2-8.2V2.2c-5.4,0-9.8,4.4-9.8,9.8H3.8z M12,3.8
	c4.6,0,8.2,3.7,8.2,8.2h1.5c0-5.4-4.4-9.8-9.8-9.8V3.8z"/>
</svg>
