<?xml version="1.0" encoding="utf-8"?>
<!-- Generator: Adobe Illustrator 27.5.0, SVG Export Plug-In . SVG Version: 6.00 Build 0)  -->
<svg version="1.1" id="Capa_1" xmlns="http://www.w3.org/2000/svg" xmlns:xlink="http://www.w3.org/1999/xlink" x="0px" y="0px"
	 viewBox="0 0 24 24" style="enable-background:new 0 0 24 24;" xml:space="preserve">
<style type="text/css">
	.st0{fill:none;}
</style>
<path  d="M17.9,21.9h-7.3c-1.6,0-2.8-1.3-2.8-2.8V9.4c0-1.6,1.3-2.8,2.8-2.8h7.3c1.6,0,2.8,1.3,2.8,2.8v9.7
	C20.7,20.7,19.5,21.9,17.9,21.9z M11.4,20.4H17v-2.6c0-0.6-0.5-1-1-1h-3.5c-0.6,0-1,0.5-1,1V20.4z M12.5,15.3H16
	c1.4,0,2.5,1.1,2.5,2.5v2.5c0.4-0.2,0.7-0.7,0.7-1.2V9.4c0-0.7-0.6-1.3-1.3-1.3h-7.3c-0.7,0-1.3,0.6-1.3,1.3v9.7
	c0,0.5,0.3,0.9,0.7,1.2v-2.5C9.9,16.4,11.1,15.3,12.5,15.3z M6,17c-1.5,0-2.8-1.2-2.8-2.8V4.8c0-1.5,1.2-2.8,2.8-2.8h7
	c1.5,0,2.8,1.2,2.8,2.8c0,0.4-0.3,0.8-0.8,0.8s-0.8-0.3-0.8-0.8c0-0.7-0.6-1.2-1.2-1.2H6c-0.7,0-1.2,0.6-1.2,1.2v9.4
	c0,0.7,0.6,1.2,1.2,1.2c0.4,0,0.8,0.3,0.8,0.8S6.4,17,6,17z M14.2,15c-1.4,0-2.5-1.1-2.5-2.5s1.1-2.5,2.5-2.5s2.5,1.1,2.5,2.5
	S15.6,15,14.2,15z M14.2,11.5c-0.6,0-1,0.5-1,1s0.5,1,1,1s1-0.5,1-1S14.8,11.5,14.2,11.5z"/>
</svg>
