<?xml version="1.0" encoding="utf-8"?>
<!-- Generator: Adobe Illustrator 27.5.0, SVG Export Plug-In . SVG Version: 6.00 Build 0)  -->
<svg version="1.1" id="Capa_1" xmlns="http://www.w3.org/2000/svg" xmlns:xlink="http://www.w3.org/1999/xlink" x="0px" y="0px"
	 viewBox="0 0 24 24" style="enable-background:new 0 0 24 24;" xml:space="preserve">
<style type="text/css">
	.st0{fill:none;}
</style>
<g>
	<path  d="M5.8,21.9c0.5,0,1-0.2,1.4-0.5l2-1.5l2.4,1.8c0.1,0.1,0.3,0.1,0.4,0.1s0.3,0,0.4-0.1l2.4-1.8l2,1.5
		c0.4,0.3,0.9,0.5,1.4,0.5c1.3,0,2.3-1,2.3-2.3v-14c0-2-1.6-3.5-3.5-3.5H7c-2,0-3.5,1.6-3.5,3.5v14C3.5,20.9,4.5,21.9,5.8,21.9z
		 M4.9,5.6c0-1.2,1-2.1,2.1-2.1H17c1.2,0,2.1,1,2.1,2.1v14c0,0.5-0.4,0.9-0.9,0.9c-0.2,0-0.4-0.1-0.5-0.2l-2.4-1.8
		c-0.1-0.1-0.3-0.1-0.4-0.1s-0.3,0-0.4,0.1L12,20.3l-2.4-1.8c-0.3-0.2-0.6-0.2-0.9,0l-2.4,1.8c-0.2,0.1-0.3,0.2-0.5,0.2
		c-0.5,0-0.9-0.4-0.9-0.9V5.6z"/>
	<path  d="M8.5,7.7h7.1c0.4,0,0.7-0.3,0.7-0.7c0-0.4-0.3-0.7-0.7-0.7H8.5C8.1,6.3,7.7,6.6,7.7,7C7.7,7.4,8.1,7.7,8.5,7.7
		z"/>
	<path  d="M8.5,12h7.1c0.4,0,0.7-0.3,0.7-0.7s-0.3-0.7-0.7-0.7H8.5c-0.4,0-0.7,0.3-0.7,0.7S8.1,12,8.5,12z"/>
	<path  d="M8.5,16.3h7.1c0.4,0,0.7-0.3,0.7-0.7c0-0.4-0.3-0.7-0.7-0.7H8.5c-0.4,0-0.7,0.3-0.7,0.7
		C7.7,15.9,8.1,16.3,8.5,16.3z"/>
</g>
</svg>
