<?xml version="1.0" encoding="utf-8"?>
<!-- Generator: Adobe Illustrator 27.5.0, SVG Export Plug-In . SVG Version: 6.00 Build 0)  -->
<svg version="1.1" id="Capa_1" xmlns="http://www.w3.org/2000/svg" xmlns:xlink="http://www.w3.org/1999/xlink" x="0px" y="0px"
	 viewBox="0 0 24 24" style="enable-background:new 0 0 24 24;" xml:space="preserve">
<style type="text/css">
	.st0{fill:none;}
</style>
<path  d="M19,20.8c-0.4,0-0.8-0.3-0.8-0.8v-5.4c-1.2-0.3-2-1.4-2-2.6c0-1.3,0.8-2.3,2-2.6V4c0-0.4,0.3-0.8,0.8-0.8
	s0.8,0.3,0.8,0.8v5.4c1.2,0.3,2,1.4,2,2.6c0,1.3-0.8,2.3-2,2.6V20C19.8,20.4,19.4,20.8,19,20.8z M19,13.2c0.7,0,1.2-0.6,1.2-1.2
	s-0.6-1.2-1.2-1.2s-1.2,0.6-1.2,1.2S18.3,13.2,19,13.2z M12,20.8c-1.5,0-2.8-1.2-2.8-2.8c0-1.3,0.8-2.3,2-2.6V4
	c0-0.4,0.3-0.8,0.8-0.8s0.8,0.3,0.8,0.8v11.4c1.2,0.3,2,1.4,2,2.6C14.8,19.5,13.5,20.8,12,20.8z M12,16.8c-0.7,0-1.2,0.6-1.2,1.2
	s0.6,1.2,1.2,1.2s1.2-0.6,1.2-1.2S12.7,16.8,12,16.8z M5,20.8c-0.4,0-0.8-0.3-0.8-0.8V8.6c-1.2-0.3-2-1.4-2-2.6
	c0-1.5,1.2-2.8,2.8-2.8S7.8,4.5,7.8,6c0,1.3-0.8,2.3-2,2.6V20C5.8,20.4,5.4,20.8,5,20.8z M5,4.8C4.3,4.8,3.8,5.3,3.8,6
	S4.3,7.2,5,7.2S6.2,6.7,6.2,6S5.7,4.8,5,4.8z"/>
</svg>
