<?xml version="1.0" encoding="utf-8"?>
<!-- Generator: Adobe Illustrator 27.5.0, SVG Export Plug-In . SVG Version: 6.00 Build 0)  -->
<svg version="1.1" id="Capa_1" xmlns="http://www.w3.org/2000/svg" xmlns:xlink="http://www.w3.org/1999/xlink" x="0px" y="0px"
	 viewBox="0 0 24 24" style="enable-background:new 0 0 24 24;" xml:space="preserve">
<style type="text/css">
	.st0{fill:none;}
</style>
<g>
	<path  d="M17.3,4.2h-1V4.1c0-0.9-0.7-1.6-1.6-1.6H9.4c-0.9,0-1.6,0.7-1.6,1.6v0.1h-1c-1.4,0-2.5,1.1-2.5,2.5V19
		c0,1.4,1.1,2.5,2.5,2.5h10.5c1.4,0,2.5-1.1,2.5-2.5V6.7C19.8,5.3,18.7,4.2,17.3,4.2z M9.2,4.1C9.2,4,9.3,4,9.4,4h5.3
		c0.1,0,0.1,0.1,0.1,0.1v1.8c0,0.1-0.1,0.1-0.1,0.1H9.4C9.3,6,9.2,5.9,9.2,5.8V4.1z M18.3,19c0,0.6-0.5,1-1,1H6.7c-0.6,0-1-0.5-1-1
		V6.7c0-0.6,0.5-1,1-1h1v0.1c0,0.9,0.7,1.6,1.6,1.6h5.3c0.9,0,1.6-0.7,1.6-1.6V5.7h1c0.6,0,1,0.5,1,1V19z"/>
	<g>
		<path  d="M12,17.1c-0.4,0-0.8-0.3-0.8-0.8v-6.2c0-0.4,0.3-0.8,0.8-0.8s0.8,0.3,0.8,0.8v6.2
			C12.8,16.8,12.4,17.1,12,17.1z"/>
		<path  d="M15.1,14.1H8.9c-0.4,0-0.8-0.3-0.8-0.8s0.3-0.8,0.8-0.8h6.2c0.4,0,0.8,0.3,0.8,0.8S15.5,14.1,15.1,14.1z"/>
	</g>
</g>
</svg>
