<?xml version="1.0" encoding="utf-8"?>
<!-- Generator: Adobe Illustrator 27.5.0, SVG Export Plug-In . SVG Version: 6.00 Build 0)  -->
<svg version="1.1" id="Capa_1" xmlns="http://www.w3.org/2000/svg" xmlns:xlink="http://www.w3.org/1999/xlink" x="0px" y="0px"
	 viewBox="0 0 24 24" style="enable-background:new 0 0 24 24;" xml:space="preserve">
<style type="text/css">
	.st0{fill:none;}
</style>
<path  d="M13,21.8h-2c-1,0-1.8-0.8-1.8-1.8v-0.6c0-0.1-0.1-0.2-0.2-0.3c-0.1,0-0.3,0-0.3,0l-0.4,0.4
	c-0.7,0.7-1.8,0.7-2.5,0l-1.4-1.4c-0.7-0.7-0.7-1.8,0-2.5l0.4-0.4c0.1-0.1,0.1-0.2,0-0.3c-0.1-0.1-0.2-0.2-0.3-0.2H4
	c-1,0-1.8-0.8-1.8-1.8v-2C2.2,10,3,9.2,4,9.2h0.6c0.1,0,0.2-0.1,0.3-0.2c0-0.1,0-0.3,0-0.3L4.4,8.3c-0.7-0.7-0.7-1.8,0-2.5l1.4-1.4
	c0.7-0.7,1.8-0.7,2.5,0l0.4,0.4c0.1,0.1,0.2,0.1,0.3,0c0.1-0.1,0.2-0.2,0.2-0.3V4c0-1,0.8-1.8,1.8-1.8h2c1,0,1.8,0.8,1.8,1.8v0.6
	c0,0.1,0.1,0.2,0.2,0.3c0.1,0,0.3,0,0.3,0l0.4-0.4c0.7-0.7,1.8-0.7,2.5,0l1.4,1.4c0.7,0.7,0.7,1.8,0,2.5l-0.4,0.4
	c-0.1,0.1-0.1,0.2,0,0.3c0.1,0.1,0.2,0.2,0.3,0.2H20c1,0,1.8,0.8,1.8,1.8v2c0,1-0.8,1.8-1.8,1.8h-0.6c-0.1,0-0.2,0.1-0.3,0.2
	c0,0.1,0,0.3,0,0.3l0.4,0.4c0.7,0.7,0.7,1.8,0,2.5l-1.4,1.4c-0.7,0.7-1.8,0.7-2.5,0l-0.4-0.4c-0.1-0.1-0.2-0.1-0.3,0
	c-0.1,0.1-0.2,0.2-0.2,0.3V20C14.8,21,14,21.8,13,21.8z M8.9,17.6c0.2,0,0.5,0,0.7,0.1c0.7,0.3,1.1,0.9,1.1,1.7V20
	c0,0.1,0.1,0.2,0.2,0.2h2c0.1,0,0.2-0.1,0.2-0.2v-0.6c0-0.7,0.4-1.4,1.1-1.7c0.7-0.3,1.5-0.1,2,0.4l0.4,0.4c0.1,0.1,0.3,0.1,0.4,0
	l1.4-1.4c0.1-0.1,0.1-0.3,0-0.4l-0.4-0.4c-0.5-0.5-0.7-1.3-0.4-2c0.3-0.7,0.9-1.1,1.7-1.1H20c0.1,0,0.2-0.1,0.2-0.2v-2
	c0-0.1-0.1-0.2-0.2-0.2h-0.6c-0.7,0-1.4-0.4-1.7-1.1c-0.3-0.7-0.1-1.5,0.4-2l0.4-0.4c0.1-0.1,0.1-0.3,0-0.4l-1.4-1.4
	c-0.1-0.1-0.3-0.1-0.4,0l-0.4,0.4c-0.5,0.5-1.3,0.7-2,0.4c-0.7-0.3-1.1-0.9-1.1-1.7V4c0-0.1-0.1-0.2-0.2-0.2h-2
	c-0.1,0-0.2,0.1-0.2,0.2v0.6c0,0.7-0.4,1.4-1.1,1.7c-0.7,0.3-1.5,0.1-2-0.4L7.2,5.5C7.1,5.4,7,5.4,6.9,5.5L5.5,6.9
	C5.4,7,5.4,7.1,5.5,7.2l0.4,0.4c0.5,0.5,0.7,1.3,0.4,2c-0.3,0.7-0.9,1.1-1.7,1.1H4c-0.1,0-0.2,0.1-0.2,0.2v2c0,0.1,0.1,0.2,0.2,0.2
	h0.6c0.7,0,1.4,0.4,1.7,1.1c0.3,0.7,0.1,1.5-0.4,2l-0.4,0.4c-0.1,0.1-0.1,0.3,0,0.4l1.4,1.4c0.1,0.1,0.2,0.1,0.4,0l0.4-0.4
	C8,17.8,8.4,17.6,8.9,17.6z"/>
<path  d="M12,14.8c-1.5,0-2.8-1.2-2.8-2.8s1.2-2.8,2.8-2.8s2.8,1.2,2.8,2.8S13.5,14.8,12,14.8z M12,10.8
	c-0.7,0-1.2,0.6-1.2,1.2s0.6,1.2,1.2,1.2s1.2-0.6,1.2-1.2S12.7,10.8,12,10.8z"/>
</svg>
