<?xml version="1.0" encoding="utf-8"?>
<!-- Generator: Adobe Illustrator 27.5.0, SVG Export Plug-In . SVG Version: 6.00 Build 0)  -->
<svg version="1.1" id="Capa_1" xmlns="http://www.w3.org/2000/svg" xmlns:xlink="http://www.w3.org/1999/xlink" x="0px" y="0px"
	 viewBox="0 0 24 24" style="enable-background:new 0 0 24 24;" xml:space="preserve">
<style type="text/css">
	.st0{fill:none;}
</style>
<path  d="M20,19.8H4c-0.4,0-0.8-0.3-0.8-0.8s0.3-0.8,0.8-0.8h16c0.4,0,0.8,0.3,0.8,0.8S20.4,19.8,20,19.8z M20,16.8H4
	c-0.4,0-0.8-0.3-0.8-0.8V5c0-0.3,0.2-0.6,0.5-0.7C4,4.2,4.3,4.3,4.5,4.5L8,7.9l3.5-3.5c0.3-0.3,0.8-0.3,1.1,0L16,7.9l3.5-3.5
	c0.2-0.2,0.5-0.3,0.8-0.2c0.3,0.1,0.5,0.4,0.5,0.7v11C20.8,16.4,20.4,16.8,20,16.8z M4.8,15.2h14.5V6.8l-2.7,2.7
	c-0.3,0.3-0.8,0.3-1.1,0L12,6.1L8.5,9.5c-0.3,0.3-0.8,0.3-1.1,0L4.8,6.8V15.2z"/>
</svg>
