<?xml version="1.0" encoding="utf-8"?>
<!-- Generator: Adobe Illustrator 28.3.0, SVG Export Plug-In . SVG Version: 6.00 Build 0)  -->
<svg version="1.1" id="Capa_1" xmlns="http://www.w3.org/2000/svg" xmlns:xlink="http://www.w3.org/1999/xlink" x="0px" y="0px"
	 viewBox="0 0 24 24" style="enable-background:new 0 0 24 24;" xml:space="preserve">
<style type="text/css">
	.st0{fill:none;}
</style>
<g>
	<path d="M20,11.8c-0.4,0-0.8,0.3-0.8,0.8v7.2H4.7V5.3H12c0.4,0,0.8-0.3,0.8-0.8c0-0.4-0.3-0.8-0.8-0.8H4
		c-0.4,0-0.8,0.3-0.8,0.8v16c0,0.4,0.3,0.8,0.8,0.8h16c0.2,0,0.4-0.1,0.5-0.2c0.1-0.1,0.2-0.3,0.2-0.5v-8
		C20.7,12.1,20.4,11.8,20,11.8z"/>
	<path d="M17.5,3c-0.3-0.3-0.8-0.3-1.1,0l-9,9c-0.1,0.1-0.2,0.3-0.2,0.5v4c0,0.4,0.3,0.8,0.8,0.8h4
		c0.2,0,0.4-0.1,0.5-0.2l9-9c0.3-0.3,0.3-0.8,0-1.1L17.5,3z M19.9,7.5L18,9.5L15,6.5L17,4.6L19.9,7.5z M11.7,15.8H8.7v-2.9L14,7.6
		l2.9,2.9L11.7,15.8z"/>
</g>
</svg>
