<?xml version="1.0" encoding="utf-8"?>
<!-- Generator: Adobe Illustrator 27.5.0, SVG Export Plug-In . SVG Version: 6.00 Build 0)  -->
<svg version="1.1" id="Capa_1" xmlns="http://www.w3.org/2000/svg" xmlns:xlink="http://www.w3.org/1999/xlink" x="0px" y="0px"
	 viewBox="0 0 24 24" style="enable-background:new 0 0 24 24;" xml:space="preserve">
<style type="text/css">
	.st0{fill:none;}
</style>
<path  d="M8.3,20.8c-1.6,0-3.1-0.6-4.2-1.7c-1.1-1.1-1.8-2.5-1.8-4s0.6-3,1.8-4l8-7.6c0.8-0.8,1.9-1.2,3-1.2
	s2.2,0.4,3,1.2c0.8,0.8,1.3,1.8,1.3,2.9c0,1.1-0.5,2.1-1.3,2.9l-8,7.6c-0.9,0.9-2.6,0.9-3.5,0C6,16.3,5.7,15.7,5.7,15
	c0-0.6,0.3-1.3,0.7-1.7l7.4-7c0.3-0.3,0.8-0.3,1.1,0s0.3,0.8,0,1.1l-7.4,7c-0.2,0.2-0.3,0.4-0.3,0.6s0.1,0.5,0.3,0.6
	C7.9,16,8.6,16,9,15.7l8-7.6c0.5-0.5,0.8-1.1,0.8-1.8S17.5,5,17,4.5c-1-1-2.9-1-3.9,0l-8,7.6c-0.8,0.8-1.3,1.8-1.3,3
	c0,1.1,0.5,2.2,1.3,3c0.8,0.8,2,1.2,3.2,1.2s2.4-0.5,3.2-1.2l8-7.6c0.3-0.3,0.8-0.3,1.1,0s0.3,0.8,0,1.1l-8,7.6
	C11.3,20.2,9.8,20.8,8.3,20.8z"/>
</svg>
