<?xml version="1.0" encoding="utf-8"?>
<!-- Generator: Adobe Illustrator 27.5.0, SVG Export Plug-In . SVG Version: 6.00 Build 0)  -->
<svg version="1.1" id="Capa_1" xmlns="http://www.w3.org/2000/svg" xmlns:xlink="http://www.w3.org/1999/xlink" x="0px" y="0px"
	 viewBox="0 0 24 24" style="enable-background:new 0 0 24 24;" xml:space="preserve">
<style type="text/css">
	.st0{fill:none;}
</style>
<path  d="M12.8,8c0-0.4-0.3-0.8-0.8-0.8S11.2,7.6,11.2,8H12.8z M11.2,16c0,0.4,0.3,0.8,0.8,0.8s0.8-0.3,0.8-0.8H11.2z
	 M8,11.2c-0.4,0-0.8,0.3-0.8,0.8s0.3,0.8,0.8,0.8V11.2z M16,12.8c0.4,0,0.8-0.3,0.8-0.8s-0.3-0.8-0.8-0.8V12.8z M11.2,8v8h1.5V8
	H11.2z M8,12.8h8v-1.5H8V12.8z M20.2,12c0,4.6-3.7,8.2-8.2,8.2v1.5c5.4,0,9.8-4.4,9.8-9.8H20.2z M12,20.2c-4.6,0-8.2-3.7-8.2-8.2
	H2.2c0,5.4,4.4,9.8,9.8,9.8V20.2z M3.8,12c0-4.6,3.7-8.2,8.2-8.2V2.2c-5.4,0-9.8,4.4-9.8,9.8H3.8z M12,3.8c4.6,0,8.2,3.7,8.2,8.2
	h1.5c0-5.4-4.4-9.8-9.8-9.8V3.8z"/>
</svg>
