<?xml version="1.0" encoding="utf-8"?>
<!-- Generator: Adobe Illustrator 27.5.0, SVG Export Plug-In . SVG Version: 6.00 Build 0)  -->
<svg version="1.1" id="Capa_1" xmlns="http://www.w3.org/2000/svg" xmlns:xlink="http://www.w3.org/1999/xlink" x="0px" y="0px"
	 viewBox="0 0 24 24" style="enable-background:new 0 0 24 24;" xml:space="preserve">
<style type="text/css">
	.st0{fill:none;}
</style>
<path class="st0" d="M12,2.2c-5.4,0-9.8,4.4-9.8,9.8c0,5.4,4.4,9.8,9.8,9.8c5.4,0,9.8-4.4,9.8-9.8C21.8,6.6,17.4,2.2,12,2.2z
	 M12.8,17c0,0.4-0.3,0.8-0.8,0.8s-0.8-0.3-0.8-0.8v0c0-0.4,0.3-0.8,0.8-0.8S12.8,16.6,12.8,17L12.8,17z M12.8,14
	c0,0.4-0.3,0.8-0.8,0.8s-0.8-0.3-0.8-0.8V7c0-0.4,0.3-0.8,0.8-0.8s0.8,0.3,0.8,0.8V14z"/>
</svg>
