<?xml version="1.0" encoding="utf-8"?>
<!-- Generator: Adobe Illustrator 27.5.0, SVG Export Plug-In . SVG Version: 6.00 Build 0)  -->
<svg version="1.1" id="Capa_1" xmlns="http://www.w3.org/2000/svg" xmlns:xlink="http://www.w3.org/1999/xlink" x="0px" y="0px"
	 viewBox="0 0 24 24" style="enable-background:new 0 0 24 24;" xml:space="preserve">
<style type="text/css">
	.st0{fill:none;}
</style>
<g>
	<path  d="M5,5.2C4.6,5.2,4.2,5.6,4.2,6v12c0,0.4,0.3,0.8,0.8,0.8s0.8-0.3,0.8-0.8V6C5.8,5.6,5.4,5.2,5,5.2z"/>
	<path  d="M19.4,5.3c-0.2-0.1-0.5-0.1-0.8,0l-10,6c-0.2,0.1-0.4,0.4-0.4,0.6s0.1,0.5,0.4,0.6l10,6c0.2,0.1,0.5,0.1,0.8,0
		c0.2-0.1,0.4-0.4,0.4-0.7V6C19.8,5.7,19.6,5.5,19.4,5.3z M18.2,16.7L10.5,12l7.8-4.7V16.7z"/>
</g>
</svg>
