<?xml version="1.0" encoding="utf-8"?>
<!-- Generator: Adobe Illustrator 27.5.0, SVG Export Plug-In . SVG Version: 6.00 Build 0)  -->
<svg version="1.1" id="Capa_1" xmlns="http://www.w3.org/2000/svg" xmlns:xlink="http://www.w3.org/1999/xlink" x="0px" y="0px"
	 viewBox="0 0 24 24" style="enable-background:new 0 0 24 24;" xml:space="preserve">
<style type="text/css">
	.st0{fill:none;}
</style>
<path  d="M5,3V2.2C4.6,2.2,4.2,2.6,4.2,3H5z M19,21v0.8c0.4,0,0.8-0.3,0.8-0.8H19z M5,21H4.2c0,0.4,0.3,0.8,0.8,0.8V21z
	 M14,3l0.5-0.5c-0.1-0.1-0.3-0.2-0.5-0.2V3z M19,8h0.8c0-0.2-0.1-0.4-0.2-0.5L19,8z M12.8,11c0-0.4-0.3-0.8-0.8-0.8
	s-0.8,0.3-0.8,0.8H12.8z M11.2,17c0,0.4,0.3,0.8,0.8,0.8s0.8-0.3,0.8-0.8H11.2z M9,13.2c-0.4,0-0.8,0.3-0.8,0.8s0.3,0.8,0.8,0.8
	V13.2z M15,14.8c0.4,0,0.8-0.3,0.8-0.8s-0.3-0.8-0.8-0.8V14.8z M19,20.2H5v1.5h14V20.2z M5.8,21V3H4.2v18H5.8z M5,3.8h9V2.2H5V3.8z
	 M18.2,8v13h1.5V8H18.2z M13.5,3.5l5,5l1.1-1.1l-5-5L13.5,3.5z M12.2,3v4h1.5V3H12.2z M15,9.8h4V8.2h-4V9.8z M12.2,7
	c0,1.5,1.2,2.8,2.8,2.8V8.2c-0.7,0-1.2-0.6-1.2-1.2H12.2z M11.2,11v6h1.5v-6H11.2z M9,14.8h6v-1.5H9V14.8z"/>
</svg>
