<?xml version="1.0" encoding="utf-8"?>
<!-- Generator: Adobe Illustrator 27.5.0, SVG Export Plug-In . SVG Version: 6.00 Build 0)  -->
<svg version="1.1" id="Capa_1" xmlns="http://www.w3.org/2000/svg" xmlns:xlink="http://www.w3.org/1999/xlink" x="0px" y="0px"
	 viewBox="0 0 24 24" style="enable-background:new 0 0 24 24;" xml:space="preserve">
<style type="text/css">
	.st0{fill:none;}
</style>
<path  d="M16.1,9l4.5-4.5c0.2-0.2,0.3-0.5,0.2-0.8c-0.1-0.3-0.4-0.5-0.7-0.5H4H3.2V4v10v7c0,0.4,0.3,0.8,0.8,0.8
	s0.8-0.3,0.8-0.8v-6.2H20c0.3,0,0.6-0.2,0.7-0.5c0.1-0.3,0.1-0.6-0.2-0.8L16.1,9z M4.8,13.2V4.8h13.4l-3.7,3.7
	c-0.3,0.3-0.3,0.8,0,1.1l3.7,3.7H4.8z"/>
</svg>
