<?xml version="1.0" encoding="utf-8"?>
<!-- Generator: Adobe Illustrator 27.5.0, SVG Export Plug-In . SVG Version: 6.00 Build 0)  -->
<svg version="1.1" id="Capa_1" xmlns="http://www.w3.org/2000/svg" xmlns:xlink="http://www.w3.org/1999/xlink" x="0px" y="0px"
	 viewBox="0 0 24 24" style="enable-background:new 0 0 24 24;" xml:space="preserve">
<style type="text/css">
	.st0{fill:none;}
</style>
<path  d="M20.3,3.3c-0.3-0.1-0.6-0.1-0.8,0.2l0,0c0,0,0,0,0,0c0,0,0,0,0,0c0,0,0,0,0,0c0,0,0,0,0,0c0,0,0,0,0,0
	c0,0,0,0,0,0c0,0,0,0-0.1,0.1c-0.1,0.1-0.3,0.2-0.5,0.3C18.3,4,17.4,4.2,16,4.2c-1.3,0-2.5-0.4-3.7-0.9C11,2.8,9.7,2.2,8,2.2
	c-1.6,0-2.7,0.3-3.4,0.6C4.2,2.9,4,3.1,3.8,3.2C3.7,3.3,3.6,3.3,3.6,3.4c0,0,0,0-0.1,0.1c0,0,0,0,0,0c0,0,0,0,0,0c0,0,0,0,0,0
	c0,0,0,0,0,0c0,0,0,0,0,0c0,0,0,0,0.5,0.5L3.5,3.5C3.3,3.6,3.2,3.8,3.2,4v17c0,0.4,0.3,0.8,0.8,0.8s0.8-0.3,0.8-0.8v-4.6
	c0.1-0.1,0.2-0.1,0.4-0.2C5.7,16,6.6,15.8,8,15.8c1.3,0,2.5,0.4,3.7,0.9c1.2,0.5,2.6,1.1,4.3,1.1c1.6,0,2.7-0.3,3.4-0.6
	c0.4-0.1,0.6-0.3,0.8-0.4c0.1-0.1,0.2-0.1,0.2-0.2c0,0,0,0,0.1-0.1c0,0,0,0,0,0c0,0,0,0,0,0c0,0,0,0,0,0c0,0,0,0,0,0c0,0,0,0,0,0
	c0,0,0,0-0.5-0.5l0.5,0.5c0.1-0.1,0.2-0.3,0.2-0.5V4C20.8,3.7,20.6,3.4,20.3,3.3z M16,16.2c-1.3,0-2.5-0.4-3.7-0.9
	C11,14.8,9.7,14.2,8,14.2c-1.5,0-2.5,0.2-3.2,0.5V4.4C4.9,4.3,5,4.3,5.2,4.2C5.7,4,6.6,3.8,8,3.8c1.3,0,2.5,0.4,3.7,0.9
	C13,5.2,14.3,5.8,16,5.8c1.5,0,2.5-0.2,3.2-0.5v10.4c-0.1,0.1-0.2,0.1-0.4,0.2C18.3,16,17.4,16.2,16,16.2z"/>
</svg>
