<?xml version="1.0" encoding="utf-8"?>
<!-- Generator: Adobe Illustrator 27.5.0, SVG Export Plug-In . SVG Version: 6.00 Build 0)  -->
<svg version="1.1" id="Capa_1" xmlns="http://www.w3.org/2000/svg" xmlns:xlink="http://www.w3.org/1999/xlink" x="0px" y="0px"
	 viewBox="0 0 24 24" style="enable-background:new 0 0 24 24;" xml:space="preserve">
<style type="text/css">
	.st0{fill:none;}
</style>
<path  d="M16,20.8H8c-1.5,0-2.8-1.2-2.8-2.8V6.8H4C3.6,6.8,3.2,6.4,3.2,6S3.6,5.2,4,5.2h4.2V5c0-1.5,1.2-2.8,2.8-2.8h2
	c1.5,0,2.8,1.2,2.8,2.8v0.2H20c0.4,0,0.8,0.3,0.8,0.8S20.4,6.8,20,6.8h-1.2V18C18.8,19.5,17.5,20.8,16,20.8z M6.8,6.8V18
	c0,0.7,0.6,1.2,1.2,1.2h8c0.7,0,1.2-0.6,1.2-1.2V6.8H6.8z M9.8,5.2h4.5V5c0-0.7-0.6-1.2-1.2-1.2h-2c-0.7,0-1.2,0.6-1.2,1.2V5.2z
	 M14,16.8c-0.4,0-0.8-0.3-0.8-0.8v-6c0-0.4,0.3-0.8,0.8-0.8s0.8,0.3,0.8,0.8v6C14.8,16.4,14.4,16.8,14,16.8z M10,16.8
	c-0.4,0-0.8-0.3-0.8-0.8v-6c0-0.4,0.3-0.8,0.8-0.8s0.8,0.3,0.8,0.8v6C10.8,16.4,10.4,16.8,10,16.8z"/>
</svg>
