<?xml version="1.0" encoding="utf-8"?>
<!-- Generator: Adobe Illustrator 27.5.0, SVG Export Plug-In . SVG Version: 6.00 Build 0)  -->
<svg version="1.1" id="Capa_1" xmlns="http://www.w3.org/2000/svg" xmlns:xlink="http://www.w3.org/1999/xlink" x="0px" y="0px"
	 viewBox="0 0 24 24" style="enable-background:new 0 0 24 24;" xml:space="preserve">
<style type="text/css">
	.st0{fill:none;}
</style>
<path  d="M19.5,20.5c0.3,0.3,0.8,0.3,1.1,0s0.3-0.8,0-1.1L19.5,20.5z M16.2,10c0,3.5-2.8,6.2-6.2,6.2v1.5
	c4.3,0,7.8-3.5,7.8-7.8H16.2z M10,16.2c-3.5,0-6.2-2.8-6.2-6.2H2.2c0,4.3,3.5,7.8,7.8,7.8V16.2z M3.8,10c0-3.5,2.8-6.2,6.2-6.2V2.2
	c-4.3,0-7.8,3.5-7.8,7.8H3.8z M10,3.8c3.5,0,6.2,2.8,6.2,6.2h1.5c0-4.3-3.5-7.8-7.8-7.8V3.8z M20.5,19.5l-5-5l-1.1,1.1l5,5
	L20.5,19.5z"/>
</svg>
