<?xml version="1.0" encoding="utf-8"?>
<!-- Generator: Adobe Illustrator 27.5.0, SVG Export Plug-In . SVG Version: 6.00 Build 0)  -->
<svg version="1.1" id="Capa_1" xmlns="http://www.w3.org/2000/svg" xmlns:xlink="http://www.w3.org/1999/xlink" x="0px" y="0px"
	 viewBox="0 0 24 24" style="enable-background:new 0 0 24 24;" xml:space="preserve">
<style type="text/css">
	.st0{fill:none;}
</style>
<path  d="M16,22.2c-2.9,0-5.2-2.4-5.2-5.2s2.4-5.2,5.2-5.2s5.2,2.4,5.2,5.2S18.9,22.2,16,22.2z M16,13.2
	c-2.1,0-3.8,1.7-3.8,3.8s1.7,3.8,3.8,3.8s3.8-1.7,3.8-3.8S18.1,13.2,16,13.2z M9,21.8H6c-1.5,0-2.8-1.2-2.8-2.8V7
	c0-1.5,1.2-2.8,2.8-2.8h2.2V3c0-0.4,0.3-0.8,0.8-0.8S9.8,2.6,9.8,3v1.2h4.5V3c0-0.4,0.3-0.8,0.8-0.8s0.8,0.3,0.8,0.8v1.2H18
	c1.5,0,2.8,1.2,2.8,2.8v3c0,0.4-0.3,0.8-0.8,0.8s-0.8-0.3-0.8-0.8V7c0-0.7-0.6-1.2-1.2-1.2h-2.2V7c0,0.4-0.3,0.8-0.8,0.8
	S14.2,7.4,14.2,7V5.8H9.8V7c0,0.4-0.3,0.8-0.8,0.8S8.2,7.4,8.2,7V5.8H6C5.3,5.8,4.8,6.3,4.8,7v3.2H9c0.4,0,0.8,0.3,0.8,0.8
	S9.4,11.8,9,11.8H4.8V19c0,0.7,0.6,1.2,1.2,1.2h3c0.4,0,0.8,0.3,0.8,0.8S9.4,21.8,9,21.8z M16.9,18.7c-0.2,0-0.4-0.1-0.6-0.3l-0.9-1
	c-0.1-0.1-0.2-0.3-0.2-0.5v-1.7c0-0.4,0.3-0.8,0.8-0.8s0.8,0.3,0.8,0.8v1.4l0.7,0.8c0.3,0.3,0.2,0.8-0.1,1.1
	C17.3,18.6,17.1,18.7,16.9,18.7z"/>
</svg>
