<?xml version="1.0" encoding="utf-8"?>
<!-- Generator: Adobe Illustrator 27.5.0, SVG Export Plug-In . SVG Version: 6.00 Build 0)  -->
<svg version="1.1" id="Capa_1" xmlns="http://www.w3.org/2000/svg" xmlns:xlink="http://www.w3.org/1999/xlink" x="0px" y="0px"
	 viewBox="0 0 24 24" style="enable-background:new 0 0 24 24;" xml:space="preserve">
<style type="text/css">
	.st0{fill:none;}
</style>
<path  d="M19.2,9c0,0.4,0.3,0.8,0.8,0.8s0.8-0.3,0.8-0.8H19.2z M9,21.8c0.4,0,0.8-0.3,0.8-0.8S9.4,20.2,9,20.2V21.8z
	 M15.8,3c0-0.4-0.3-0.8-0.8-0.8S14.2,2.6,14.2,3H15.8z M14.2,7c0,0.4,0.3,0.8,0.8,0.8s0.8-0.3,0.8-0.8H14.2z M9.8,3
	c0-0.4-0.3-0.8-0.8-0.8S8.2,2.6,8.2,3H9.8z M8.2,7c0,0.4,0.3,0.8,0.8,0.8S9.8,7.4,9.8,7H8.2z M4,10.2c-0.4,0-0.8,0.3-0.8,0.8
	s0.3,0.8,0.8,0.8V10.2z M9,11.8c0.4,0,0.8-0.3,0.8-0.8S9.4,10.2,9,10.2V11.8z M12,19l-0.5-0.5l-0.2,0.2V19H12z M18,13l0.5-0.5
	c-0.3-0.3-0.8-0.3-1.1,0L18,13z M20,15l0.5,0.5c0.3-0.3,0.3-0.8,0-1.1L20,15z M14,21v0.8h0.3l0.2-0.2L14,21z M12,21h-0.8
	c0,0.4,0.3,0.8,0.8,0.8V21z M6,5.8h12V4.2H6V5.8z M4.8,19V7H3.2v12H4.8z M6,20.2c-0.7,0-1.2-0.6-1.2-1.2H3.2c0,1.5,1.2,2.8,2.8,2.8
	V20.2z M18,5.8c0.7,0,1.2,0.6,1.2,1.2h1.5c0-1.5-1.2-2.8-2.8-2.8V5.8z M6,4.2C4.5,4.2,3.2,5.5,3.2,7h1.5c0-0.7,0.6-1.2,1.2-1.2V4.2z
	 M19.2,7v2h1.5V7H19.2z M9,20.2H6v1.5h3V20.2z M14.2,3v4h1.5V3H14.2z M8.2,3v4h1.5V3H8.2z M4,11.8h5v-1.5H4V11.8z M12.5,19.5l6-6
	l-1.1-1.1l-6,6L12.5,19.5z M17.5,13.5l2,2l1.1-1.1l-2-2L17.5,13.5z M19.5,14.5l-6,6l1.1,1.1l6-6L19.5,14.5z M14,20.2h-2v1.5h2V20.2z
	 M12.8,21v-2h-1.5v2H12.8z M16,15l2,2L19,16l-2-2L16,15z"/>
</svg>
