<?xml version="1.0" encoding="utf-8"?>
<!-- Generator: Adobe Illustrator 27.5.0, SVG Export Plug-In . SVG Version: 6.00 Build 0)  -->
<svg version="1.1" id="Capa_1" xmlns="http://www.w3.org/2000/svg" xmlns:xlink="http://www.w3.org/1999/xlink" x="0px" y="0px"
	 viewBox="0 0 24 24" style="enable-background:new 0 0 24 24;" xml:space="preserve">
<style type="text/css">
	.st0{fill:none;}
</style>
<path  d="M9,21.8H6c-1.5,0-2.8-1.2-2.8-2.8V7c0-1.5,1.2-2.8,2.8-2.8h2.2V3c0-0.4,0.3-0.8,0.8-0.8S9.8,2.6,9.8,3v1.2h4.5
	V3c0-0.4,0.3-0.8,0.8-0.8s0.8,0.3,0.8,0.8v1.2H18c1.5,0,2.8,1.2,2.8,2.8v2c0,0.4-0.3,0.8-0.8,0.8S19.2,9.4,19.2,9V7
	c0-0.7-0.6-1.2-1.2-1.2h-2.2V7c0,0.4-0.3,0.8-0.8,0.8S14.2,7.4,14.2,7V5.8H9.8V7c0,0.4-0.3,0.8-0.8,0.8S8.2,7.4,8.2,7V5.8H6
	C5.3,5.8,4.8,6.3,4.8,7v3.2H9c0.4,0,0.8,0.3,0.8,0.8S9.4,11.8,9,11.8H4.8V19c0,0.7,0.6,1.2,1.2,1.2h3c0.4,0,0.8,0.3,0.8,0.8
	S9.4,21.8,9,21.8z M20,21.8c-0.2,0-0.4-0.1-0.5-0.2l-3-3l-3,3c-0.3,0.3-0.8,0.3-1.1,0s-0.3-0.8,0-1.1l3-3l-3-3
	c-0.3-0.3-0.3-0.8,0-1.1c0.3-0.3,0.8-0.3,1.1,0l3,3l3-3c0.3-0.3,0.8-0.3,1.1,0s0.3,0.8,0,1.1l-3,3l3,3c0.3,0.3,0.3,0.8,0,1.1
	C20.4,21.7,20.2,21.8,20,21.8z"/>
</svg>
