<?xml version="1.0" encoding="utf-8"?>
<!-- Generator: Adobe Illustrator 27.5.0, SVG Export Plug-In . SVG Version: 6.00 Build 0)  -->
<svg version="1.1" id="Capa_1" xmlns="http://www.w3.org/2000/svg" xmlns:xlink="http://www.w3.org/1999/xlink" x="0px" y="0px"
	 viewBox="0 0 24 24" style="enable-background:new 0 0 24 24;" xml:space="preserve">
<style type="text/css">
	.st0{fill:none;}
</style>
<path  d="M13.7,22c-0.2,0-0.4-0.1-0.5-0.2l-2.7-2.7c-0.3-0.3-0.3-0.8,0-1.1s0.8-0.3,1.1,0l2.1,2.1l5.7-5.7
	c0.3-0.3,0.8-0.3,1.1,0s0.3,0.8,0,1.1l-6.2,6.2C14,21.9,13.8,22,13.7,22z M8,21.8H6c-1.5,0-2.8-1.2-2.8-2.8V7c0-1.5,1.2-2.8,2.8-2.8
	h2.2V3c0-0.4,0.3-0.8,0.8-0.8S9.8,2.6,9.8,3v1.2h4.5V3c0-0.4,0.3-0.8,0.8-0.8s0.8,0.3,0.8,0.8v1.2H18c1.5,0,2.8,1.2,2.8,2.8v5
	c0,0.4-0.3,0.8-0.8,0.8s-0.8-0.3-0.8-0.8v-0.2H4.8V19c0,0.7,0.6,1.2,1.2,1.2h2c0.4,0,0.8,0.3,0.8,0.8S8.4,21.8,8,21.8z M4.8,10.2
	h14.5V7c0-0.7-0.6-1.2-1.2-1.2h-2.2V7c0,0.4-0.3,0.8-0.8,0.8S14.2,7.4,14.2,7V5.8H9.8V7c0,0.4-0.3,0.8-0.8,0.8S8.2,7.4,8.2,7V5.8H6
	C5.3,5.8,4.8,6.3,4.8,7V10.2z"/>
</svg>
