<?xml version="1.0" encoding="utf-8"?>
<!-- Generator: Adobe Illustrator 27.5.0, SVG Export Plug-In . SVG Version: 6.00 Build 0)  -->
<svg version="1.1" id="Capa_1" xmlns="http://www.w3.org/2000/svg" xmlns:xlink="http://www.w3.org/1999/xlink" x="0px" y="0px"
	 viewBox="0 0 24 24" style="enable-background:new 0 0 24 24;" xml:space="preserve">
<style type="text/css">
	.st0{fill:none;}
</style>
<path  d="M20,21.8c-0.4,0-0.8-0.3-0.8-0.8v-1c0-0.7-0.6-1.2-1.2-1.2h-4c-0.7,0-1.2,0.6-1.2,1.2v1c0,0.4-0.3,0.8-0.8,0.8
	s-0.8-0.3-0.8-0.8v-1c0-1.5,1.2-2.8,2.8-2.8h4c1.5,0,2.8,1.2,2.8,2.8v1C20.8,21.4,20.4,21.8,20,21.8z M9,21.8H6
	c-1.5,0-2.8-1.2-2.8-2.8V7c0-1.5,1.2-2.8,2.8-2.8h2.2V3c0-0.4,0.3-0.8,0.8-0.8S9.8,2.6,9.8,3v1.2h4.5V3c0-0.4,0.3-0.8,0.8-0.8
	s0.8,0.3,0.8,0.8v1.2H18c1.5,0,2.8,1.2,2.8,2.8v2c0,0.4-0.3,0.8-0.8,0.8S19.2,9.4,19.2,9V7c0-0.7-0.6-1.2-1.2-1.2h-2.2V7
	c0,0.4-0.3,0.8-0.8,0.8S14.2,7.4,14.2,7V5.8H9.8V7c0,0.4-0.3,0.8-0.8,0.8S8.2,7.4,8.2,7V5.8H6C5.3,5.8,4.8,6.3,4.8,7v3.2H9
	c0.4,0,0.8,0.3,0.8,0.8S9.4,11.8,9,11.8H4.8V19c0,0.7,0.6,1.2,1.2,1.2h3c0.4,0,0.8,0.3,0.8,0.8S9.4,21.8,9,21.8z M16,15.8
	c-1.5,0-2.8-1.2-2.8-2.8s1.2-2.8,2.8-2.8s2.8,1.2,2.8,2.8S17.5,15.8,16,15.8z M16,11.8c-0.7,0-1.2,0.6-1.2,1.2s0.6,1.2,1.2,1.2
	s1.2-0.6,1.2-1.2S16.7,11.8,16,11.8z"/>
</svg>
