<?xml version="1.0" encoding="utf-8"?>
<!-- Generator: Adobe Illustrator 27.5.0, SVG Export Plug-In . SVG Version: 6.00 Build 0)  -->
<svg version="1.1" id="Capa_1" xmlns="http://www.w3.org/2000/svg" xmlns:xlink="http://www.w3.org/1999/xlink" x="0px" y="0px"
	 viewBox="0 0 24 24" style="enable-background:new 0 0 24 24;" xml:space="preserve">
<style type="text/css">
	.st0{fill:none;}
</style>
<path  d="M19,10.2H8.8V7c0-1.8,1.5-3.2,3.2-3.2s3.2,1.5,3.2,3.2c0,0.4,0.3,0.8,0.8,0.8s0.8-0.3,0.8-0.8
	c0-2.6-2.1-4.8-4.8-4.8C9.4,2.2,7.2,4.4,7.2,7v3.2H5c-0.4,0-0.8,0.3-0.8,0.8v10c0,0.4,0.3,0.8,0.8,0.8h14c0.4,0,0.8-0.3,0.8-0.8V11
	C19.8,10.6,19.4,10.2,19,10.2z M18.2,20.2H5.8v-8.5h12.5V20.2z"/>
</svg>
