<?xml version="1.0" encoding="utf-8"?>
<!-- Generator: Adobe Illustrator 27.5.0, SVG Export Plug-In . SVG Version: 6.00 Build 0)  -->
<svg version="1.1" id="Capa_1" xmlns="http://www.w3.org/2000/svg" xmlns:xlink="http://www.w3.org/1999/xlink" x="0px" y="0px"
	 viewBox="0 0 24 24" style="enable-background:new 0 0 24 24;" xml:space="preserve">
<style type="text/css">
	.st0{fill:none;}
</style>
<g>
	<path  d="M12,2.2c-5.4,0-9.8,4.4-9.8,9.8s4.4,9.8,9.8,9.8s9.8-4.4,9.8-9.8S17.4,2.2,12,2.2z M12,20.2
		c-4.5,0-8.2-3.7-8.2-8.2S7.5,3.8,12,3.8s8.2,3.7,8.2,8.2S16.5,20.2,12,20.2z"/>
	<path  d="M15,9.8c0.4,0,0.8-0.3,0.8-0.8S15.4,8.2,15,8.2h0c-0.4,0-0.7,0.3-0.7,0.8S14.6,9.8,15,9.8z"/>
	<path  d="M9,9.8c0.4,0,0.8-0.3,0.8-0.8S9.4,8.2,9,8.2h0C8.6,8.2,8.3,8.6,8.3,9S8.6,9.8,9,9.8z"/>
	<path  d="M16,14.2H8c-0.4,0-0.8,0.3-0.8,0.8s0.3,0.8,0.8,0.8h8c0.4,0,0.8-0.3,0.8-0.8S16.4,14.2,16,14.2z"/>
</g>
</svg>
