<?xml version="1.0" encoding="utf-8"?>
<!-- Generator: Adobe Illustrator 27.5.0, SVG Export Plug-In . SVG Version: 6.00 Build 0)  -->
<svg version="1.1" id="Capa_1" xmlns="http://www.w3.org/2000/svg" xmlns:xlink="http://www.w3.org/1999/xlink" x="0px" y="0px"
	 viewBox="0 0 24 24" style="enable-background:new 0 0 24 24;" xml:space="preserve">
<style type="text/css">
	.st0{fill:#FFFFFF;}
</style>
<path  d="M20.5,9.4l-8-7c-0.3-0.2-0.7-0.2-1,0l-8,7C3.3,9.6,3.2,9.8,3.2,10v10c0,0.4,0.3,0.8,0.8,0.8h5
	c0.4,0,0.8-0.3,0.8-0.8v-4c0-0.6,0.2-1.2,0.7-1.6c0.8-0.8,2.3-0.8,3.2,0c0.4,0.4,0.7,1,0.7,1.6v4c0,0.4,0.3,0.8,0.8,0.8h5
	c0.4,0,0.8-0.3,0.8-0.8V10C20.8,9.8,20.7,9.6,20.5,9.4z M19.2,19.2h-3.5V16c0-1-0.4-1.9-1.1-2.7c-1.4-1.4-3.9-1.4-5.3,0
	C8.6,14.1,8.2,15,8.2,16v3.2H4.8v-8.9L12,4l7.2,6.3V19.2z"/>
</svg>
