<?xml version="1.0" encoding="utf-8"?>
<!-- Generator: Adobe Illustrator 27.5.0, SVG Export Plug-In . SVG Version: 6.00 Build 0)  -->
<svg version="1.1" id="Capa_1" xmlns="http://www.w3.org/2000/svg" xmlns:xlink="http://www.w3.org/1999/xlink" x="0px" y="0px"
	 viewBox="0 0 24 24" style="enable-background:new 0 0 24 24;" xml:space="preserve">
<style type="text/css">
	.st0{fill:none;}
</style>
<g>
	<path  d="M12,17.2L12,17.2c-0.4,0-0.8,0.3-0.8,0.8s0.3,0.8,0.8,0.8h0c0.4,0,0.8-0.3,0.8-0.8S12.4,17.2,12,17.2z"/>
	<path  d="M16,2.2H8C6.5,2.2,5.2,3.5,5.2,5v14c0,1.5,1.2,2.8,2.8,2.8h8c1.5,0,2.8-1.2,2.8-2.8V5
		C18.8,3.5,17.5,2.2,16,2.2z M16,20.2H8c-0.7,0-1.2-0.6-1.2-1.2V5c0-0.7,0.6-1.2,1.2-1.2h8c0.7,0,1.2,0.6,1.2,1.2v14
		C17.2,19.7,16.7,20.2,16,20.2z"/>
</g>
</svg>
