<?xml version="1.0" encoding="utf-8"?>
<!-- Generator: Adobe Illustrator 27.5.0, SVG Export Plug-In . SVG Version: 6.00 Build 0)  -->
<svg version="1.1" id="Capa_1" xmlns="http://www.w3.org/2000/svg" xmlns:xlink="http://www.w3.org/1999/xlink" x="0px" y="0px"
	 viewBox="0 0 24 24" style="enable-background:new 0 0 24 24;" xml:space="preserve">
<style type="text/css">
	.st0{fill:none;}
</style>
<path  d="M19,4.2H5C4,4.2,3.2,5,3.2,6v9c0,1,0.8,1.8,1.8,1.8h6.2v2.5H8c-0.4,0-0.8,0.3-0.8,0.8s0.3,0.8,0.8,0.8h8
	c0.4,0,0.8-0.3,0.8-0.8s-0.3-0.8-0.8-0.8h-3.2v-2.5H19c1,0,1.8-0.8,1.8-1.8V6C20.8,5,20,4.2,19,4.2z M19.2,15c0,0.1-0.1,0.2-0.2,0.2
	H5c-0.1,0-0.2-0.1-0.2-0.2V6c0-0.1,0.1-0.2,0.2-0.2h14c0.1,0,0.2,0.1,0.2,0.2V15z"/>
</svg>
