<?xml version="1.0" encoding="utf-8"?>
<!-- Generator: Adobe Illustrator 27.5.0, SVG Export Plug-In . SVG Version: 6.00 Build 0)  -->
<svg version="1.1" id="Capa_1" xmlns="http://www.w3.org/2000/svg" xmlns:xlink="http://www.w3.org/1999/xlink" x="0px" y="0px"
	 viewBox="0 0 24 24" style="enable-background:new 0 0 24 24;" xml:space="preserve">
<style type="text/css">
	.st0{fill:none;}
</style>
<path  d="M18,14.2c-1.2,0-2.3,0.6-3,1.4L9.6,13c0.1-0.3,0.1-0.6,0.1-1s0-0.7-0.1-1l5.4-2.7c0.7,0.9,1.8,1.4,2.9,1.4
	c2.1,0,3.8-1.7,3.8-3.8S20.1,2.2,18,2.2S14.2,3.9,14.2,6c0,0.3,0,0.7,0.1,1L8.9,9.7C8.3,8.8,7.2,8.2,6,8.2c-2.1,0-3.8,1.7-3.8,3.8
	c0,2.1,1.7,3.8,3.8,3.8c1.2,0,2.3-0.6,2.9-1.4l5.4,2.7c-0.1,0.3-0.1,0.6-0.1,1c0,2.1,1.7,3.8,3.8,3.8s3.8-1.7,3.8-3.8
	S20.1,14.2,18,14.2z M18,3.8c1.2,0,2.2,1,2.2,2.2s-1,2.2-2.2,2.2s-2.2-1-2.2-2.2S16.8,3.8,18,3.8z M6,14.2c-1.2,0-2.2-1-2.2-2.2
	c0-1.2,1-2.2,2.2-2.2s2.2,1,2.2,2.2C8.2,13.2,7.2,14.2,6,14.2z M18,20.2c-1.2,0-2.2-1-2.2-2.2s1-2.2,2.2-2.2s2.2,1,2.2,2.2
	S19.2,20.2,18,20.2z"/>
</svg>
