<?xml version="1.0" encoding="utf-8"?>
<!-- Generator: Adobe Illustrator 27.5.0, SVG Export Plug-In . SVG Version: 6.00 Build 0)  -->
<svg version="1.1" id="Capa_1" xmlns="http://www.w3.org/2000/svg" xmlns:xlink="http://www.w3.org/1999/xlink" x="0px" y="0px"
	 viewBox="0 0 24 24" style="enable-background:new 0 0 24 24;" xml:space="preserve">
<style type="text/css">
	.st0{fill:none;}
</style>
<path  d="M16.5,3.2c-1.4,0-2.8,0.6-3.8,1.6L12,5.6l-0.7-0.7c-1-1-2.4-1.6-3.8-1.6c-2.9,0-5.3,2.5-5.3,5.5
	c0,1.5,0.5,2.8,1.5,3.9l7.7,8c0.1,0.1,0.3,0.2,0.5,0.2s0.4-0.1,0.5-0.2l7.7-8c1-1,1.5-2.4,1.5-3.9C21.8,5.7,19.4,3.2,16.5,3.2z
	 M19.1,11.5L12,18.9l-7.1-7.4c-0.7-0.7-1.1-1.8-1.1-2.8c0-2.2,1.7-4,3.8-4c1,0,2,0.4,2.7,1.2l1.2,1.3c0.3,0.3,0.8,0.3,1.1,0l1.2-1.3
	c0.7-0.7,1.7-1.2,2.7-1.2c2.1,0,3.8,1.8,3.8,4C20.2,9.8,19.9,10.8,19.1,11.5z"/>
</svg>
