<?xml version="1.0" encoding="utf-8"?>
<!-- Generator: Adobe Illustrator 27.5.0, SVG Export Plug-In . SVG Version: 6.00 Build 0)  -->
<svg version="1.1" id="Capa_1" xmlns="http://www.w3.org/2000/svg" xmlns:xlink="http://www.w3.org/1999/xlink" x="0px" y="0px"
	 viewBox="0 0 24 24" style="enable-background:new 0 0 24 24;" xml:space="preserve">
<style type="text/css">
	.st0{fill:none;}
</style>
<path  d="M20,4.2H4C3,4.2,2.2,5,2.2,6v12c0,1,0.8,1.8,1.8,1.8h16c1,0,1.8-0.8,1.8-1.8V6C21.8,5,21,4.2,20,4.2z M19.2,5.8
	l-6.3,6.3c-0.5,0.5-1.3,0.5-1.8,0L4.8,5.8H19.2z M20.2,18c0,0.1-0.1,0.2-0.2,0.2H4c-0.1,0-0.2-0.1-0.2-0.2V6.8l6.3,6.3
	c1,1,2.8,1,3.9,0l6.3-6.3V18z"/>
</svg>
