<?xml version="1.0" encoding="utf-8"?>
<!-- Generator: Adobe Illustrator 27.5.0, SVG Export Plug-In . SVG Version: 6.00 Build 0)  -->
<svg version="1.1" id="Capa_1" xmlns="http://www.w3.org/2000/svg" xmlns:xlink="http://www.w3.org/1999/xlink" x="0px" y="0px"
	 viewBox="0 0 24 24" style="enable-background:new 0 0 24 24;" xml:space="preserve">
<style type="text/css">
	.st0{fill:none;}
</style>
<path class="" d="M16,16.8c-0.2,0-0.4-0.1-0.5-0.2L12,13.1l-3.5,3.5c-0.3,0.3-0.8,0.3-1.1,0s-0.3-0.8,0-1.1l3.5-3.5L7.5,8.5
	c-0.3-0.3-0.3-0.8,0-1.1s0.8-0.3,1.1,0l3.5,3.5l3.5-3.5c0.3-0.3,0.8-0.3,1.1,0s0.3,0.8,0,1.1L13.1,12l3.5,3.5c0.3,0.3,0.3,0.8,0,1.1
	C16.4,16.7,16.2,16.8,16,16.8z"/>
</svg>
