<?xml version="1.0" encoding="utf-8"?>
<!-- Generator: Adobe Illustrator 27.5.0, SVG Export Plug-In . SVG Version: 6.00 Build 0)  -->
<svg version="1.1" id="Capa_1" xmlns="http://www.w3.org/2000/svg" xmlns:xlink="http://www.w3.org/1999/xlink" x="0px" y="0px"
	 viewBox="0 0 24 24" style="enable-background:new 0 0 24 24;" xml:space="preserve">
<style type="text/css">
	.st0{fill:none;}
</style>
<path class="st0" d="M16,3.2H8C5.4,3.2,3.2,5.4,3.2,8v8c0,2.6,2.1,4.8,4.8,4.8h8c2.6,0,4.8-2.1,4.8-4.8V8C20.8,5.4,18.6,3.2,16,3.2z
	 M15.5,15.5c-0.3,0.3-0.8,0.3-1.1,0L12,13.1l-2.5,2.5c-0.3,0.3-0.8,0.3-1.1,0c-0.3-0.3-0.3-0.8,0-1.1l2.5-2.5L8.5,9.5
	c-0.3-0.3-0.3-0.8,0-1.1s0.8-0.3,1.1,0l2.5,2.5l2.5-2.5c0.3-0.3,0.8-0.3,1.1,0c0.3,0.3,0.3,0.8,0,1.1L13.1,12l2.5,2.5
	C15.8,14.8,15.8,15.2,15.5,15.5z"/>
</svg>
