<?xml version="1.0" encoding="utf-8"?>
<!-- Generator: Adobe Illustrator 27.5.0, SVG Export Plug-In . SVG Version: 6.00 Build 0)  -->
<svg version="1.1" id="Capa_1" xmlns="http://www.w3.org/2000/svg" xmlns:xlink="http://www.w3.org/1999/xlink" x="0px" y="0px"
	 viewBox="0 0 24 24" style="enable-background:new 0 0 24 24;" xml:space="preserve">
<style type="text/css">
	.st0{fill:none;}
</style>
<g>
	<path class="" d="M13.1,12l2.5-2.5c0.3-0.3,0.3-0.8,0-1.1c-0.3-0.3-0.8-0.3-1.1,0L12,10.9L9.5,8.5c-0.3-0.3-0.8-0.3-1.1,0
		s-0.3,0.8,0,1.1l2.5,2.5l-2.5,2.5c-0.3,0.3-0.3,0.8,0,1.1c0.3,0.3,0.8,0.3,1.1,0l2.5-2.5l2.5,2.5c0.3,0.3,0.8,0.3,1.1,0
		c0.3-0.3,0.3-0.8,0-1.1L13.1,12z"/>
	<path class="" d="M16,3.2H8C5.4,3.2,3.2,5.4,3.2,8v8c0,2.6,2.1,4.8,4.8,4.8h8c2.6,0,4.8-2.1,4.8-4.8V8C20.8,5.4,18.6,3.2,16,3.2
		z M16,19.2H8c-1.8,0-3.2-1.5-3.2-3.2V8c0-1.8,1.5-3.2,3.2-3.2h8c1.8,0,3.2,1.5,3.2,3.2v8C19.2,17.8,17.8,19.2,16,19.2z"/>
</g>
</svg>
