<?xml version="1.0" encoding="utf-8"?>
<!-- Generator: Adobe Illustrator 27.5.0, SVG Export Plug-In . SVG Version: 6.00 Build 0)  -->
<svg version="1.1" id="Capa_1" xmlns="http://www.w3.org/2000/svg" xmlns:xlink="http://www.w3.org/1999/xlink" x="0px" y="0px"
	 viewBox="0 0 31.9 34.9" style="enable-background:new 0 0 31.9 34.9;" xml:space="preserve">
<style type="text/css">
	.st0{fill:none;}
</style>
<g>
	<g>
		<path class="" d="M31.1,6.1C31.1,6,31,6,31,5.9l-5.3-5.3c0,0-0.1-0.1-0.1-0.1V0.5h-0.4c0,0-0.1,0-0.1,0H9.4
			c-1.7,0-3.1,1.4-3.1,3.1v8H3.6c-1.6,0-2.9,1.3-2.9,2.8c0,0,0,0.1,0,0.1c0,0.1,0,0.2,0,0.3v11.8c0,1.5,1.2,2.7,2.7,2.7h3v2.1
			c0,1.7,1.4,3.1,3.1,3.1h18.8c1.7,0,3.1-1.4,3.1-3.1V6.1H31.1z M25.6,2.7L29,6.1h-3.4V2.7z M2.2,14.7v-0.2c0-0.8,0.6-1.4,1.4-1.4
			h2.7v3l-2.7,0C2.9,16,2.3,15.4,2.2,14.7L2.2,14.7z M3.4,27.8c-0.6,0-1.2-0.5-1.2-1.2v-9.5c0.4,0.2,0.9,0.4,1.5,0.4l3.4,0
			c0,0,0,0,0,0s0,0,0,0l18.2,0c0.6,0,1.2,0.5,1.2,1.2v8c0,0.6-0.5,1.2-1.2,1.2H7.3H3.4z M29.7,31.4c0,0.9-0.7,1.6-1.6,1.6H9.4
			c-0.9,0-1.6-0.7-1.6-1.6v-2.1h17.5c1.5,0,2.7-1.2,2.7-2.7v-8c0-1.5-1.2-2.7-2.7-2.7L7.8,16V3.5C7.8,2.7,8.5,2,9.4,2h14.7v5.6h5.6
			V31.4z"/>
		<path class="" d="M21.9,11H10.2c-0.4,0-0.8,0.3-0.8,0.8s0.3,0.8,0.8,0.8h11.7c0.4,0,0.8-0.3,0.8-0.8S22.4,11,21.9,11z"/>
		<path class="" d="M21.9,8.2H10.2c-0.4,0-0.8,0.3-0.8,0.8s0.3,0.8,0.8,0.8h11.7c0.4,0,0.8-0.3,0.8-0.8S22.4,8.2,21.9,8.2z"/>
		<path class="" d="M10.2,6.8h5.9c0.4,0,0.8-0.3,0.8-0.8s-0.3-0.8-0.8-0.8h-5.9C9.8,5.3,9.5,5.6,9.5,6S9.8,6.8,10.2,6.8z"/>
	</g>
	<g>
		<g>
		</g>
	</g>
</g>
</svg>
