<?xml version="1.0" encoding="utf-8"?>
<!-- Generator: Adobe Illustrator 27.5.0, SVG Export Plug-In . SVG Version: 6.00 Build 0)  -->
<svg version="1.1" id="Capa_1" xmlns="http://www.w3.org/2000/svg" xmlns:xlink="http://www.w3.org/1999/xlink" x="0px" y="0px"
	 viewBox="0 0 59.5 59.5" style="enable-background:new 0 0 59.5 59.5;" xml:space="preserve">
<style type="text/css">
	.st0{fill:none;}
</style>
<path class="st0" d="M29.8,0C13.3,0,0,13.3,0,29.8c0,16.4,13.3,29.8,29.8,29.8c16.4,0,29.8-13.3,29.8-29.8C59.5,13.3,46.2,0,29.8,0z
	 M29.8,45.6c-4.3,0-8.3-1.8-11.2-4.7l2.5-2.5c2.3,2.3,5.4,3.6,8.7,3.6c6.8,0,12.3-5.5,12.3-12.3c0-3.4-1.4-6.5-3.6-8.7
	c-2.2-2.2-5.3-3.6-8.7-3.6c-3.8,0-7.2,1.7-9.6,4.5l4.3,4.3H13.9V15.7l3.8,3.8c3-3.5,7.3-5.6,12.1-5.6c4.4,0,8.3,1.8,11.2,4.6
	c2.9,2.9,4.6,6.8,4.6,11.2C45.6,38.5,38.5,45.6,29.8,45.6z M35,28v3.5h-7V20.9h3.5v7H35z"/>
</svg>
