<?xml version="1.0" encoding="utf-8"?>
<!-- Generator: Adobe Illustrator 27.5.0, SVG Export Plug-In . SVG Version: 6.00 Build 0)  -->
<svg version="1.1" id="Capa_1" xmlns="http://www.w3.org/2000/svg" xmlns:xlink="http://www.w3.org/1999/xlink" x="0px" y="0px"
	 viewBox="0 0 59.5 59.5" style="enable-background:new 0 0 59.5 59.5;" xml:space="preserve">
<style type="text/css">
	.st0{fill:#56B78E;}
</style>
<g>
	<path  d="M29.8,0C13.3,0,0,13.3,0,29.8c0,16.4,13.3,29.8,29.8,29.8c16.4,0,29.8-13.3,29.8-29.8C59.5,13.3,46.2,0,29.8,0
		z M29.8,47.8c-9.9,0-18-8.1-18-18s8.1-18,18-18s18,8.1,18,18S39.7,47.8,29.8,47.8z"/>
	<path  d="M29.8,15.8c-7.7,0-14,6.3-14,14c0,7.7,6.3,14,14,14c7.7,0,14-6.3,14-14C43.8,22,37.5,15.8,29.8,15.8z
		 M27.8,36.6l-5.4-5.4l2.8-2.8l2.6,2.6l6.6-6.6l2.8,2.8L27.8,36.6z"/>
</g>
</svg>
