<?xml version="1.0" encoding="utf-8"?>
<!-- Generator: Adobe Illustrator 27.5.0, SVG Export Plug-In . SVG Version: 6.00 Build 0)  -->
<svg version="1.1" id="Capa_1" xmlns="http://www.w3.org/2000/svg" xmlns:xlink="http://www.w3.org/1999/xlink" x="0px" y="0px"
	 viewBox="0 0 59.5 59.5" style="enable-background:new 0 0 59.5 59.5;" xml:space="preserve">
<style type="text/css">
	.st0{fill:none;}
</style>
<g>
	<path  d="M29.7,15.7c-7.7,0-14,6.3-14,14c0,7.7,6.3,14,14,14c7.7,0,14-6.3,14-14C43.7,22,37.5,15.7,29.7,15.7z
		 M36.1,33.3l-2.8,2.8l-3.5-3.5l-3.5,3.5l-2.8-2.8l3.5-3.5l-3.5-3.5l2.8-2.8l3.5,3.5l3.5-3.5l2.8,2.8l-3.5,3.5L36.1,33.3z"/>
	<path  d="M29.7,0C13.3,0,0,13.3,0,29.7c0,16.4,13.3,29.8,29.8,29.8c16.4,0,29.8-13.3,29.8-29.8C59.5,13.3,46.2,0,29.7,0
		z M29.7,47.7c-9.9,0-18-8.1-18-18s8.1-18,18-18s18,8.1,18,18S39.7,47.7,29.7,47.7z"/>
</g>
</svg>
