<?xml version="1.0" encoding="utf-8"?>
<!-- Generator: Adobe Illustrator 27.5.0, SVG Export Plug-In . SVG Version: 6.00 Build 0)  -->
<svg version="1.1" id="Capa_1" xmlns="http://www.w3.org/2000/svg" xmlns:xlink="http://www.w3.org/1999/xlink" x="0px" y="0px"
	 viewBox="0 0 59.5 59.5" style="enable-background:new 0 0 59.5 59.5;" xml:space="preserve">
<style type="text/css">
	.st0{fill:#00B5DA;}
	.st1{fill:#FFFFFF;}
</style>
<circle class="st0" cx="29.8" cy="29.8" r="29.8"/>
<g>
	<polygon class="st1" points="28,20.9 28,31.5 35,31.5 35,28 31.5,28 31.5,20.9 	"/>
	<path class="st1" d="M41,18.5c-2.9-2.9-6.8-4.6-11.2-4.6c-4.7,0-9.1,2.1-12.1,5.6l-3.8-3.8v10.6h10.6L20.2,22
		c2.3-2.8,5.8-4.5,9.6-4.5c3.4,0,6.5,1.4,8.7,3.6c2.2,2.2,3.6,5.3,3.6,8.7c0,6.8-5.5,12.3-12.3,12.3c-3.4,0-6.5-1.4-8.7-3.6L18.6,41
		c2.9,2.9,6.9,4.7,11.2,4.7c8.7,0,15.9-7.1,15.9-15.9C45.6,25.4,43.8,21.4,41,18.5z"/>
</g>
</svg>
