<?xml version="1.0" encoding="utf-8"?>
<!-- Generator: Adobe Illustrator 27.5.0, SVG Export Plug-In . SVG Version: 6.00 Build 0)  -->
<svg version="1.1" id="Capa_1" xmlns="http://www.w3.org/2000/svg" xmlns:xlink="http://www.w3.org/1999/xlink" x="0px" y="0px"
	 viewBox="0 0 59.5 59.5" style="enable-background:new 0 0 59.5 59.5;" xml:space="preserve">
<style type="text/css">
	.st0{fill:none;}
</style>
<path class="st0" d="M29.8,0C13.3,0,0,13.3,0,29.8s13.3,29.8,29.8,29.8s29.8-13.3,29.8-29.8S46.2,0,29.8,0z M41.8,34.4
	c0,0.4-0.3,0.7-0.7,0.7h-12c-0.4,0-0.7-0.3-0.7-0.7v-3.3h-8v10c0,0.4-0.3,0.7-0.7,0.7h-1.3c-0.4,0-0.7-0.3-0.7-0.7V18.4
	c0-0.4,0.3-0.7,0.7-0.7h1.3h12.7c0.4,0,0.7,0.3,0.7,0.7v3.3h8c0.4,0,0.7,0.3,0.7,0.7V34.4z"/>
</svg>
