<?xml version="1.0" encoding="utf-8"?>
<!-- Generator: Adobe Illustrator 27.5.0, SVG Export Plug-In . SVG Version: 6.00 Build 0)  -->
<svg version="1.1" id="Capa_1" xmlns="http://www.w3.org/2000/svg" xmlns:xlink="http://www.w3.org/1999/xlink" x="0px" y="0px"
	 viewBox="0 0 24 24" style="enable-background:new 0 0 24 24;" xml:space="preserve">
<style type="text/css">
	.st0{fill:none;}
</style>
<path class="st0" d="M16,3.2H8C5.4,3.2,3.2,5.4,3.2,8v8c0,2.6,2.1,4.8,4.8,4.8h8c2.6,0,4.8-2.1,4.8-4.8V8C20.8,5.4,18.6,3.2,16,3.2z
	 M17.3,13.7c-0.4,0.2-0.8,0-1-0.4c-0.4-0.9-1-1.6-1.9-2.1c-0.8-0.5-1.8-0.7-2.8-0.6c-0.9,0.1-1.8,0.6-2.5,1.4c0,0,0,0,0,0l-0.2,0.2
	H10c0.4,0,0.8,0.3,0.8,0.8s-0.3,0.8-0.8,0.8H7c-0.4,0-0.8-0.3-0.8-0.8v-3c0-0.4,0.3-0.8,0.8-0.8S7.8,9.6,7.8,10v1.2L8,10.9l0,0
	c0.9-1,2.1-1.6,3.4-1.8C12.7,9,14,9.2,15.1,9.9c1.1,0.7,2,1.5,2.6,2.8C17.9,13.1,17.7,13.5,17.3,13.7z"/>
</svg>
