<?xml version="1.0" encoding="utf-8"?>
<!-- Generator: Adobe Illustrator 27.5.0, SVG Export Plug-In . SVG Version: 6.00 Build 0)  -->
<svg version="1.1" id="Capa_1" xmlns="http://www.w3.org/2000/svg" xmlns:xlink="http://www.w3.org/1999/xlink" x="0px" y="0px"
	 viewBox="0 0 24 24" style="enable-background:new 0 0 24 24;" xml:space="preserve">
<style type="text/css">
	.st0{fill:none;}
</style>
<g>
	<path class="" d="M9.1,12C9.1,12,9.1,12,9.1,12c0.7-0.8,1.6-1.2,2.6-1.4c0.9-0.1,1.9,0,2.8,0.6c0.9,0.5,1.5,1.2,1.9,2.1
		c0.2,0.4,0.6,0.6,1,0.4c0.4-0.2,0.6-0.6,0.4-1c-0.5-1.3-1.5-2.2-2.6-2.8C14,9.2,12.7,9,11.4,9.1C10.1,9.3,8.9,10,8,10.9l0,0
		l-0.3,0.3V10c0-0.4-0.3-0.8-0.8-0.8S6.2,9.6,6.2,10v3c0,0.4,0.3,0.8,0.8,0.8h3c0.4,0,0.8-0.3,0.8-0.8s-0.3-0.8-0.8-0.8H8.8L9.1,12"
		/>
	<path class="" d="M16,3.2H8C5.4,3.2,3.2,5.4,3.2,8v8c0,2.6,2.1,4.8,4.8,4.8h8c2.6,0,4.8-2.1,4.8-4.8V8C20.8,5.4,18.6,3.2,16,3.2
		z M16,19.2H8c-1.8,0-3.2-1.5-3.2-3.2V8c0-1.8,1.5-3.2,3.2-3.2h8c1.8,0,3.2,1.5,3.2,3.2v8C19.2,17.8,17.8,19.2,16,19.2z"/>
</g>
</svg>
