<?xml version="1.0" encoding="utf-8"?>
<!-- Generator: Adobe Illustrator 27.5.0, SVG Export Plug-In . SVG Version: 6.00 Build 0)  -->
<svg version="1.1" id="Capa_1" xmlns="http://www.w3.org/2000/svg" xmlns:xlink="http://www.w3.org/1999/xlink" x="0px" y="0px"
	 viewBox="0 0 24 24" style="enable-background:new 0 0 24 24;" xml:space="preserve">
<style type="text/css">
	.st0{fill:none;}
</style>
<g>
	<path  d="M20.5,19.2H12c-0.4,0-0.8,0.3-0.8,0.8s0.3,0.8,0.8,0.8h8.5c0.4,0,0.8-0.3,0.8-0.8S20.9,19.2,20.5,19.2z"/>
	<path  d="M21.5,6.5l-4-4c-0.3-0.3-0.8-0.3-1.1,0l-13,13c-0.1,0.1-0.2,0.3-0.2,0.5v4c0,0.4,0.3,0.8,0.8,0.8h4
		c0.2,0,0.4-0.1,0.5-0.2l13-13C21.8,7.2,21.8,6.8,21.5,6.5z M19.9,7L18,8.9L15.1,6L17,4.1L19.9,7z M7.7,19.2H4.8v-2.9L14,7.1
		l2.9,2.9L7.7,19.2z"/>
</g>
</svg>
