<?xml version="1.0" encoding="utf-8"?>
<!-- Generator: Adobe Illustrator 27.5.0, SVG Export Plug-In . SVG Version: 6.00 Build 0)  -->
<svg version="1.1" id="Capa_1" xmlns="http://www.w3.org/2000/svg" xmlns:xlink="http://www.w3.org/1999/xlink" x="0px" y="0px"
	 viewBox="0 0 24 24" style="enable-background:new 0 0 24 24;" xml:space="preserve">
<style type="text/css">
	.st0{fill:none;}
</style>
<g>
	<path  d="M21.5,6.5l-4-4c-0.3-0.3-0.8-0.3-1.1,0l-9,9c-0.1,0.1-0.2,0.3-0.2,0.5v4c0,0.4,0.3,0.8,0.8,0.8h4
		c0.2,0,0.4-0.1,0.5-0.2l9-9C21.8,7.2,21.8,6.8,21.5,6.5z M19.9,7L18,8.9L15.1,6L17,4.1L19.9,7z M11.7,15.2H8.8v-2.9L14,7.1l2.9,2.9
		L11.7,15.2z"/>
	<path  d="M20,11.2c-0.4,0-0.8,0.3-0.8,0.8v7.2H4.8V4.8H12c0.4,0,0.8-0.3,0.8-0.8S12.4,3.2,12,3.2H4
		C3.6,3.2,3.2,3.6,3.2,4v16c0,0.4,0.3,0.8,0.8,0.8h16c0.2,0,0.4-0.1,0.5-0.2c0.1-0.1,0.2-0.3,0.2-0.5v-8
		C20.8,11.6,20.4,11.2,20,11.2z"/>
</g>
</svg>
