<?xml version="1.0" encoding="utf-8"?>
<!-- Generator: Adobe Illustrator 27.5.0, SVG Export Plug-In . SVG Version: 6.00 Build 0)  -->
<svg version="1.1" id="Capa_1" xmlns="http://www.w3.org/2000/svg" xmlns:xlink="http://www.w3.org/1999/xlink" x="0px" y="0px"
	 viewBox="0 0 24 24" style="enable-background:new 0 0 24 24;" xml:space="preserve">
<style type="text/css">
	.st0{fill:none;}
</style>
<path  d="M20.3,6.3l-8-4c-0.2-0.1-0.5-0.1-0.7,0l-8,4C3.4,6.5,3.2,6.7,3.2,7c0,5.1,2.7,13,8.5,14.7c0.1,0,0.1,0,0.2,0
	s0.1,0,0.2,0c5.9-1.7,8.5-9.6,8.5-14.7C20.8,6.7,20.6,6.5,20.3,6.3z M12,20.2c-4.4-1.4-7.1-7.6-7.2-12.8L12,3.8l7.2,3.6
	C19.1,12.7,16.4,18.8,12,20.2z"/>
</svg>
