<?xml version="1.0" encoding="utf-8"?>
<!-- Generator: Adobe Illustrator 27.5.0, SVG Export Plug-In . SVG Version: 6.00 Build 0)  -->
<svg version="1.1" id="Capa_1" xmlns="http://www.w3.org/2000/svg" xmlns:xlink="http://www.w3.org/1999/xlink" x="0px" y="0px"
	 viewBox="0 0 24 24" style="enable-background:new 0 0 24 24;" xml:space="preserve">
<style type="text/css">
	.st0{fill:none;}
</style>
<path  d="M18,20.8c-0.1,0-0.2,0-0.3-0.1L12,17.8l-5.7,2.8c-0.3,0.1-0.6,0.1-0.8-0.1s-0.3-0.5-0.3-0.8l1.4-5.6L2.4,9.5
	C2.3,9.3,2.2,9,2.3,8.7c0.1-0.3,0.4-0.4,0.6-0.5L9,7.8l2.3-5.1c0.2-0.5,1.1-0.5,1.4,0L15,7.8l6.1,0.5c0.3,0,0.5,0.2,0.6,0.5
	c0.1,0.3,0.1,0.6-0.1,0.8l-4.2,4.7l1.4,5.6c0.1,0.3,0,0.6-0.3,0.8C18.3,20.7,18.2,20.8,18,20.8z M12,16.2c0.1,0,0.2,0,0.3,0.1
	l4.5,2.3l-1.1-4.4c-0.1-0.2,0-0.5,0.2-0.7l3.5-3.9l-5-0.4c-0.3,0-0.5-0.2-0.6-0.4l-1.8-4l-1.8,4c-0.1,0.2-0.4,0.4-0.6,0.4l-5,0.4
	l3.5,3.9c0.2,0.2,0.2,0.4,0.2,0.7l-1.1,4.4l4.5-2.3C11.8,16.3,11.9,16.2,12,16.2z"/>
</svg>
