<?xml version="1.0" encoding="utf-8"?>
<!-- Generator: Adobe Illustrator 27.5.0, SVG Export Plug-In . SVG Version: 6.00 Build 0)  -->
<svg version="1.1" id="Capa_1" xmlns="http://www.w3.org/2000/svg" xmlns:xlink="http://www.w3.org/1999/xlink" x="0px" y="0px"
	 viewBox="0 0 31.9 34.9" style="enable-background:new 0 0 31.9 34.9;" xml:space="preserve">
<style type="text/css">
	.st0{fill:none;}
</style>
<g>
	<path class="" d="M31.1,6.1C31.1,6,31,6,31,5.9l-5.3-5.3c0,0-0.1-0.1-0.1-0.1V0.5h-0.4c0,0-0.1,0-0.1,0H9.4
		c-1.7,0-3.1,1.4-3.1,3.1v8H3.6c-1.6,0-2.9,1.3-2.9,2.8c0,0,0,0.1,0,0.1c0,0.1,0,0.2,0,0.3v11.8c0,1.5,1.2,2.7,2.7,2.7h3v2.1
		c0,1.7,1.4,3.1,3.1,3.1h18.8c1.7,0,3.1-1.4,3.1-3.1V6.1H31.1z M29,6.1h-3.4V2.7L29,6.1z M2.2,14.5c0-0.8,0.6-1.4,1.4-1.4h2.7v3
		l-2.7,0c-0.7,0-1.4-0.5-1.5-1.3v-0.1V14.5z M2.2,26.6v-9.5c0.4,0.2,0.9,0.4,1.5,0.4l3.4,0c0,0,0,0,0,0s0,0,0,0l18.2,0
		c0.6,0,1.2,0.5,1.2,1.2v8c0,0.6-0.5,1.2-1.2,1.2H7.3H3.4C2.7,27.8,2.2,27.3,2.2,26.6z M29.7,31.4c0,0.9-0.7,1.6-1.6,1.6H9.4
		c-0.9,0-1.6-0.7-1.6-1.6v-2.1h17.5c1.5,0,2.7-1.2,2.7-2.7v-8c0-1.5-1.2-2.7-2.7-2.7L7.8,16V3.5C7.8,2.7,8.5,2,9.4,2h14.7v5.6h5.6
		V31.4z"/>
	<path class="" d="M7,25.5c0,0.2,0.1,0.3,0.2,0.4c0.1,0,0.1,0.1,0.2,0.1c0.1,0,0.1,0,0.2,0c0.1,0,0.2,0,0.3-0.1
		c0.1,0,0.2-0.1,0.2-0.2l1.4-1.9l1.4,1.9c0.1,0.1,0.1,0.1,0.2,0.2c0.1,0,0.2,0.1,0.3,0.1c0.1,0,0.3,0,0.4-0.1
		c0.1-0.1,0.2-0.2,0.2-0.4c0-0.2,0-0.3-0.1-0.5l-1.6-2.2l1.6-2.2c0.1-0.1,0.1-0.3,0.1-0.5c0-0.2-0.1-0.3-0.2-0.4
		c-0.1-0.1-0.3-0.1-0.5-0.1c-0.2,0-0.3,0.1-0.4,0.2l-1.4,1.9l-1.4-1.9c-0.1-0.1-0.2-0.2-0.4-0.2c-0.2,0-0.3,0-0.5,0.1
		C7.1,19.9,7,20,7,20.2c0,0.2,0,0.3,0.1,0.5l1.6,2.2L7.1,25C7,25.1,7,25.3,7,25.5z"/>
	<path class="" d="M17.3,25.8c0.1-0.1,0.2-0.3,0.2-0.4s-0.1-0.3-0.2-0.4c-0.1-0.1-0.3-0.2-0.4-0.2h-1.5v-4.5
		c0-0.2-0.1-0.3-0.2-0.4c-0.1-0.1-0.3-0.2-0.4-0.2c-0.2,0-0.3,0.1-0.4,0.2c-0.1,0.1-0.2,0.3-0.2,0.4V26h2.7
		C17.1,26,17.2,25.9,17.3,25.8z"/>
	<path class="" d="M20.6,23c0.2,0.1,0.4,0.1,0.7,0.1h0.5c0.1,0,0.2,0,0.3,0.1c0.1,0,0.2,0.1,0.3,0.2c0.1,0.1,0.1,0.2,0.2,0.3
		c0,0.1,0.1,0.2,0.1,0.3c0,0.2-0.1,0.4-0.2,0.6c-0.2,0.2-0.4,0.2-0.6,0.2h-1.5c-0.2,0-0.3,0.1-0.4,0.2c-0.1,0.1-0.2,0.3-0.2,0.4
		s0.1,0.3,0.2,0.4c0.1,0.1,0.3,0.2,0.4,0.2h1.5c0.3,0,0.5-0.1,0.8-0.2c0.2-0.1,0.5-0.3,0.6-0.4c0.2-0.2,0.3-0.4,0.4-0.6
		c0.1-0.2,0.2-0.5,0.2-0.8c0-0.3-0.1-0.5-0.2-0.8c-0.1-0.2-0.2-0.5-0.4-0.6c-0.2-0.2-0.4-0.3-0.6-0.4c-0.2-0.1-0.5-0.2-0.7-0.2h0
		h-0.5c-0.2,0-0.3-0.1-0.4-0.2s-0.2-0.2-0.2-0.4s0.1-0.3,0.2-0.4s0.2-0.2,0.4-0.2h1.4c0.2,0,0.3-0.1,0.4-0.2
		c0.1-0.1,0.2-0.3,0.2-0.4s-0.1-0.3-0.2-0.4c-0.1-0.1-0.3-0.2-0.4-0.2h-1.4c-0.2,0-0.5,0-0.7,0.1c-0.2,0.1-0.4,0.2-0.6,0.4
		c-0.2,0.2-0.3,0.4-0.4,0.6s-0.1,0.4-0.1,0.7c0,0.5,0.2,0.9,0.5,1.2C20.2,22.8,20.4,22.9,20.6,23z"/>
	<path class="" d="M21.9,5.3H10.2C9.8,5.3,9.5,5.6,9.5,6v5.7c0,0.4,0.3,0.8,0.8,0.8h11.7c0.4,0,0.8-0.3,0.8-0.8V6
		C22.7,5.6,22.4,5.3,21.9,5.3z M21.2,7.3h-6.5V6.8h6.5V7.3z M13.2,6.8v0.6H11V6.8H13.2z M11,8.8h2.2V11H11V8.8z M14.7,11V8.8h6.5V11
		H14.7z"/>
</g>
</svg>
