<?xml version="1.0" encoding="utf-8"?>
<!-- Generator: Adobe Illustrator 27.5.0, SVG Export Plug-In . SVG Version: 6.00 Build 0)  -->
<svg version="1.1" id="Capa_1" xmlns="http://www.w3.org/2000/svg" xmlns:xlink="http://www.w3.org/1999/xlink" x="0px" y="0px"
	 viewBox="0 0 24 24" style="enable-background:new 0 0 24 24;" xml:space="preserve">
<style type="text/css">
	.st0{fill:none;}
</style>
<path class="st0" d="M14.2,19.8c-0.1,0-0.2,0-0.3-0.1l-4.5-2.2C9.2,17.4,9,17.1,9,16.8v-4.3L5.4,6.7c-0.1-0.2-0.2-0.5,0-0.8
	C5.5,5.7,5.7,5.6,6,5.6h12c0.3,0,0.5,0.1,0.7,0.4c0.1,0.2,0.1,0.5,0,0.8L15,12.5v6.5c0,0.3-0.1,0.5-0.4,0.6
	C14.5,19.8,14.4,19.8,14.2,19.8z M17.4,0H6.6C2.9,0,0,2.9,0,6.6v10.9C0,21.1,2.9,24,6.6,24h10.9c3.6,0,6.6-2.9,6.6-6.6V6.6
	C24,2.9,21.1,0,17.4,0z"/>
</svg>
