<?xml version="1.0" encoding="utf-8"?>
<!-- Generator: Adobe Illustrator 27.5.0, SVG Export Plug-In . SVG Version: 6.00 Build 0)  -->
<svg version="1.1" id="Capa_1" xmlns="http://www.w3.org/2000/svg" xmlns:xlink="http://www.w3.org/1999/xlink" x="0px" y="0px"
	 viewBox="0 0 24 24" style="enable-background:new 0 0 24 24;" xml:space="preserve">
<style type="text/css">
	.st0{fill:none;}
</style>
<path  d="M20.7,3.6c-0.1-0.2-0.4-0.4-0.7-0.4H4c-0.3,0-0.5,0.1-0.7,0.4c-0.1,0.2-0.1,0.5,0,0.8l4.9,7.8V18
	c0,0.3,0.2,0.5,0.4,0.7l6,3c0.1,0.1,0.2,0.1,0.3,0.1c0.1,0,0.3,0,0.4-0.1c0.2-0.1,0.4-0.4,0.4-0.6v-8.8l4.9-7.8
	C20.8,4.2,20.8,3.9,20.7,3.6z M14.4,11.6c-0.1,0.1-0.1,0.3-0.1,0.4v7.8l-4.5-2.2V12c0-0.1,0-0.3-0.1-0.4L5.4,4.8h13.3L14.4,11.6z"/>
</svg>
