<?xml version="1.0" encoding="utf-8"?>
<!-- Generator: Adobe Illustrator 27.5.0, SVG Export Plug-In . SVG Version: 6.00 Build 0)  -->
<svg version="1.1" id="Capa_1" xmlns="http://www.w3.org/2000/svg" xmlns:xlink="http://www.w3.org/1999/xlink" x="0px" y="0px"
	 viewBox="0 0 24 24" style="enable-background:new 0 0 24 24;" xml:space="preserve">
<style type="text/css">
	.st0{fill:none;}
</style>
<path class="st0" d="M12,2.2c-5.4,0-9.8,4.4-9.8,9.8s4.4,9.8,9.8,9.8s9.8-4.4,9.8-9.8S17.4,2.2,12,2.2z M18.5,14.8
	C18.4,15,18.2,15,18,15s-0.4-0.1-0.5-0.2L12,9.3l-5.5,5.5c-0.3,0.3-0.8,0.3-1.1,0s-0.3-0.8,0-1.1l6-6c0.3-0.3,0.8-0.3,1.1,0l6,6
	C18.8,14,18.8,14.5,18.5,14.8z"/>
</svg>
