<?xml version="1.0" encoding="utf-8"?>
<!-- Generator: Adobe Illustrator 27.5.0, SVG Export Plug-In . SVG Version: 6.00 Build 0)  -->
<svg version="1.1" id="Capa_1" xmlns="http://www.w3.org/2000/svg" xmlns:xlink="http://www.w3.org/1999/xlink" x="0px" y="0px"
	 viewBox="0 0 24 24" style="enable-background:new 0 0 24 24;" xml:space="preserve">
<style type="text/css">
	.st0{fill:none;}
</style>
<path  d="M14.5,7.5c0.3-0.3,0.3-0.8,0-1.1c-0.3-0.3-0.8-0.3-1.1,0L14.5,7.5z M9,12l-0.5-0.5c-0.3,0.3-0.3,0.8,0,1.1L9,12
	z M13.5,17.5c0.3,0.3,0.8,0.3,1.1,0s0.3-0.8,0-1.1L13.5,17.5z M13.5,6.5l-5,5l1.1,1.1l5-5L13.5,6.5z M8.5,12.5l5,5l1.1-1.1l-5-5
	L8.5,12.5z M20.2,12c0,4.6-3.7,8.2-8.2,8.2v1.5c5.4,0,9.8-4.4,9.8-9.8H20.2z M12,20.2c-4.6,0-8.2-3.7-8.2-8.2H2.2
	c0,5.4,4.4,9.8,9.8,9.8V20.2z M3.8,12c0-4.6,3.7-8.2,8.2-8.2V2.2c-5.4,0-9.8,4.4-9.8,9.8H3.8z M12,3.8c4.6,0,8.2,3.7,8.2,8.2h1.5
	c0-5.4-4.4-9.8-9.8-9.8V3.8z"/>
</svg>
