<?xml version="1.0" encoding="utf-8"?>
<!-- Generator: Adobe Illustrator 27.5.0, SVG Export Plug-In . SVG Version: 6.00 Build 0)  -->
<svg version="1.1" id="Capa_1" xmlns="http://www.w3.org/2000/svg" xmlns:xlink="http://www.w3.org/1999/xlink" x="0px" y="0px"
	 viewBox="0 0 24 24" style="enable-background:new 0 0 24 24;" xml:space="preserve">
<style type="text/css">
	.st0{fill:none;}
</style>
<path class="st0" d="M21.8,12c0-5.4-4.4-9.8-9.8-9.8S2.2,6.6,2.2,12s4.4,9.8,9.8,9.8S21.8,17.4,21.8,12z M9.2,18.5
	C9,18.4,9,18.2,9,18s0.1-0.4,0.2-0.5l5.5-5.5L9.2,6.5c-0.3-0.3-0.3-0.8,0-1.1s0.8-0.3,1.1,0l6,6c0.3,0.3,0.3,0.8,0,1.1l-6,6
	C10,18.8,9.5,18.8,9.2,18.5z"/>
</svg>
