<?xml version="1.0" encoding="utf-8"?>
<!-- Generator: Adobe Illustrator 27.5.0, SVG Export Plug-In . SVG Version: 6.00 Build 0)  -->
<svg version="1.1" id="Capa_1" xmlns="http://www.w3.org/2000/svg" xmlns:xlink="http://www.w3.org/1999/xlink" x="0px" y="0px"
	 viewBox="0 0 24 24" style="enable-background:new 0 0 24 24;" xml:space="preserve">
<style type="text/css">
	.st0{fill:none;}
</style>
<path class="st0" d="M2.2,12c0,5.4,4.4,9.8,9.8,9.8s9.8-4.4,9.8-9.8S17.4,2.2,12,2.2S2.2,6.6,2.2,12z M14.8,5.5C15,5.6,15,5.8,15,6
	S15,6.4,14.8,6.5L9.3,12l5.5,5.5c0.3,0.3,0.3,0.8,0,1.1s-0.8,0.3-1.1,0l-6-6c-0.3-0.3-0.3-0.8,0-1.1l6-6C14,5.2,14.5,5.2,14.8,5.5z"
	/>
</svg>
