<?xml version="1.0" encoding="utf-8"?>
<!-- Generator: Adobe Illustrator 27.5.0, SVG Export Plug-In . SVG Version: 6.00 Build 0)  -->
<svg version="1.1" id="Capa_1" xmlns="http://www.w3.org/2000/svg" xmlns:xlink="http://www.w3.org/1999/xlink" x="0px" y="0px"
	 viewBox="0 0 24 24" style="enable-background:new 0 0 24 24;" xml:space="preserve">
<style type="text/css">
	.st0{fill:none;}
</style>
<path class="st0" d="M12,21.8c5.4,0,9.8-4.4,9.8-9.8S17.4,2.2,12,2.2S2.2,6.6,2.2,12S6.6,21.8,12,21.8z M5.5,9.2C5.6,9,5.8,9,6,9
	S6.4,9,6.5,9.2l5.5,5.5l5.5-5.5c0.3-0.3,0.8-0.3,1.1,0s0.3,0.8,0,1.1l-6,6c-0.3,0.3-0.8,0.3-1.1,0l-6-6C5.2,10,5.2,9.5,5.5,9.2z"/>
</svg>
