<?xml version="1.0" encoding="utf-8"?>
<!-- Generator: Adobe Illustrator 27.5.0, SVG Export Plug-In . SVG Version: 6.00 Build 0)  -->
<svg version="1.1" id="Capa_1" xmlns="http://www.w3.org/2000/svg" xmlns:xlink="http://www.w3.org/1999/xlink" x="0px" y="0px"
	 viewBox="0 0 24 24" style="enable-background:new 0 0 24 24;" xml:space="preserve">
<style type="text/css">
	.st0{fill:none;}
</style>
<path  d="M14.2,13c0,1.2-1,2.2-2.2,2.2v1.5c2.1,0,3.8-1.7,3.8-3.8H14.2z M12,15.2c-1.2,0-2.2-1-2.2-2.2H8.2
	c0,2.1,1.7,3.8,3.8,3.8V15.2z M9.8,13c0-1.2,1-2.2,2.2-2.2V9.2c-2.1,0-3.8,1.7-3.8,3.8H9.8z M12,10.8c1.2,0,2.2,1,2.2,2.2h1.5
	c0-2.1-1.7-3.8-3.8-3.8V10.8z M20.2,9v8h1.5V9H20.2z M19,18.2H5v1.5h14V18.2z M3.8,17V9H2.2v8H3.8z M5,7.8h2.5V6.2H5V7.8z M16.5,7.8
	H19V6.2h-2.5V7.8z M9.5,5.8h5V4.2h-5V5.8z M14.8,6c0,1,0.8,1.8,1.8,1.8V6.2c-0.1,0-0.2-0.1-0.2-0.2H14.8z M7.5,7.8
	c1,0,1.8-0.8,1.8-1.8H7.8c0,0.1-0.1,0.2-0.2,0.2V7.8z M16.2,6c0-1-0.8-1.8-1.8-1.8v1.5c0.1,0,0.2,0.1,0.2,0.2H16.2z M9.2,6
	c0-0.1,0.1-0.2,0.2-0.2V4.2C8.5,4.2,7.8,5,7.8,6H9.2z M5,18.2c-0.7,0-1.2-0.6-1.2-1.2H2.2c0,1.5,1.2,2.8,2.8,2.8V18.2z M20.2,17
	c0,0.7-0.6,1.2-1.2,1.2v1.5c1.5,0,2.8-1.2,2.8-2.8H20.2z M21.8,9c0-1.5-1.2-2.8-2.8-2.8v1.5c0.7,0,1.2,0.6,1.2,1.2H21.8z M3.8,9
	c0-0.7,0.6-1.2,1.2-1.2V6.2C3.5,6.2,2.2,7.5,2.2,9H3.8z"/>
</svg>
