<?xml version="1.0" encoding="utf-8"?>
<!-- Generator: Adobe Illustrator 27.5.0, SVG Export Plug-In . SVG Version: 6.00 Build 0)  -->
<svg version="1.1" id="Capa_1" xmlns="http://www.w3.org/2000/svg" xmlns:xlink="http://www.w3.org/1999/xlink" x="0px" y="0px"
	 viewBox="0 0 24 24" style="enable-background:new 0 0 24 24;" xml:space="preserve">
<style type="text/css">
	.st0{fill:#FFFFFF;}
</style>
<g>
	<path  d="M12.2,9.5h-0.5c-1.5,0-2.8,1.2-2.8,2.8V16c0,0.5,0.4,0.8,0.8,0.9v2.7c0,0.7,0.6,1.2,1.3,1.2h1.8
		c0.7,0,1.3-0.6,1.3-1.2v-2.7c0.5,0,0.8-0.4,0.8-0.8v-3.7C15,10.7,13.8,9.5,12.2,9.5z M10.5,12.2c0-0.7,0.6-1.2,1.2-1.2h0.5
		c0.7,0,1.2,0.6,1.2,1.2v3.1h-3V12.2z M12.7,19.2h-1.3v-2.4h1.3V19.2z"/>
	<path  d="M12,8.8c1.4,0,2.5-1.1,2.5-2.5c0-1.4-1.1-2.5-2.5-2.5c-1.4,0-2.5,1.1-2.5,2.5C9.5,7.7,10.6,8.8,12,8.8z
		 M12,5.3c0.5,0,1,0.4,1,1c0,0.5-0.4,1-1,1s-1-0.4-1-1C11,5.8,11.5,5.3,12,5.3z"/>
</g>
</svg>
