<?xml version="1.0" encoding="utf-8"?>
<!-- Generator: Adobe Illustrator 27.5.0, SVG Export Plug-In . SVG Version: 6.00 Build 0)  -->
<svg version="1.1" id="Capa_1" xmlns="http://www.w3.org/2000/svg" xmlns:xlink="http://www.w3.org/1999/xlink" x="0px" y="0px"
	 viewBox="0 0 24 24" style="enable-background:new 0 0 24 24;" xml:space="preserve">
<style type="text/css">
	.st0{fill:none;}
</style>
<path  d="M12,2.2c-5.4,0-9.8,4.4-9.8,9.8s4.4,9.8,9.8,9.8s9.8-4.4,9.8-9.8S17.4,2.2,12,2.2z M15.2,11.2H8.8
	C9,7.3,11.1,4.9,12,4C12.9,4.9,15,7.3,15.2,11.2z M10,4c-1.1,1.4-2.5,3.8-2.7,7.2H3.8C4.1,7.7,6.6,4.8,10,4z M3.8,12.8h3.5
	c0.2,3.4,1.6,5.8,2.7,7.2C6.6,19.2,4.1,16.3,3.8,12.8z M8.8,12.8h6.5c-0.2,4-2.3,6.4-3.2,7.3C11.1,19.1,9,16.7,8.8,12.8z M14,20
	c1.1-1.4,2.5-3.8,2.7-7.2h3.5C19.9,16.3,17.4,19.2,14,20z M16.7,11.2C16.5,7.8,15.2,5.4,14,4c3.3,0.8,5.9,3.7,6.2,7.2H16.7z"/>
</svg>
