<?xml version="1.0" encoding="utf-8"?>
<!-- Generator: Adobe Illustrator 27.5.0, SVG Export Plug-In . SVG Version: 6.00 Build 0)  -->
<svg version="1.1" id="Capa_1" xmlns="http://www.w3.org/2000/svg" xmlns:xlink="http://www.w3.org/1999/xlink" x="0px" y="0px"
	 viewBox="0 0 24 24" style="enable-background:new 0 0 24 24;" xml:space="preserve">
<style type="text/css">
	.st0{fill:none;}
</style>
<g>
	<path  d="M15.9,16.7l-1.2-5.5c-0.2-1-1.1-1.7-2.2-1.7h-1.1c-1,0-1.9,0.7-2.2,1.7l-1.2,5.5c-0.1,0.3,0,0.5,0.2,0.7
		c0.1,0.2,0.4,0.3,0.7,0.3h0.9v1.8c0,0.7,0.6,1.2,1.3,1.2h1.8c0.7,0,1.3-0.6,1.3-1.2v-1.8H15c0.2,0,0.5-0.1,0.7-0.3
		C15.8,17.2,15.9,16.9,15.9,16.7C15.9,16.7,15.9,16.7,15.9,16.7z M12.7,19.2h-1.3v-1.5h1.3V19.2z M13.4,16.2h-2.8H9.8l1-4.7
		c0.1-0.3,0.4-0.6,0.7-0.6h1.1c0.3,0,0.6,0.2,0.7,0.6l1,4.7H13.4z"/>
	<path  d="M12,8.8c1.4,0,2.5-1.1,2.5-2.5S13.4,3.8,12,3.8c-1.4,0-2.5,1.1-2.5,2.5S10.6,8.8,12,8.8z M12,5.3
		c0.5,0,1,0.4,1,1s-0.4,1-1,1s-1-0.4-1-1S11.5,5.3,12,5.3z"/>
</g>
</svg>
