<?xml version="1.0" encoding="utf-8"?>
<!-- Generator: Adobe Illustrator 27.5.0, SVG Export Plug-In . SVG Version: 6.00 Build 0)  -->
<svg version="1.1" id="Capa_1" xmlns="http://www.w3.org/2000/svg" xmlns:xlink="http://www.w3.org/1999/xlink" x="0px" y="0px"
	 viewBox="0 0 24 24" style="enable-background:new 0 0 24 24;" xml:space="preserve">
<style type="text/css">
	.st0{fill:none;}
</style>
<path  d="M19.9,7.9l-3.8-3.8c-0.5-0.5-1.2-0.8-1.9-0.8H6C4.5,3.2,3.2,4.5,3.2,6v12c0,1.5,1.2,2.8,2.8,2.8h12
	c1.5,0,2.8-1.2,2.8-2.8V9.8C20.8,9.1,20.5,8.4,19.9,7.9z M14.2,19.2H9.8v-3.5h4.5V19.2z M19.2,18c0,0.7-0.6,1.2-1.2,1.2h-2.2V15
	c0-0.4-0.3-0.8-0.8-0.8H9c-0.4,0-0.8,0.3-0.8,0.8v4.2H6c-0.7,0-1.2-0.6-1.2-1.2V6c0-0.7,0.6-1.2,1.2-1.2h8.2c0.3,0,0.7,0.1,0.9,0.4
	l3.8,3.8c0.2,0.2,0.4,0.6,0.4,0.9V18z"/>
</svg>
