<?xml version="1.0" encoding="utf-8"?>
<!-- Generator: Adobe Illustrator 27.5.0, SVG Export Plug-In . SVG Version: 6.00 Build 0)  -->
<svg version="1.1" id="Capa_1" xmlns="http://www.w3.org/2000/svg" xmlns:xlink="http://www.w3.org/1999/xlink" x="0px" y="0px"
	 viewBox="0 0 24 24" style="enable-background:new 0 0 24 24;" xml:space="preserve">
<style type="text/css">
	.st0{fill:none;}
</style>
<path  d="M20,8.2h-3.2V4c0-1-0.8-1.8-1.8-1.8H9C8,2.2,7.2,3,7.2,4v4.2H4C3.6,8.2,3.2,8.6,3.2,9v9c0,0.4,0.3,0.8,0.8,0.8
	h3.2V21c0,0.4,0.3,0.8,0.8,0.8h8c0.4,0,0.8-0.3,0.8-0.8v-2.2H20c0.4,0,0.8-0.3,0.8-0.8V9C20.8,8.6,20.4,8.2,20,8.2z M8.8,4
	c0-0.1,0.1-0.2,0.2-0.2h6c0.1,0,0.2,0.1,0.2,0.2v4.2H8.8V4z M15.2,20.2H8.8v-4.5h6.5V20.2z M19.2,17.2h-2.5V15
	c0-0.4-0.3-0.8-0.8-0.8H8c-0.4,0-0.8,0.3-0.8,0.8v2.2H4.8V9.8h14.5V17.2z"/>
</svg>
