<?xml version="1.0" encoding="utf-8"?>
<!-- Generator: Adobe Illustrator 27.5.0, SVG Export Plug-In . SVG Version: 6.00 Build 0)  -->
<svg version="1.1" id="Capa_1" xmlns="http://www.w3.org/2000/svg" xmlns:xlink="http://www.w3.org/1999/xlink" x="0px" y="0px"
	 viewBox="0 0 24 24" style="enable-background:new 0 0 24 24;" xml:space="preserve">
<style type="text/css">
	.st0{fill:none;}
</style>
<path  d="M21.7,11.9c0-0.1,0-0.1,0-0.1l-2.8-7.3c-0.3-0.7-0.9-1.1-1.6-1.1H6.7C6,3.2,5.3,3.7,5.1,4.4l-2.8,7.3
	c0,0,0,0.1,0,0.1c0,0.1,0,0.1,0,0.2v6c0,1.5,1.2,2.8,2.8,2.8h14c1.5,0,2.8-1.2,2.8-2.8v-6C21.8,12,21.7,11.9,21.7,11.9z M6.5,4.9
	c0-0.1,0.1-0.2,0.2-0.2h10.6c0.1,0,0.2,0.1,0.2,0.2l2.4,6.3H16c-0.3,0-0.5,0.1-0.6,0.3l-1.8,2.7h-3.1l-1.3-2.6
	c-0.1-0.3-0.4-0.4-0.7-0.4H4.1L6.5,4.9z M20.2,18c0,0.7-0.6,1.2-1.2,1.2H5c-0.7,0-1.2-0.6-1.2-1.2v-5.2H8l1.3,2.6
	c0.1,0.3,0.4,0.4,0.7,0.4h4c0.3,0,0.5-0.1,0.6-0.3l1.8-2.7h3.8V18z"/>
</svg>
