<?xml version="1.0" encoding="utf-8"?>
<!-- Generator: Adobe Illustrator 27.5.0, SVG Export Plug-In . SVG Version: 6.00 Build 0)  -->
<svg version="1.1" id="Capa_1" xmlns="http://www.w3.org/2000/svg" xmlns:xlink="http://www.w3.org/1999/xlink" x="0px" y="0px"
	 viewBox="0 0 24 24" style="enable-background:new 0 0 24 24;" xml:space="preserve">
<style type="text/css">
	.st0{fill:none;}
</style>
<g>
	<path  d="M18,6.2h-2.2V5c0-1.5-1.2-2.8-2.8-2.8h-2C9.5,2.2,8.2,3.5,8.2,5v1.2H6C4.5,6.2,3.2,7.5,3.2,9v9
		c0,1.5,1.2,2.8,2.8,2.8h12c1.5,0,2.8-1.2,2.8-2.8V9C20.8,7.5,19.5,6.2,18,6.2z M9.8,5c0-0.7,0.6-1.2,1.2-1.2h2
		c0.7,0,1.2,0.6,1.2,1.2v1.2H9.8V5z M19.2,18c0,0.7-0.6,1.2-1.2,1.2H6c-0.7,0-1.2-0.6-1.2-1.2V9c0-0.7,0.6-1.2,1.2-1.2h12
		c0.7,0,1.2,0.6,1.2,1.2V18z"/>
	<path  d="M15.5,12.8h-2.8V10c0-0.4-0.3-0.8-0.8-0.8s-0.8,0.3-0.8,0.8v2.8H8.5c-0.4,0-0.8,0.3-0.8,0.8s0.3,0.8,0.8,0.8
		h2.8V17c0,0.4,0.3,0.8,0.8,0.8s0.8-0.3,0.8-0.8v-2.8h2.8c0.4,0,0.8-0.3,0.8-0.8S15.9,12.8,15.5,12.8z"/>
</g>
</svg>
