<?xml version="1.0" encoding="utf-8"?>
<!-- Generator: Adobe Illustrator 27.5.0, SVG Export Plug-In . SVG Version: 6.00 Build 0)  -->
<svg version="1.1" id="Capa_1" xmlns="http://www.w3.org/2000/svg" xmlns:xlink="http://www.w3.org/1999/xlink" x="0px" y="0px"
	 viewBox="0 0 24 24" style="enable-background:new 0 0 24 24;" xml:space="preserve">
<style type="text/css">
	.st0{fill:none;}
</style>
<path  d="M20.7,10.3c-0.5-0.6-1.3-1-2.1-1h-3.2L17,6.8c0.5-0.7,0.6-1.7,0.3-2.5s-1-1.5-1.9-1.7c-1-0.3-2.1,0.1-2.8,0.9
	l-5,5.8H4c-0.4,0-0.8,0.3-0.8,0.8v10c0,0.4,0.3,0.8,0.8,0.8h13.4c1.3,0,2.4-0.9,2.7-2.2l1.2-6C21.4,11.7,21.2,10.9,20.7,10.3z
	 M7.2,19.2H4.8v-8.5h2.5V19.2z M19.8,12.2l-1.2,6c-0.1,0.6-0.6,1-1.2,1H8.8v-9l5-5.9c0.3-0.4,0.8-0.5,1.3-0.4
	c0.4,0.1,0.7,0.4,0.9,0.8s0.1,0.8-0.1,1.1l-2.4,3.6c-0.2,0.2-0.2,0.5,0,0.8c0.1,0.2,0.4,0.4,0.7,0.4h4.6c0.4,0,0.7,0.2,1,0.5
	C19.8,11.5,19.9,11.9,19.8,12.2z"/>
</svg>
