<?xml version="1.0" encoding="utf-8"?>
<!-- Generator: Adobe Illustrator 27.5.0, SVG Export Plug-In . SVG Version: 6.00 Build 0)  -->
<svg version="1.1" id="Capa_1" xmlns="http://www.w3.org/2000/svg" xmlns:xlink="http://www.w3.org/1999/xlink" x="0px" y="0px"
	 viewBox="0 0 24 24" style="enable-background:new 0 0 24 24;" xml:space="preserve">
<style type="text/css">
	.st0{fill:none;}
</style>
<g>
	<path  d="M15.7,12.3c0-0.1,0.1-0.2,0.1-0.3s0-0.2-0.1-0.3c0-0.1-0.1-0.2-0.2-0.2l-4-4c-0.3-0.3-0.8-0.3-1.1,0
		s-0.3,0.8,0,1.1l2.7,2.7H3c-0.4,0-0.8,0.3-0.8,0.8s0.3,0.8,0.8,0.8h10.2l-2.7,2.7c-0.3,0.3-0.3,0.8,0,1.1c0.1,0.1,0.3,0.2,0.5,0.2
		s0.4-0.1,0.5-0.2l4-4C15.6,12.5,15.7,12.4,15.7,12.3z"/>
	<path  d="M18,3.2h-4c-0.4,0-0.8,0.3-0.8,0.8s0.3,0.8,0.8,0.8h4c0.7,0,1.2,0.6,1.2,1.2v12c0,0.7-0.6,1.2-1.2,1.2h-4
		c-0.4,0-0.8,0.3-0.8,0.8s0.3,0.8,0.8,0.8h4c1.5,0,2.8-1.2,2.8-2.8V6C20.8,4.5,19.5,3.2,18,3.2z"/>
</g>
</svg>
