<?xml version="1.0" encoding="utf-8"?>
<!-- Generator: Adobe Illustrator 27.5.0, SVG Export Plug-In . SVG Version: 6.00 Build 0)  -->
<svg version="1.1" id="Capa_1" xmlns="http://www.w3.org/2000/svg" xmlns:xlink="http://www.w3.org/1999/xlink" x="0px" y="0px"
	 viewBox="0 0 24 24" style="enable-background:new 0 0 24 24;" xml:space="preserve">
<style type="text/css">
	.st0{fill:none;}
</style>
<g>
	<path  d="M9,19.2H5c-0.7,0-1.2-0.6-1.2-1.2V6c0-0.7,0.6-1.2,1.2-1.2h4c0.4,0,0.8-0.3,0.8-0.8S9.4,3.2,9,3.2H5
		C3.5,3.2,2.2,4.5,2.2,6v12c0,1.5,1.2,2.8,2.8,2.8h4c0.4,0,0.8-0.3,0.8-0.8S9.4,19.2,9,19.2z"/>
	<path  d="M20.7,11.7c0-0.1-0.1-0.2-0.2-0.2l-4-4c-0.3-0.3-0.8-0.3-1.1,0s-0.3,0.8,0,1.1l2.7,2.7H8
		c-0.4,0-0.8,0.3-0.8,0.8s0.3,0.8,0.8,0.8h10.2l-2.7,2.7c-0.3,0.3-0.3,0.8,0,1.1c0.1,0.1,0.3,0.2,0.5,0.2s0.4-0.1,0.5-0.2l4-4
		c0.1-0.1,0.1-0.2,0.2-0.2c0-0.1,0.1-0.2,0.1-0.3S20.7,11.8,20.7,11.7z"/>
</g>
</svg>
