<?xml version="1.0" encoding="utf-8"?>
<!-- Generator: Adobe Illustrator 27.5.0, SVG Export Plug-In . SVG Version: 6.00 Build 0)  -->
<svg version="1.1" id="Capa_1" xmlns="http://www.w3.org/2000/svg" xmlns:xlink="http://www.w3.org/1999/xlink" x="0px" y="0px"
	 viewBox="0 0 24 24" style="enable-background:new 0 0 24 24;" xml:space="preserve">
<style type="text/css">
	.st0{fill:none;}
</style>
<path  d="M18,21.8c-0.2,0-0.4-0.1-0.5-0.2L12,16.1l-5.5,5.5c-0.2,0.2-0.5,0.3-0.8,0.2c-0.3-0.1-0.5-0.4-0.5-0.7V6
	c0-1.5,1.2-2.8,2.8-2.8h8c1.5,0,2.8,1.2,2.8,2.8v15c0,0.3-0.2,0.6-0.5,0.7C18.2,21.7,18.1,21.8,18,21.8z M12,14.2
	c0.2,0,0.4,0.1,0.5,0.2l4.7,4.7V6c0-0.7-0.6-1.2-1.2-1.2H8C7.3,4.8,6.8,5.3,6.8,6v13.2l4.7-4.7C11.6,14.3,11.8,14.2,12,14.2z"/>
</svg>
