<?xml version="1.0" encoding="utf-8"?>
<!-- Generator: Adobe Illustrator 27.5.0, SVG Export Plug-In . SVG Version: 6.00 Build 0)  -->
<svg version="1.1" id="Capa_1" xmlns="http://www.w3.org/2000/svg" xmlns:xlink="http://www.w3.org/1999/xlink" x="0px" y="0px"
	 viewBox="0 0 24 24" style="enable-background:new 0 0 24 24;" xml:space="preserve">
<style type="text/css">
	.st0{fill:none;}
</style>
<g>
	<path  d="M16,11.2h-3.2V8c0-0.4-0.3-0.8-0.8-0.8S11.2,7.6,11.2,8v3.2H8c-0.4,0-0.8,0.3-0.8,0.8s0.3,0.8,0.8,0.8h3.2V16
		c0,0.4,0.3,0.8,0.8,0.8s0.8-0.3,0.8-0.8v-3.2H16c0.4,0,0.8-0.3,0.8-0.8S16.4,11.2,16,11.2z"/>
	<path  d="M12,2.2c-5.4,0-9.8,4.4-9.8,9.8c0,5.4,4.4,9.8,9.8,9.8c5.4,0,9.8-4.4,9.8-9.8C21.8,6.6,17.4,2.2,12,2.2z
		 M12,20.2c-4.6,0-8.2-3.7-8.2-8.2c0-4.6,3.7-8.2,8.2-8.2c4.6,0,8.2,3.7,8.2,8.2C20.2,16.6,16.6,20.2,12,20.2z"/>
</g>
</svg>
