<?xml version="1.0" encoding="utf-8"?>
<!-- Generator: Adobe Illustrator 27.5.0, SVG Export Plug-In . SVG Version: 6.00 Build 0)  -->
<svg version="1.1" id="Capa_1" xmlns="http://www.w3.org/2000/svg" xmlns:xlink="http://www.w3.org/1999/xlink" x="0px" y="0px"
	 viewBox="0 0 24 24" style="enable-background:new 0 0 24 24;" xml:space="preserve">
<style type="text/css">
	.st0{fill:none;}
</style>
<g>
	<path  d="M16,10.8c0.4,0,0.8-0.3,0.8-0.8S16.4,9.2,16,9.2h0c-0.4,0-0.7,0.3-0.7,0.8S15.6,10.8,16,10.8z"/>
	<path  d="M12,10.8c0.4,0,0.8-0.3,0.8-0.8S12.4,9.2,12,9.2h0c-0.4,0-0.7,0.3-0.7,0.8S11.6,10.8,12,10.8z"/>
	<path  d="M20,3.2H4C3.6,3.2,3.2,3.6,3.2,4v12c0,0.4,0.3,0.8,0.8,0.8h2.2V21c0,0.3,0.2,0.6,0.5,0.7
		c0.1,0,0.2,0.1,0.3,0.1c0.2,0,0.4-0.1,0.5-0.2l4.8-4.8H20c0.4,0,0.8-0.3,0.8-0.8V4C20.8,3.6,20.4,3.2,20,3.2z M19.2,15.2H12
		c-0.2,0-0.4,0.1-0.5,0.2l-3.7,3.7V16c0-0.4-0.3-0.8-0.8-0.8H4.8V4.8h14.5V15.2z"/>
	<path  d="M8,10.8c0.4,0,0.8-0.3,0.8-0.8S8.4,9.2,8,9.2h0c-0.4,0-0.7,0.3-0.7,0.8S7.6,10.8,8,10.8z"/>
</g>
</svg>
