<?xml version="1.0" encoding="utf-8"?>
<!-- Generator: Adobe Illustrator 27.5.0, SVG Export Plug-In . SVG Version: 6.00 Build 0)  -->
<svg version="1.1" id="Capa_1" xmlns="http://www.w3.org/2000/svg" xmlns:xlink="http://www.w3.org/1999/xlink" x="0px" y="0px"
	 viewBox="0 0 24 24" style="enable-background:new 0 0 24 24;" xml:space="preserve">
<style type="text/css">
	.st0{fill:none;}
</style>
<g>
	<path  d="M20,11.2H4c-0.4,0-0.8,0.3-0.8,0.8s0.3,0.8,0.8,0.8h16c0.4,0,0.8-0.3,0.8-0.8S20.4,11.2,20,11.2z"/>
	<path  d="M4,7.8h16c0.4,0,0.8-0.3,0.8-0.8S20.4,6.2,20,6.2H4C3.6,6.2,3.2,6.6,3.2,7S3.6,7.8,4,7.8z"/>
	<path  d="M20,16.2H4c-0.4,0-0.8,0.3-0.8,0.8s0.3,0.8,0.8,0.8h16c0.4,0,0.8-0.3,0.8-0.8S20.4,16.2,20,16.2z"/>
</g>
</svg>
