<?xml version="1.0" encoding="utf-8"?>
<!-- Generator: Adobe Illustrator 27.5.0, SVG Export Plug-In . SVG Version: 6.00 Build 0)  -->
<svg version="1.1" id="Capa_1" xmlns="http://www.w3.org/2000/svg" xmlns:xlink="http://www.w3.org/1999/xlink" x="0px" y="0px"
	 viewBox="0 0 24 24" style="enable-background:new 0 0 24 24;" xml:space="preserve">
<style type="text/css">
	.st0{fill:none;}
</style>
<g>
	<path  d="M21.5,20.5l-18-18c-0.3-0.3-0.8-0.3-1.1,0s-0.3,0.8,0,1.1l18,18c0.1,0.1,0.3,0.2,0.5,0.2s0.4-0.1,0.5-0.2
		C21.8,21.2,21.8,20.8,21.5,20.5z"/>
	<path  d="M17.6,14.2c0.1,0,0.1,0,0.2,0c0.3,0,0.6-0.2,0.7-0.6c0.1-0.5,0.2-1.1,0.2-1.7c0-0.4-0.3-0.8-0.8-0.8
		s-0.8,0.3-0.8,0.8c0,0.4-0.1,0.9-0.2,1.3C17,13.7,17.2,14.1,17.6,14.2z"/>
	<path  d="M8.9,5.7c0.4,0.1,0.8-0.1,1-0.5C10.2,4.4,11,3.8,12,3.8c1.2,0,2.2,1,2.2,2.2v4.5c0,0.4,0.3,0.8,0.8,0.8
		s0.8-0.3,0.8-0.8V6c0-2.1-1.7-3.8-3.8-3.8c-1.6,0-3,1-3.5,2.5C8.3,5.1,8.5,5.6,8.9,5.7z"/>
	<path  d="M15,20.2h-2.2v-1.5c0.3,0,0.6-0.1,0.9-0.2c0.4-0.1,0.6-0.5,0.5-0.9c-0.1-0.4-0.5-0.6-0.9-0.5
		c-0.4,0.1-0.9,0.2-1.3,0.2c-2.9,0-5.2-2.4-5.2-5.2c0-0.4-0.3-0.8-0.8-0.8S5.2,11.6,5.2,12c0,3.5,2.6,6.3,6,6.7v1.5H9
		c-0.4,0-0.8,0.3-0.8,0.8s0.3,0.8,0.8,0.8h6c0.4,0,0.8-0.3,0.8-0.8S15.4,20.2,15,20.2z"/>
</g>
</svg>
