<?xml version="1.0" encoding="utf-8"?>
<!-- Generator: Adobe Illustrator 27.5.0, SVG Export Plug-In . SVG Version: 6.00 Build 0)  -->
<svg version="1.1" id="Capa_1" xmlns="http://www.w3.org/2000/svg" xmlns:xlink="http://www.w3.org/1999/xlink" x="0px" y="0px"
	 viewBox="0 0 24 24" style="enable-background:new 0 0 24 24;" xml:space="preserve">
<style type="text/css">
	.st0{fill:none;}
</style>
<g>
	<path  d="M12,15.8c2.1,0,3.8-1.7,3.8-3.8V6c0-2.1-1.7-3.8-3.8-3.8C9.9,2.2,8.2,3.9,8.2,6v6C8.2,14.1,9.9,15.8,12,15.8z
		 M9.8,6c0-1.2,1-2.2,2.2-2.2c1.2,0,2.2,1,2.2,2.2v6c0,1.2-1,2.2-2.2,2.2c-1.2,0-2.2-1-2.2-2.2V6z"/>
	<path  d="M18.8,12c0-0.4-0.3-0.8-0.8-0.8s-0.8,0.3-0.8,0.8c0,2.9-2.4,5.2-5.2,5.2c-2.9,0-5.2-2.4-5.2-5.2
		c0-0.4-0.3-0.8-0.8-0.8S5.2,11.6,5.2,12c0,3.5,2.6,6.3,6,6.7v1.5H9c-0.4,0-0.8,0.3-0.8,0.8s0.3,0.8,0.8,0.8h6
		c0.4,0,0.8-0.3,0.8-0.8s-0.3-0.8-0.8-0.8h-2.2v-1.5C16.1,18.3,18.8,15.5,18.8,12z"/>
</g>
</svg>
