<?xml version="1.0" encoding="utf-8"?>
<!-- Generator: Adobe Illustrator 27.5.0, SVG Export Plug-In . SVG Version: 6.00 Build 0)  -->
<svg version="1.1" id="Capa_1" xmlns="http://www.w3.org/2000/svg" xmlns:xlink="http://www.w3.org/1999/xlink" x="0px" y="0px"
	 viewBox="0 0 24 24" style="enable-background:new 0 0 24 24;" xml:space="preserve">
<style type="text/css">
	.st0{fill:none;}
</style>
<path  d="M17,19.8c-0.4,0-0.8-0.3-0.8-0.8s0.3-0.8,0.8-0.8c1.8,0,3.2-1.5,3.2-3.2s-1.5-3.2-3.2-3.2
	c-0.4,0-0.8-0.3-0.8-0.8v-1c0-2.3-1.9-4.2-4.2-4.2c-2.3,0-4.2,1.9-4.2,4.2v0.3c0.9,0.1,1.7,0.5,2.4,1.1c0.3,0.3,0.3,0.7,0.1,1.1
	c-0.3,0.3-0.7,0.3-1.1,0.1C8.6,12,7.8,11.8,7,11.8c-1.8,0-3.2,1.5-3.2,3.2s1.5,3.2,3.2,3.2c0.4,0,0.8,0.3,0.8,0.8S7.4,19.8,7,19.8
	c-2.6,0-4.8-2.1-4.8-4.8c0-2.4,1.7-4.3,4-4.7V10c0-3.2,2.6-5.8,5.8-5.8c3.2,0,5.8,2.6,5.8,5.8v0.3c2.3,0.4,4,2.3,4,4.7
	C21.8,17.6,19.6,19.8,17,19.8z"/>
</svg>
