<?xml version="1.0" encoding="utf-8"?>
<!-- Generator: Adobe Illustrator 27.5.0, SVG Export Plug-In . SVG Version: 6.00 Build 0)  -->
<svg version="1.1" id="Capa_1" xmlns="http://www.w3.org/2000/svg" xmlns:xlink="http://www.w3.org/1999/xlink" x="0px" y="0px"
	 viewBox="0 0 24 24" style="enable-background:new 0 0 24 24;" xml:space="preserve">
<style type="text/css">
	.st0{fill:none;}
</style>
<g>
	<path  d="M12.5,10.5c-0.1-0.1-0.2-0.1-0.2-0.2c-0.2-0.1-0.4-0.1-0.6,0c-0.1,0-0.2,0.1-0.2,0.2l-4,4
		c-0.3,0.3-0.3,0.8,0,1.1s0.8,0.3,1.1,0l2.7-2.7V21c0,0.4,0.3,0.8,0.8,0.8s0.8-0.3,0.8-0.8v-8.2l2.7,2.7c0.3,0.3,0.8,0.3,1.1,0
		s0.3-0.8,0-1.1L12.5,10.5z"/>
	<path  d="M17.8,8.3V8c0-3.2-2.6-5.8-5.8-5.8C8.8,2.2,6.2,4.8,6.2,8v0.3c-2.3,0.4-4,2.3-4,4.7c0,1.7,0.9,3.3,2.4,4.1
		c0.4,0.2,0.8,0.1,1-0.3c0.2-0.4,0.1-0.8-0.3-1c-1-0.6-1.6-1.7-1.6-2.8c0-1.8,1.5-3.2,3.2-3.2c0.3,0,0.7,0.1,1,0.2
		C8.4,10,8.8,9.8,9,9.4C9.1,9,8.9,8.6,8.5,8.5C8.2,8.4,8,8.3,7.8,8.3V8c0-2.3,1.9-4.2,4.2-4.2c2.3,0,4.2,1.9,4.2,4.2v1
		c0,0.4,0.3,0.8,0.8,0.8c1.8,0,3.2,1.5,3.2,3.2c0,1.2-0.6,2.2-1.6,2.8c-0.4,0.2-0.5,0.7-0.3,1c0.1,0.2,0.4,0.4,0.7,0.4
		c0.1,0,0.3,0,0.4-0.1c1.5-0.8,2.4-2.4,2.4-4.1C21.8,10.6,20,8.7,17.8,8.3z"/>
</g>
</svg>
