<?xml version="1.0" encoding="utf-8"?>
<!-- Generator: Adobe Illustrator 27.5.0, SVG Export Plug-In . SVG Version: 6.00 Build 0)  -->
<svg version="1.1" id="Capa_1" xmlns="http://www.w3.org/2000/svg" xmlns:xlink="http://www.w3.org/1999/xlink" x="0px" y="0px"
	 viewBox="0 0 24 24" style="enable-background:new 0 0 24 24;" xml:space="preserve">
<style type="text/css">
	.st0{fill:none;}
</style>
<path class="st0" d="M17.4,0H6.6C2.9,0,0,2.9,0,6.6v10.9C0,21.1,2.9,24,6.6,24h10.9c3.6,0,6.6-2.9,6.6-6.6V6.6C24,2.9,21.1,0,17.4,0
	z M18.1,16.6H5.9c-0.4,0-0.8-0.3-0.8-0.8s0.3-0.8,0.8-0.8h12.3c0.4,0,0.8,0.3,0.8,0.8S18.5,16.6,18.1,16.6z M18.1,12.8H5.9
	c-0.4,0-0.8-0.3-0.8-0.8s0.3-0.8,0.8-0.8h12.3c0.4,0,0.8,0.3,0.8,0.8S18.5,12.8,18.1,12.8z M18.1,8.9H5.9c-0.4,0-0.8-0.3-0.8-0.8
	s0.3-0.8,0.8-0.8h12.3c0.4,0,0.8,0.3,0.8,0.8S18.5,8.9,18.1,8.9z"/>
</svg>
