<?xml version="1.0" encoding="utf-8"?>
<!-- Generator: Adobe Illustrator 27.5.0, SVG Export Plug-In . SVG Version: 6.00 Build 0)  -->
<svg version="1.1" id="Capa_1" xmlns="http://www.w3.org/2000/svg" xmlns:xlink="http://www.w3.org/1999/xlink" x="0px" y="0px"
	 viewBox="0 0 24 24" style="enable-background:new 0 0 24 24;" xml:space="preserve">
<style type="text/css">
	.st0{fill:none;}
</style>
<g>
	<path class="st0" d="M12,5.9c-0.4,0-0.8,0.4-0.8,0.8c0,0.4,0.4,0.8,0.8,0.8s0.8-0.4,0.8-0.8C12.8,6.2,12.4,5.9,12,5.9z"/>
	<path class="st0" d="M16.6,11.2c-0.4,0-0.8,0.4-0.8,0.8s0.4,0.8,0.8,0.8s0.8-0.4,0.8-0.8S17,11.2,16.6,11.2z"/>
	<path class="st0" d="M7.4,16.6c-0.4,0-0.8,0.4-0.8,0.8s0.4,0.8,0.8,0.8c0.4,0,0.8-0.4,0.8-0.8S7.8,16.6,7.4,16.6z"/>
	<path class="st0" d="M17.4,0H6.6C2.9,0,0,2.9,0,6.6v10.9C0,21.1,2.9,24,6.6,24h10.9c3.6,0,6.6-2.9,6.6-6.6V6.6
		C24,2.9,21.1,0,17.4,0z M18.1,18.1H9.6c-0.3,0.9-1.2,1.5-2.2,1.5c-1.3,0-2.3-1-2.3-2.3s1-2.3,2.3-2.3c1,0,1.8,0.6,2.2,1.5h8.6
		c0.4,0,0.8,0.3,0.8,0.8S18.5,18.1,18.1,18.1z M16.6,14.3c-1,0-1.8-0.6-2.2-1.5H5.9c-0.4,0-0.8-0.3-0.8-0.8s0.3-0.8,0.8-0.8h8.6
		c0.3-0.9,1.2-1.5,2.2-1.5c1.3,0,2.3,1,2.3,2.3C18.9,13.3,17.9,14.3,16.6,14.3z M18.1,7.4h-4C13.8,8.3,13,8.9,12,8.9
		s-1.8-0.6-2.2-1.5h-4c-0.4,0-0.8-0.3-0.8-0.8s0.3-0.8,0.8-0.8h4C10.2,5,11,4.4,12,4.4s1.8,0.6,2.2,1.5h4c0.4,0,0.8,0.3,0.8,0.8
		S18.5,7.4,18.1,7.4z"/>
</g>
</svg>
