<?xml version="1.0" encoding="utf-8"?>
<!-- Generator: Adobe Illustrator 27.5.0, SVG Export Plug-In . SVG Version: 6.00 Build 0)  -->
<svg version="1.1" id="Capa_1" xmlns="http://www.w3.org/2000/svg" xmlns:xlink="http://www.w3.org/1999/xlink" x="0px" y="0px"
	 viewBox="0 0 24 24" style="enable-background:new 0 0 24 24;" xml:space="preserve">
<style type="text/css">
	.st0{fill:none;}
</style>
<path  d="M12,2.2C8.8,2.2,6.2,4.8,6.2,8c0,2.9,2.2,5.3,5,5.7V21c0,0.4,0.3,0.8,0.8,0.8s0.8-0.3,0.8-0.8v-7.3
	c2.8-0.4,5-2.8,5-5.7C17.8,4.8,15.2,2.2,12,2.2z M12,12.2c-2.3,0-4.2-1.9-4.2-4.2S9.7,3.8,12,3.8c2.3,0,4.2,1.9,4.2,4.2
	S14.3,12.2,12,12.2z"/>
</svg>
