<?xml version="1.0" encoding="utf-8"?>
<!-- Generator: Adobe Illustrator 27.5.0, SVG Export Plug-In . SVG Version: 6.00 Build 0)  -->
<svg version="1.1" id="Capa_1" xmlns="http://www.w3.org/2000/svg" xmlns:xlink="http://www.w3.org/1999/xlink" x="0px" y="0px"
	 viewBox="0 0 24 24" style="enable-background:new 0 0 24 24;" xml:space="preserve">
<style type="text/css">
	.st0{fill:none;}
</style>
<path  d="M20.5,7.5l-4-4c-0.2-0.2-0.6-0.3-0.9-0.1l-9,5C6.4,8.5,6.3,8.7,6.3,8.9s0,0.5,0.2,0.6L9.9,13l-6.5,6.5
	c-0.3,0.3-0.3,0.8,0,1.1c0.1,0.1,0.3,0.2,0.5,0.2s0.4-0.1,0.5-0.2l6.5-6.5l3.5,3.5c0.2,0.2,0.4,0.2,0.6,0.2c0.2,0,0.4-0.2,0.6-0.4
	l5-9C20.8,8.1,20.8,7.7,20.5,7.5z M14.8,15.8L8.2,9.2l7.6-4.2l3.2,3.2L14.8,15.8z"/>
</svg>
