<?xml version="1.0" encoding="utf-8"?>
<!-- Generator: Adobe Illustrator 27.5.0, SVG Export Plug-In . SVG Version: 6.00 Build 0)  -->
<svg version="1.1" id="Capa_1" xmlns="http://www.w3.org/2000/svg" xmlns:xlink="http://www.w3.org/1999/xlink" x="0px" y="0px"
	 viewBox="0 0 24 24" style="enable-background:new 0 0 24 24;" xml:space="preserve">
<style type="text/css">
	.st0{fill:none;}
</style>
<g>
	<path class="st0" d="M11.8,9c0-1.5-1.2-2.8-2.8-2.8S6.2,7.5,6.2,9s1.2,2.8,2.8,2.8S11.8,10.5,11.8,9z M7.8,9c0-0.7,0.6-1.2,1.2-1.2
		s1.2,0.6,1.2,1.2S9.7,10.2,9,10.2S7.8,9.7,7.8,9z"/>
	<path class="st0" d="M15,12.2c-1.5,0-2.8,1.2-2.8,2.8s1.2,2.8,2.8,2.8s2.8-1.2,2.8-2.8S16.5,12.2,15,12.2z M15,16.2
		c-0.7,0-1.2-0.6-1.2-1.2s0.6-1.2,1.2-1.2s1.2,0.6,1.2,1.2S15.7,16.2,15,16.2z"/>
	<path class="st0" d="M16.5,7.5c-0.3-0.3-0.8-0.3-1.1,0l-8,8c-0.3,0.3-0.3,0.8,0,1.1c0.1,0.1,0.3,0.2,0.5,0.2s0.4-0.1,0.5-0.2l8-8
		C16.8,8.2,16.8,7.8,16.5,7.5z"/>
	<path class="st0" d="M12,2.2c-5.4,0-9.8,4.4-9.8,9.8s4.4,9.8,9.8,9.8s9.8-4.4,9.8-9.8S17.4,2.2,12,2.2z M12,20.2
		c-4.5,0-8.2-3.7-8.2-8.2S7.5,3.8,12,3.8s8.2,3.7,8.2,8.2S16.5,20.2,12,20.2z"/>
</g>
</svg>
