<?xml version="1.0" encoding="utf-8"?>
<!-- Generator: Adobe Illustrator 27.5.0, SVG Export Plug-In . SVG Version: 6.00 Build 0)  -->
<svg version="1.1" id="Capa_1" xmlns="http://www.w3.org/2000/svg" xmlns:xlink="http://www.w3.org/1999/xlink" x="0px" y="0px"
	 viewBox="0 0 24 24" style="enable-background:new 0 0 24 24;" xml:space="preserve">
<style type="text/css">
	.st0{fill:none;}
</style>
<g>
	<circle class="st0" cx="9" cy="9" r="1.2"/>
	<circle class="st0" cx="15" cy="15" r="1.2"/>
	<path class="st0" d="M12,2.2c-5.4,0-9.8,4.4-9.8,9.8s4.4,9.8,9.8,9.8s9.8-4.4,9.8-9.8S17.4,2.2,12,2.2z M6.2,9
		c0-1.5,1.2-2.8,2.8-2.8s2.8,1.2,2.8,2.8s-1.2,2.8-2.8,2.8S6.2,10.5,6.2,9z M8.5,16.5c-0.1,0.1-0.3,0.2-0.5,0.2s-0.4-0.1-0.5-0.2
		c-0.3-0.3-0.3-0.8,0-1.1l8-8c0.3-0.3,0.8-0.3,1.1,0s0.3,0.8,0,1.1L8.5,16.5z M15,17.8c-1.5,0-2.8-1.2-2.8-2.8s1.2-2.8,2.8-2.8
		s2.8,1.2,2.8,2.8S16.5,17.8,15,17.8z"/>
</g>
</svg>
