<?xml version="1.0" encoding="utf-8"?>
<!-- Generator: Adobe Illustrator 27.5.0, SVG Export Plug-In . SVG Version: 6.00 Build 0)  -->
<svg version="1.1" id="Capa_1" xmlns="http://www.w3.org/2000/svg" xmlns:xlink="http://www.w3.org/1999/xlink" x="0px" y="0px"
	 viewBox="0 0 24 24" style="enable-background:new 0 0 24 24;" xml:space="preserve">
<style type="text/css">
	.st0{fill:none;}
</style>
<g>
	<path class="" d="M11.4,8c0-1.9-1.5-3.4-3.4-3.4S4.6,6.1,4.6,8s1.5,3.4,3.4,3.4S11.4,9.9,11.4,8z M6.1,8C6.1,7,7,6.1,8,6.1
		S9.9,7,9.9,8S9.1,9.9,8,9.9S6.1,9.1,6.1,8z"/>
	<path class="" d="M16,12.6c-1.9,0-3.4,1.5-3.4,3.4c0,1.9,1.5,3.4,3.4,3.4c1.9,0,3.4-1.5,3.4-3.4C19.4,14.1,17.9,12.6,16,12.6z
		 M16,17.9c-1.1,0-1.9-0.9-1.9-1.9c0-1.1,0.9-1.9,1.9-1.9c1.1,0,1.9,0.9,1.9,1.9C17.9,17,17,17.9,16,17.9z"/>
	<path class="" d="M17.8,6.2c-0.3-0.3-0.8-0.3-1.1,0L6.2,16.8c-0.3,0.3-0.3,0.8,0,1.1c0.1,0.1,0.3,0.2,0.5,0.2s0.4-0.1,0.5-0.2
		L17.8,7.2C18.1,6.9,18.1,6.4,17.8,6.2z"/>
</g>
</svg>
