<?xml version="1.0" encoding="utf-8"?>
<!-- Generator: Adobe Illustrator 27.5.0, SVG Export Plug-In . SVG Version: 6.00 Build 0)  -->
<svg version="1.1" id="Capa_1" xmlns="http://www.w3.org/2000/svg" xmlns:xlink="http://www.w3.org/1999/xlink" x="0px" y="0px"
	 viewBox="0 0 24 24" style="enable-background:new 0 0 24 24;" xml:space="preserve">
<style type="text/css">
	.st0{fill:none;}
</style>
<g>
	<path  d="M12,18.2c-0.4,0-0.8,0.3-0.8,0.8v0c0,0.4,0.3,0.8,0.8,0.8s0.8-0.3,0.8-0.8v0C12.8,18.6,12.4,18.2,12,18.2z"/>
	<path  d="M12,4.2c-2.2,0-4.1,1.5-4.6,3.6C7.3,8.2,7.5,8.6,7.9,8.7c0.4,0.1,0.8-0.1,0.9-0.5c0.4-1.4,1.6-2.4,3.1-2.4
		c1.8,0,3.2,1.5,3.2,3.2c0,0.9-0.2,1.3-0.5,1.6c-0.3,0.3-0.6,0.5-1.2,0.9c-0.5,0.3-1.1,0.7-1.6,1.5c-0.5,0.7-0.7,1.7-0.7,3
		c0,0.4,0.3,0.8,0.8,0.8c0.4,0,0.8-0.3,0.8-0.8c0-1.1,0.2-1.8,0.5-2.2c0.3-0.4,0.7-0.7,1.1-1c0.5-0.3,1.1-0.6,1.6-1.2
		c0.5-0.6,0.8-1.4,0.8-2.6C16.8,6.4,14.6,4.2,12,4.2z"/>
</g>
</svg>
