<?xml version="1.0" encoding="utf-8"?>
<!-- Generator: Adobe Illustrator 27.5.0, SVG Export Plug-In . SVG Version: 6.00 Build 0)  -->
<svg version="1.1" id="Capa_1" xmlns="http://www.w3.org/2000/svg" xmlns:xlink="http://www.w3.org/1999/xlink" x="0px" y="0px"
	 viewBox="0 0 24 24" style="enable-background:new 0 0 24 24;" xml:space="preserve">
<style type="text/css">
	.st0{fill:none;}
</style>
<path class="st0" d="M12,2.2c-5.4,0-9.8,4.4-9.8,9.8c0,5.4,4.4,9.8,9.8,9.8c5.4,0,9.8-4.4,9.8-9.8C21.8,6.6,17.4,2.2,12,2.2z
	 M12.8,17c0,0.4-0.3,0.8-0.8,0.8s-0.8-0.3-0.8-0.8v0c0-0.4,0.3-0.8,0.8-0.8S12.8,16.6,12.8,17L12.8,17z M13.9,12.6
	c-0.8,0.6-1.2,0.8-1.2,1.4c0,0.4-0.3,0.8-0.8,0.8s-0.8-0.3-0.8-0.8c0-1.5,1.2-2.2,1.8-2.6c0.8-0.5,1.2-0.9,1.2-1.5
	c0-1.2-1-2.2-2.2-2.2c-1.1,0-2,0.7-2.3,1.6C9.6,9.8,9.2,10,8.8,9.9C8.4,9.8,8.2,9.4,8.3,9c0.4-1.6,2-2.7,3.7-2.7
	c2.1,0,3.8,1.6,3.8,3.7C15.8,11.4,14.6,12.1,13.9,12.6z"/>
</svg>
