<?xml version="1.0" encoding="utf-8"?>
<!-- Generator: Adobe Illustrator 27.5.0, SVG Export Plug-In . SVG Version: 6.00 Build 0)  -->
<svg version="1.1" id="Capa_1" xmlns="http://www.w3.org/2000/svg" xmlns:xlink="http://www.w3.org/1999/xlink" x="0px" y="0px"
	 viewBox="0 0 24 24" style="enable-background:new 0 0 24 24;" xml:space="preserve">
<style type="text/css">
	.st0{fill:none;}
</style>
<g>
	<path  d="M12,16.2c-0.4,0-0.8,0.3-0.8,0.8v0c0,0.4,0.3,0.8,0.8,0.8s0.8-0.3,0.8-0.8v0C12.8,16.6,12.4,16.2,12,16.2z"/>
	<path  d="M12,6.2c-1.7,0-3.3,1.1-3.7,2.7C8.2,9.4,8.4,9.8,8.8,9.9C9.2,10,9.6,9.8,9.7,9.4C10,8.5,10.9,7.8,12,7.8
		c1.3,0,2.2,1,2.2,2.2c0,0.6-0.4,0.9-1.2,1.5c-0.7,0.5-1.8,1.2-1.8,2.6c0,0.4,0.3,0.8,0.8,0.8s0.8-0.3,0.8-0.8
		c0-0.5,0.3-0.8,1.2-1.4c0.7-0.5,1.8-1.2,1.8-2.7C15.8,7.9,14.1,6.2,12,6.2z"/>
</g>
</svg>
