<?xml version="1.0" encoding="utf-8"?>
<!-- Generator: Adobe Illustrator 27.5.0, SVG Export Plug-In . SVG Version: 6.00 Build 0)  -->
<svg version="1.1" id="Capa_1" xmlns="http://www.w3.org/2000/svg" xmlns:xlink="http://www.w3.org/1999/xlink" x="0px" y="0px"
	 viewBox="0 0 24 24" style="enable-background:new 0 0 24 24;" xml:space="preserve">
<style type="text/css">
	.st0{fill:none;}
</style>
<path  d="M20,6.2h-2.5c0.1-0.1,0.2-0.2,0.3-0.4c0.4-0.7,0.4-1.6-0.1-2.4c-0.5-0.8-1.2-1.3-2-1.3c-0.8,0-1.5,0.4-2.1,0.8
	C13,3.5,12.4,4.2,12,4.9c-0.5-0.7-1-1.4-1.7-1.9C9.7,2.6,9,2.2,8.2,2.2c-0.8,0-1.5,0.5-2,1.3C5.7,4.3,5.7,5.1,6.1,5.9
	C6.2,6,6.3,6.1,6.4,6.2H4C3.6,6.2,3.2,6.6,3.2,7v3c0,0.4,0.3,0.8,0.8,0.8h0.2V20c0,0.4,0.3,0.8,0.8,0.8h5h4h5c0.4,0,0.8-0.3,0.8-0.8
	v-9.2H20c0.4,0,0.8-0.3,0.8-0.8V7C20.8,6.6,20.4,6.2,20,6.2z M18.2,19.2h-3.5v-8.5h3.5V19.2z M4.8,7.8h4.5v1.5H5H4.8V7.8z M10.8,7.8
	h2.5v1.5h-2.5V7.8z M9.2,10.8v8.5H5.8v-8.5H9.2z M10.8,10.8h2.5v8.5h-2.5V10.8z M19.2,9.2H19h-4.2V7.8h4.5V9.2z M14.6,4.2
	c0.5-0.4,0.9-0.5,1.1-0.5c0.2,0,0.5,0.1,0.7,0.5c0.3,0.5,0.2,0.7,0.1,0.9c-0.1,0.2-0.5,0.5-1,0.7c-0.8,0.3-1.8,0.4-2.6,0.4
	C13.3,5.5,13.9,4.7,14.6,4.2z M8.2,3.7c0.3,0,0.7,0.1,1.1,0.5c0.7,0.5,1.3,1.3,1.6,2c-0.8,0-1.8-0.1-2.6-0.4c-0.5-0.2-0.9-0.5-1-0.7
	C7.3,4.9,7.2,4.7,7.5,4.2C7.8,3.8,8,3.7,8.2,3.7z"/>
</svg>
