<?xml version="1.0" encoding="utf-8"?>
<!-- Generator: Adobe Illustrator 27.5.0, SVG Export Plug-In . SVG Version: 6.00 Build 0)  -->
<svg version="1.1" id="Capa_1" xmlns="http://www.w3.org/2000/svg" xmlns:xlink="http://www.w3.org/1999/xlink" x="0px" y="0px"
	 viewBox="0 0 24 24" style="enable-background:new 0 0 24 24;" xml:space="preserve">
<style type="text/css">
	.st0{fill:none;}
</style>
<g>
	<path  d="M19,5.2c-0.4,0-0.8,0.3-0.8,0.8v12c0,0.4,0.3,0.8,0.8,0.8s0.8-0.3,0.8-0.8V6C19.8,5.6,19.4,5.2,19,5.2z"/>
	<path  d="M5.4,5.4c-0.2-0.1-0.5-0.1-0.8,0C4.4,5.5,4.2,5.7,4.2,6v12c0,0.3,0.1,0.5,0.4,0.7c0.2,0.1,0.5,0.1,0.8,0l10-6
		c0.2-0.1,0.4-0.4,0.4-0.6s-0.1-0.5-0.4-0.6L5.4,5.4z M5.8,7.3l7.8,4.7l-7.8,4.7V7.3z"/>
</g>
</svg>
