<?xml version="1.0" encoding="utf-8"?>
<!-- Generator: Adobe Illustrator 27.5.0, SVG Export Plug-In . SVG Version: 6.00 Build 0)  -->
<svg version="1.1" id="Capa_1" xmlns="http://www.w3.org/2000/svg" xmlns:xlink="http://www.w3.org/1999/xlink" x="0px" y="0px"
	 viewBox="0 0 24 24" style="enable-background:new 0 0 24 24;" xml:space="preserve">
<style type="text/css">
	.st0{fill:none;}
</style>
<path  d="M21.1,14.8c-1-1.2-4.1-1.9-5.4-1.6c-0.9,0.2-1.5,0.9-2,1.4c-1.8-1.1-3.2-2.6-4.3-4.3c0.6-0.5,1.2-1.1,1.4-2
	c0.3-1.3-0.3-4.3-1.6-5.4C8.7,2.5,8.1,2.3,7.5,2.2H4.8c-0.7,0-1.4,0.3-1.9,0.8C2.4,3.6,2.2,4.3,2.3,5c0,4.6,1.7,8.8,4.9,11.9
	c3.1,3.1,7.4,4.9,11.8,4.8c0.1,0,0.1,0,0.2,0c0.6,0,1.3-0.2,1.7-0.7c0.5-0.5,0.8-1.2,0.8-1.9v-2.7C21.8,15.9,21.5,15.3,21.1,14.8z
	 M20.2,16.5v2.7c0,0.3-0.1,0.6-0.4,0.8c-0.2,0.2-0.5,0.3-0.9,0.3c0,0,0,0,0,0c-4.1,0-8-1.6-10.8-4.4C5.3,13,3.8,9.1,3.8,4.9
	c0-0.3,0.1-0.6,0.3-0.8c0.2-0.2,0.5-0.4,0.8-0.4h2.7C7.8,3.7,8,3.8,8.2,4c0.7,0.6,1.3,3,1.1,3.9c-0.1,0.4-0.6,0.9-1,1.3
	C8.2,9.3,8,9.5,7.9,9.6c-0.2,0.2-0.3,0.6-0.1,0.9c1.4,2.4,3.3,4.3,5.7,5.7c0.3,0.2,0.7,0.1,0.9-0.1c0.1-0.1,0.3-0.3,0.4-0.4
	c0.4-0.4,0.8-0.9,1.3-1c0.9-0.2,3.4,0.4,4,1.1C20.2,15.9,20.3,16.2,20.2,16.5C20.2,16.5,20.2,16.5,20.2,16.5z"/>
</svg>
