<?xml version="1.0" encoding="utf-8"?>
<!-- Generator: Adobe Illustrator 27.5.0, SVG Export Plug-In . SVG Version: 6.00 Build 0)  -->
<svg version="1.1" id="Capa_1" xmlns="http://www.w3.org/2000/svg" xmlns:xlink="http://www.w3.org/1999/xlink" x="0px" y="0px"
	 viewBox="0 0 24 24" style="enable-background:new 0 0 24 24;" xml:space="preserve">
<style type="text/css">
	.st0{fill:none;}
</style>
<path  d="M18.5,5.2h-0.8V4c0-0.4-0.3-0.8-0.8-0.8H7C6.6,3.2,6.2,3.6,6.2,4v1.2H5.5c-1.8,0-3.2,1.5-3.2,3.2
	s1.5,3.2,3.2,3.2h0.8V12c0,2.9,2.2,5.3,5,5.7v2.5H8c-0.4,0-0.8,0.3-0.8,0.8s0.3,0.8,0.8,0.8h8c0.4,0,0.8-0.3,0.8-0.8
	s-0.3-0.8-0.8-0.8h-3.2v-2.5c2.8-0.4,5-2.8,5-5.7v-0.2h0.8c1.8,0,3.2-1.5,3.2-3.2S20.3,5.2,18.5,5.2z M6.2,10.2H5.5
	c-1,0-1.8-0.8-1.8-1.8s0.8-1.8,1.8-1.8h0.8V10.2z M16.2,12c0,2.3-1.9,4.2-4.2,4.2c-2.3,0-4.2-1.9-4.2-4.2V4.8h8.5V12z M18.5,10.2
	h-0.8V6.8h0.8c1,0,1.8,0.8,1.8,1.8S19.5,10.2,18.5,10.2z"/>
</svg>
