<?xml version="1.0" encoding="utf-8"?>
<!-- Generator: Adobe Illustrator 27.5.0, SVG Export Plug-In . SVG Version: 6.00 Build 0)  -->
<svg version="1.1" id="Capa_1" xmlns="http://www.w3.org/2000/svg" xmlns:xlink="http://www.w3.org/1999/xlink" x="0px" y="0px"
	 viewBox="0 0 24 24" style="enable-background:new 0 0 24 24;" xml:space="preserve">
<style type="text/css">
	.st0{fill:none;}
</style>
<g>
	<path  d="M12,11.8c2.6,0,4.8-2.1,4.8-4.8S14.6,2.2,12,2.2S7.2,4.4,7.2,7S9.4,11.8,12,11.8z M12,3.8
		c1.8,0,3.2,1.5,3.2,3.2s-1.5,3.2-3.2,3.2S8.8,8.8,8.8,7S10.2,3.8,12,3.8z"/>
	<path  d="M21.1,11l1.5-1.5c0.3-0.3,0.3-0.8,0-1.1s-0.8-0.3-1.1,0L20,9.9l-1.5-1.5c-0.3-0.3-0.8-0.3-1.1,0
		s-0.3,0.8,0,1.1l1.5,1.5l-1.5,1.5c-0.3,0.3-0.3,0.8,0,1.1s0.8,0.3,1.1,0l1.5-1.5l1.5,1.5c0.1,0.1,0.3,0.2,0.5,0.2s0.4-0.1,0.5-0.2
		c0.3-0.3,0.3-0.8,0-1.1L21.1,11z"/>
	<path  d="M16,14.2H8c-2.6,0-4.8,2.1-4.8,4.8v2c0,0.4,0.3,0.8,0.8,0.8s0.8-0.3,0.8-0.8v-2c0-1.8,1.5-3.2,3.2-3.2h8
		c1.8,0,3.2,1.5,3.2,3.2v2c0,0.4,0.3,0.8,0.8,0.8s0.8-0.3,0.8-0.8v-2C20.8,16.4,18.6,14.2,16,14.2z"/>
</g>
</svg>
