<?xml version="1.0" encoding="utf-8"?>
<!-- Generator: Adobe Illustrator 27.5.0, SVG Export Plug-In . SVG Version: 6.00 Build 0)  -->
<svg version="1.1" id="Capa_1" xmlns="http://www.w3.org/2000/svg" xmlns:xlink="http://www.w3.org/1999/xlink" x="0px" y="0px"
	 viewBox="0 0 24 24" style="enable-background:new 0 0 24 24;" xml:space="preserve">
<style type="text/css">
	.st0{fill:none;}
</style>
<path  d="M20,2.2h-9C10,2.2,9.2,3,9.2,4v4.2H4C3,8.2,2.2,9,2.2,10v9c0,1,0.8,1.8,1.8,1.8h12c1,0,1.8-0.8,1.8-1.8v-6.2H20
	c1,0,1.8-0.8,1.8-1.8V4C21.8,3,21,2.2,20,2.2z M16.2,19c0,0.1-0.1,0.2-0.2,0.2H4c-0.1,0-0.2-0.1-0.2-0.2v-6.2h12.5V19z M16.2,11.2
	H3.8V10c0-0.1,0.1-0.2,0.2-0.2h12c0.1,0,0.2,0.1,0.2,0.2V11.2z M20.2,11c0,0.1-0.1,0.2-0.2,0.2h-2.2V10c0-1-0.8-1.8-1.8-1.8h-5.2
	V6.8h9.5V11z M20.2,5.2h-9.5V4c0-0.1,0.1-0.2,0.2-0.2h9c0.1,0,0.2,0.1,0.2,0.2V5.2z"/>
</svg>
