<?xml version="1.0" encoding="utf-8"?>
<!-- Generator: Adobe Illustrator 27.5.0, SVG Export Plug-In . SVG Version: 6.00 Build 0)  -->
<svg version="1.1" id="Capa_1" xmlns="http://www.w3.org/2000/svg" xmlns:xlink="http://www.w3.org/1999/xlink" x="0px" y="0px"
	 viewBox="0 0 24 24" style="enable-background:new 0 0 24 24;" xml:space="preserve">
<style type="text/css">
	.st0{fill:none;}
</style>
<path  d="M12,19.8c-6.7,0-10.5-7.1-10.7-7.4c-0.1-0.2-0.1-0.5,0-0.7C1.5,11.4,5.3,4.2,12,4.2c6.7,0,10.5,7.1,10.7,7.4
	c0.1,0.2,0.1,0.5,0,0.7C22.5,12.6,18.7,19.8,12,19.8z M2.9,12c0.8,1.4,4.1,6.2,9.1,6.2c5,0,8.3-4.9,9.1-6.2C20.3,10.6,17,5.8,12,5.8
	C7,5.8,3.7,10.6,2.9,12z"/>
<path  d="M12,15.8c-2.1,0-3.8-1.7-3.8-3.8c0-2.1,1.7-3.8,3.8-3.8c2.1,0,3.8,1.7,3.8,3.8C15.8,14.1,14.1,15.8,12,15.8z
	 M12,9.8c-1.2,0-2.2,1-2.2,2.2c0,1.2,1,2.2,2.2,2.2c1.2,0,2.2-1,2.2-2.2C14.2,10.8,13.2,9.8,12,9.8z"/>
</svg>
