<?xml version="1.0" encoding="utf-8"?>
<!-- Generator: Adobe Illustrator 27.5.0, SVG Export Plug-In . SVG Version: 6.00 Build 0)  -->
<svg version="1.1" id="Capa_1" xmlns="http://www.w3.org/2000/svg" xmlns:xlink="http://www.w3.org/1999/xlink" x="0px" y="0px"
	 viewBox="0 0 24 24" style="enable-background:new 0 0 24 24;" xml:space="preserve">
<style type="text/css">
	.st0{fill:none;}
</style>
<path  d="M21,21.8c-0.2,0-0.4-0.1-0.5-0.2l-18-18c-0.3-0.3-0.3-0.8,0-1.1s0.8-0.3,1.1,0l18,18c0.3,0.3,0.3,0.8,0,1.1
	C21.4,21.7,21.2,21.8,21,21.8z M12,19.8c-6.7,0-10.5-7.1-10.7-7.4c-0.1-0.2-0.1-0.5,0-0.7c0-0.1,0.9-1.7,2.5-3.4
	c0.3-0.3,0.8-0.3,1.1,0c0.3,0.3,0.3,0.8,0,1.1c-1,1.1-1.7,2.2-2,2.7c0.8,1.4,4.1,6.3,9.1,6.3c0.7,0,1.4-0.1,2.1-0.3
	c0.4-0.1,0.8,0.1,0.9,0.5c0.1,0.4-0.1,0.8-0.5,0.9C13.7,19.6,12.8,19.8,12,19.8z M19.6,16c-0.2,0-0.4-0.1-0.5-0.2
	c-0.3-0.3-0.3-0.8,0-1.1c1-1.1,1.8-2.2,2.1-2.8C20.3,10.6,17,5.8,12,5.8c-0.7,0-1.4,0.1-2,0.3C9.6,6.1,9.1,5.9,9,5.5
	C8.9,5.1,9.2,4.7,9.6,4.6c0.8-0.2,1.6-0.3,2.4-0.3c6.7,0,10.5,7.1,10.7,7.4c0.1,0.2,0.1,0.5,0,0.7c0,0.1-0.9,1.7-2.5,3.4
	C20,15.9,19.8,16,19.6,16z M11.5,15.7c0,0-0.1,0-0.1,0c-1.3-0.2-2.5-1.2-2.9-2.4c-0.1-0.4,0.1-0.8,0.5-1c0.4-0.1,0.8,0.1,1,0.5
	c0.3,0.8,0.9,1.3,1.7,1.5c0.4,0.1,0.7,0.5,0.6,0.9C12.2,15.5,11.9,15.7,11.5,15.7z M15,12.2c-0.4,0-0.7-0.3-0.7-0.6
	c-0.2-0.9-0.9-1.7-1.8-1.8c-0.4-0.1-0.7-0.5-0.6-0.9c0.1-0.4,0.5-0.7,0.9-0.6c1.6,0.3,2.8,1.5,3.1,3.1c0.1,0.4-0.2,0.8-0.6,0.9
	C15,12.2,15,12.2,15,12.2z"/>
</svg>
