<?xml version="1.0" encoding="utf-8"?>
<!-- Generator: Adobe Illustrator 27.5.0, SVG Export Plug-In . SVG Version: 6.00 Build 0)  -->
<svg version="1.1" id="Capa_1" xmlns="http://www.w3.org/2000/svg" xmlns:xlink="http://www.w3.org/1999/xlink" x="0px" y="0px"
	 viewBox="0 0 46.2 46.2" style="enable-background:new 0 0 46.2 46.2;" xml:space="preserve">
<style type="text/css">
	.st0{fill:none;}
</style>
<path class="" d="M23.1,9.1c-7.7,0-14,6.3-14,14c0,3.9,1.6,7.4,4.1,9.9l-4.1,4.1h14c7.7,0,14-6.3,14-14
	C37.1,15.4,30.8,9.1,23.1,9.1z M29.8,26.8l-0.6,2.3c-0.1,0.5-0.5,0.8-1,0.8c-6.5,0-11.7-5.3-11.7-11.7c0-0.5,0.3-0.9,0.8-1l2.3-0.6
	c0.5-0.1,1,0.1,1.2,0.6v0l1,2.5c0.2,0.4,0.1,0.9-0.3,1.2l-1.3,1.1c0.9,1.8,2.4,3.3,4.2,4.2l1.1-1.3c0.3-0.4,0.8-0.5,1.2-0.3l2.5,1
	C29.6,25.8,29.9,26.3,29.8,26.8z"/>
</svg>
