<?xml version="1.0" encoding="utf-8"?>
<!-- Generator: Adobe Illustrator 27.5.0, SVG Export Plug-In . SVG Version: 6.00 Build 0)  -->
<svg version="1.1" id="Capa_1" xmlns="http://www.w3.org/2000/svg" xmlns:xlink="http://www.w3.org/1999/xlink" x="0px" y="0px"
	 viewBox="0 0 24 24" style="enable-background:new 0 0 24 24;" xml:space="preserve">
<style type="text/css">
	.st0{fill:none;}
</style>
<g>
	<path  d="M13,9.2H7c-0.4,0-0.8,0.3-0.8,0.8s0.3,0.8,0.8,0.8h6c0.4,0,0.8-0.3,0.8-0.8S13.4,9.2,13,9.2z"/>
	<path  d="M20.5,19.5L16,14.9c1.1-1.3,1.8-3.1,1.8-4.9c0-4.3-3.5-7.8-7.8-7.8S2.2,5.7,2.2,10s3.5,7.8,7.8,7.8
		c1.9,0,3.6-0.7,4.9-1.8l4.5,4.5c0.3,0.3,0.8,0.3,1.1,0C20.8,20.2,20.8,19.8,20.5,19.5z M10,16.2c-3.5,0-6.2-2.8-6.2-6.2
		S6.5,3.8,10,3.8s6.2,2.8,6.2,6.2S13.5,16.2,10,16.2z"/>
</g>
</svg>
