<svg id="Capa_1" data-name="Capa 1" xmlns="http://www.w3.org/2000/svg" viewBox="0 0 30 39"><defs><style>.cls-1{fill:#cbc5c5;}</style></defs><title>mesasdg</title><path class="cls-1" d="M27.21,28.67a.74.74,0,0,1,.75-.74.75.75,0,0,1,.76.74V36a.76.76,0,0,1-.76.75H1.46A.75.75,0,0,1,.71,36V28.67a.75.75,0,0,1,1.5,0v6.58h25Zm0,0"/><path class="cls-1" d="M24.77,20.38a1,1,0,0,0,0-1.49,1,1,0,0,0-1.47,0l-7.54,7.53V1.56a1,1,0,0,0-1-1.06,1.06,1.06,0,0,0-1.06,1.06V26.43L6.14,18.9a1.05,1.05,0,1,0-1.49,1.49L14,29.71a1.06,1.06,0,0,0,1.49,0Z"/></svg>