<svg xmlns="http://www.w3.org/2000/svg" xmlns:xlink="http://www.w3.org/1999/xlink" version="1.1" width="792" height="612" enable-background="new 0 0 792 612" xml:space="preserve" style=""><rect id="backgroundrect" width="100%" height="100%" x="0" y="0" fill="none" stroke="none"/>

<g class="currentLayer" style=""><title>Layer 1</title><g id="svg_1" class="selected" fill="#dce6ea" fill-opacity="1">
	<g id="svg_2" fill="#dce6ea" fill-opacity="1">
		<path fill-rule="evenodd" clip-rule="evenodd" d="M166.407,596.217c-6.979-3.056-9.227-8.446-9.219-15.942    c0.132-138.876,0.119-277.755,0.021-416.636c-0.002-5.499,1.645-9.771,5.304-13.84c39.355-43.767,78.619-87.619,117.829-131.516    c3.704-4.15,7.95-5.917,13.488-5.911c95.374,0.079,190.748,0.051,286.118,0.062c10.894,0.002,15.171,4.292,15.171,15.206    c0.011,89.675,0.005,179.349,0.005,269.022c0,2.267,0,4.535,0,7.658c2.431,0,4.612-0.037,6.794,0.009    c12.324,0.268,24.827-0.653,36.93,1.124c17.05,2.501,29.078,17.293,29.159,34.415c0.233,49.395,0.286,98.795-0.021,148.19    c-0.124,19.507-16.478,34.916-36.218,35.155c-11.945,0.149-23.897,0.031-36.644,0.031c0,2.302,0,4.31,0,6.309    c0,16.916-0.226,33.824,0.108,50.724c0.146,7.505-2.246,12.886-9.224,15.942C446.14,596.217,306.273,596.217,166.407,596.217z     M181.732,571.719c130.023,0,259.337,0,388.938,0c0-16.207,0-32.059,0-48.477c-2.544,0-4.775,0-7,0c-73.721,0-147.443,0-221.164,0    c-23.965-0.005-39.266-15.225-39.271-39.068c-0.008-46.934-0.008-93.86,0-140.788c0.005-23.839,15.317-39.062,39.277-39.064    c73.717-0.006,147.438-0.003,221.158-0.003c2.23,0,4.461,0,6.822,0c0-89.523,0-178.467,0-267.321c-89.312,0-178.134,0-267.259,0    c0,2.512,0,4.59,0,6.668c0,41.421,0.012,82.839-0.011,124.26c-0.004,10.283-4.299,14.571-14.509,14.576    c-33.439,0.017-66.88,0.006-100.319,0.009c-2.19,0-4.377,0-6.662,0C181.732,312.742,181.732,442.058,181.732,571.719z     M485.678,499.112c46.733,0,93.472,0,140.204,0c14.156-0.006,18.077-3.861,18.077-17.823c0.011-45.031,0.011-90.052,0-135.072    c0-13.762-3.949-17.759-17.562-17.759c-93.85,0-187.699,0-281.545,0c-13.344,0-17.478,4.072-17.481,17.239    c-0.007,45.215-0.003,90.43-0.001,135.646c0.001,13.761,3.949,17.762,17.538,17.762    C391.832,499.112,438.752,499.112,485.678,499.112z M187.967,157.926c30.97,0,60.872,0,90.816,0c0-33.583,0-66.72,0-101.358    C248.099,90.814,218.301,124.073,187.967,157.926z" id="svg_3" fill="#dce6ea" fill-opacity="1"/>
		<path fill-rule="evenodd" clip-rule="evenodd" d="M378.474,368.175c3.432,0,5.709,0.27,7.895-0.058    c4.848-0.736,7.589,1.474,10.031,5.48c5.631,9.231,11.687,18.2,17.592,27.264c1.019,1.566,2.141,3.056,3.457,4.914    c6.7-9.958,13.704-19.161,19.337-29.142c4.364-7.735,9.906-10.123,18.72-7.8c-2.685,3.954-5.284,7.815-7.918,11.645    c-6.352,9.236-12.573,18.552-19.163,27.603c-2.18,2.997-1.965,5.018,0.022,7.966c9.431,13.977,18.623,28.117,27.955,42.288    c-9.926,2.917-13.118,1.75-18.346-6.426c-6.832-10.695-13.68-21.365-20.905-32.653c-7.275,10.909-14.17,21.226-21.059,31.556    c-6.292,9.437-6.286,9.437-18.578,8.085c5.389-8.096,10.588-15.933,15.81-23.746c4.218-6.314,8.331-12.708,12.757-18.877    c1.953-2.716,2-4.622,0.011-7.474C396.979,395.747,388.163,382.488,378.474,368.175z" id="svg_4" fill="#dce6ea" fill-opacity="1"/>
		<path fill-rule="evenodd" clip-rule="evenodd" d="M527.788,448.285c0.513-0.918,1.107-1.874,1.599-2.889    c2.161-4.428,4.741-5.206,8.819-1.825c5.882,4.888,12.784,7.89,20.517,6.416c4.094-0.782,8.609-2.409,11.633-5.108    c7.638-6.806,5.785-18.795-3.461-23.099c-7.178-3.345-15.053-5.202-22.241-8.54c-14.565-6.751-18.011-25.519-6.951-37.271    c9.279-9.867,20.989-10.671,33.134-7.242c4.758,1.345,9.053,4.353,13.87,6.761c-0.886,2.062-1.431,3.203-1.874,4.386    c-1.653,4.407-4.007,5.385-8.134,2.408c-6.099-4.396-12.929-6.163-20.462-4.186c-6.725,1.767-10.575,5.785-11.316,11.957    c-0.648,5.482,1.943,10.031,8.263,12.914c5.325,2.431,10.975,4.153,16.467,6.229c14.756,5.566,20.086,12.956,18.789,25.961    c-1.339,13.376-10.142,22.52-24.066,24.978C549.52,462.408,535.392,457.607,527.788,448.285z" id="svg_5" fill="#dce6ea" fill-opacity="1"/>
		<path fill-rule="evenodd" clip-rule="evenodd" d="M469.73,459.038c0-30.281,0-60.208,0-90.496c3.878,0,7.578,0,11.952,0    c0,26.698,0,53.36,0,80.457c13.312,0,25.972,0,39.074,0c0,3.504,0,6.594,0,10.039C503.992,459.038,487.186,459.038,469.73,459.038    z" id="svg_6" fill="#dce6ea" fill-opacity="1"/>
	</g>
	<g id="svg_7" fill="#dce6ea" fill-opacity="1">
		<path fill-rule="evenodd" clip-rule="evenodd" d="M429.272,289.334c-0.6-0.689-1.069-1.667-1.831-2.025    c-5.487-2.59-7.35-7.221-7.356-12.862c-0.022-57.523-0.011-115.046-0.039-172.57c0-1.435-0.247-2.866-0.513-5.646    c-3.002,2.887-5.076,4.806-7.075,6.802c-13.254,13.252-26.479,26.527-39.739,39.777c-1.308,1.31-2.614,2.671-4.121,3.724    c-5.897,4.115-11.698,3.277-16.456-2.243c-3.564-4.141-3.284-11.189,1.058-15.608c16.386-16.695,32.902-33.259,49.348-49.895    c6.755-6.835,13.608-13.583,20.122-20.645c6.023-6.529,14.75-5.936,20.68,0.095c22.927,23.295,46.152,46.294,69.225,69.448    c4.78,4.799,5.639,9.743,2.949,15.085c-1.834,3.634-7.542,7.172-11.571,6.124c-3.103-0.804-6.319-2.608-8.617-4.86    c-15.603-15.282-30.97-30.803-46.434-46.23c-0.941-0.943-2.036-1.736-3.936-3.343c-0.319,2.633-0.697,4.321-0.697,6.008    c-0.032,57.523-0.081,115.05,0.065,172.574c0.01,6.121-0.497,11.417-6.794,14.333c-0.475,0.221-0.562,1.288-0.821,1.96    C434.236,289.334,431.75,289.334,429.272,289.334z" id="svg_8" fill="#dce6ea" fill-opacity="1"/>
	</g>
</g></g></svg>