<svg id="Capa_1" data-name="Capa 1" xmlns="http://www.w3.org/2000/svg" viewBox="0 0 30 39"><defs><style>.cls-1{fill:#cbc5c5;}</style></defs><title>mesasfgjfgj</title><path class="cls-1" d="M2.22,8.59a.74.74,0,0,1-.75.74.75.75,0,0,1-.76-.74V1.25A.76.76,0,0,1,1.47.5H28a.75.75,0,0,1,.75.75V8.59a.75.75,0,0,1-1.5,0V2h-25Zm0,0"/><path class="cls-1" d="M4.65,16.87a1,1,0,0,0,0,1.49,1,1,0,0,0,1.47,0l7.54-7.53V35.7a1,1,0,0,0,1,1.06,1.06,1.06,0,0,0,1.06-1.06V10.83l7.53,7.53a1.05,1.05,0,0,0,1.49-1.49L15.45,7.54a1.06,1.06,0,0,0-1.49,0Z"/></svg>